<svg xmlns="http://www.w3.org/2000/svg" xmlns:xlink="http://www.w3.org/1999/xlink" width="192" height="64" class="cesium-lighter" version="1.1" viewBox="0 0 192 64"><metadata/><style type="text/css"/><g class="cesium-animation-rectButton" transform="matrix(1.9277284,0,0,1.9276973,129.15635,1.156776)"><rect width="32" height="32" x="0" y="0" fill="#FFF" class="cesium-animation-buttonGlow" display="none" filter="url(#animation_blurred)" rx="2" ry="2"/><rect width="32" height="32" x="0" y="0" fill="url(#linearGradient3211)" stroke="#759dc0" stroke-width="1.2" class="cesium-animation-buttonMain" rx="4" ry="4"/><use width="169" height="112" x="0" y="0" fill="#111" class="cesium-animation-buttonPath" xlink:href="#animation_pathPlay"/><title>Play Forward</title></g><g class="cesium-animation-rectButton" transform="matrix(1.9277255,0,0,1.9276989,65.156392,1.1567735)"><rect width="32" height="32" x="0" y="0" fill="#FFF" class="cesium-animation-buttonGlow" display="none" filter="url(#animation_blurred)" rx="2" ry="2"/><rect width="32" height="32" x="0" y="0" fill="url(#linearGradient3211)" stroke="#759dc0" stroke-width="1.2" class="cesium-animation-buttonMain" rx="4" ry="4"/><use width="169" height="112" x="0" y="0" fill="#111" class="cesium-animation-buttonPath" xlink:href="#animation_pathPause"/><title>Pause</title></g><g class="cesium-animation-rectButton" transform="matrix(1.9277255,0,0,1.9276989,1.1566095,1.1567735)"><rect width="32" height="32" x="0" y="0" fill="#FFF" class="cesium-animation-buttonGlow" display="none" filter="url(#animation_blurred)" rx="2" ry="2"/><rect width="32" height="32" x="0" y="0" fill="url(#linearGradient3211)" stroke="#759dc0" stroke-width="1.2" class="cesium-animation-buttonMain" rx="4" ry="4"/><use width="169" height="112" x="0" y="0" fill="#111" class="cesium-animation-buttonPath" xlink:href="#animation_pathPlayReverse"/><title>Play Reverse</title></g><rect width="32" height="32" x="0" y="0" fill="#FFF" class="cesium-sceneModePicker-buttonGlow" display="none" filter="url(#sceneMode_blurred)" rx="2" ry="2" transform="matrix(0.845,0,0,0.84848485,37.18,36)"/><rect width="32" height="32" x="0" y="0" fill="#FFF" class="cesium-sceneModePicker-buttonGlow" display="none" filter="url(#sceneMode_blurred)" rx="2" ry="2" transform="matrix(0.845,0,0,0.84848485,104.78,36)"/><rect width="32" height="32" x="0" y="0" fill="#FFF" class="cesium-sceneModePicker-buttonGlow" display="none" filter="url(#sceneMode_blurred)" rx="2" ry="2" transform="matrix(0.845,0,0,0.84848485,70.98,36)"/><defs><linearGradient id="sceneMode_buttonNormal" x1=".5" x2=".5" y2="1"><stop offset="0" stop-color="#747577"/><stop offset=".12" stop-color="#394452"/><stop offset=".46" stop-color="#2D3237"/><stop offset=".81" stop-color="#353535"/></linearGradient><linearGradient id="sceneMode_buttonHovered" x1=".5" x2=".5" y2="1"><stop offset="0" stop-color="#89B4CF"/><stop offset=".12" stop-color="#5494C1"/><stop offset=".46" stop-color="#4C8EB8"/><stop offset=".81" stop-color="#5492B7"/></linearGradient><linearGradient id="sceneMode_buttonDisabled" x1=".5" x2=".5" y2="1"><stop offset="0" stop-color="#696969"/><stop offset=".75" stop-color="#333"/></linearGradient><filter id="sceneMode_blurred" width="2" height="2" x="-.5" y="-.5" color-interpolation-filters="sRGB"><feGaussianBlur in="SourceGraphic" stdDeviation="4"/></filter><filter id="animation_blurred" width="2" height="2" x="-.5" y="-.5" color-interpolation-filters="sRGB"><feGaussianBlur in="SourceGraphic" stdDeviation="4"/></filter><linearGradient id="linearGradient3211" x1="16" x2="16" y1="-.6" y2="32.6" gradientUnits="userSpaceOnUse" xlink:href="#animation_buttonNormal"/><linearGradient id="animation_buttonNormal" x1=".5" x2=".5" y2="1"><stop offset="0" stop-color="#ECF6FF"/><stop offset=".12" stop-color="#D3E7FF"/><stop offset=".46" stop-color="#DEEEFF"/><stop offset=".81" stop-color="#E8F4FF"/></linearGradient></defs><g fill="none" stroke="#111" stroke-miterlimit="4" stroke-width="2.5"><path d="m54.581,31.918a22.909,22.901,0,1,0,-45.818,0,22.909,22.901,0,1,0,45.818,0z" transform="translate(0.3010675,-0.13519409)"/><path d="m30.998,9.2293s13.358,2.3421,13.224,22.641c-0.13358,20.298-12.556,23.031-12.556,23.031" transform="translate(0.3010675,-0.13519409)"/><path d="m30.998,9.2293s-13.47,2.4335-13.603,22.732c-0.13358,20.298,14.271,22.94,14.271,22.94" transform="translate(0.3010675,-0.13519409)"/><path d="m30.998,9.2293,0.26715,22.422,0.40073,23.602" transform="translate(0.3010675,-0.13519409)"/><path d="m15.332,16.386s0.38062,4.5541,15.681,4.5541c15.301,0,18.189-4.2939,17.922-4.1638" transform="translate(0.3010675,-0.13519409)"/><path d="m9.3653,28.877s2.9247,4.8144,22.09,4.8144,23.18-4.5541,23.18-4.5541" transform="translate(0.3010675,-0.13519409)"/><path d="m10.545,39.937s2.7152,5.0746,20.708,5.0746,21.792-4.8144,21.792-4.8144" transform="translate(0.3010675,-0.13519409)"/></g><g fill="none" stroke="#111" stroke-miterlimit="4" stroke-width="2.5"><path d="m79.307,82.682,39.25,0" transform="translate(-2.75,-50.625044)"/><path d="m83.871,70.624,29.758,0,10.25,24.008-50.258,0z" transform="translate(-2.75,-50.625044)"/><path d="m98.75,70.758,0,23.12" transform="translate(-2.75,-50.625044)"/><path d="m106.19,70.883,5.75,23.12" transform="translate(-2.75,-50.625044)"/><path d="m92.061,70.618-6.5,23.12" transform="translate(-2.75,-50.625044)"/></g><g fill="none" stroke="#111" stroke-miterlimit="4" stroke-width="2.5" transform="translate(-0.37899531,0.2569328)"><path d="m135.44,31.8,50,0"/><rect width="50.258" height="24.008" x="135.25" y="19.742"/><path d="m160.38,19.876,0,23.12"/><path d="m173.57,20.001,0,23.12"/><path d="m147.19,19.736,0,23.12"/></g></svg>