<svg xmlns="http://www.w3.org/2000/svg" id="svg378" width="512" height="512" x="0" y="0" version="1.0"><metadata id="metadata3720"/><defs id="defs380"><clipPath id="clipPath5767" clipPathUnits="userSpaceOnUse"><rect id="rect5769" width="512" height="512" x="0" y="0" fill-opacity=".67"/></clipPath></defs><g id="flag" fill-rule="evenodd" clip-path="url(#clipPath5767)"><rect id="rect171" width="769.46" height="170.67" x="-128" y="341.33" fill="#dc0000" stroke-width="1pt"/><rect id="rect256" width="769.46" height="170.67" x="-128" y="0" fill="#ffcb00" stroke-width="1pt"/><rect id="rect255" width="769.46" height="170.67" x="-128" y="170.67" fill="#0000ba" stroke-width="1pt"/><g id="g595" fill="#fff" stroke-width=".113" transform="matrix(3.3148 0 0 3.6671 -90.916 1.2288)"><path id="path575" d="m266.19 534.45-10.408-7.432-10.357 7.505 3.852-12.196-10.338-7.531 12.79-0.105 3.967-12.159 4.052 12.131 12.79 0.016-10.285 7.602 3.937 12.169z" transform="matrix(.35933 0 0 .32494 13.106 -111.63)"/><path id="path576" d="m266.19 534.45-10.408-7.432-10.357 7.505 3.852-12.196-10.338-7.531 12.79-0.105 3.967-12.159 4.052 12.131 12.79 0.016-10.285 7.602 3.937 12.169z" transform="matrix(.35933 0 0 .32494 31.717 -109.56)"/><path id="path577" d="m266.19 534.45-10.408-7.432-10.357 7.505 3.852-12.196-10.338-7.531 12.79-0.105 3.967-12.159 4.052 12.131 12.79 0.016-10.285 7.602 3.937 12.169z" transform="matrix(.35933 0 0 .32494 47.847 -100.46)"/><path id="path578" d="m266.19 534.45-10.408-7.432-10.357 7.505 3.852-12.196-10.338-7.531 12.79-0.105 3.967-12.159 4.052 12.131 12.79 0.016-10.285 7.602 3.937 12.169z" transform="matrix(.35933 0 0 .32494 56.946 -86.815)"/><path id="path579" d="m266.19 534.45-10.408-7.432-10.357 7.505 3.852-12.196-10.338-7.531 12.79-0.105 3.967-12.159 4.052 12.131 12.79 0.016-10.285 7.602 3.937 12.169z" transform="matrix(-.35933 0 0 .32494 178.28 -109.56)"/><path id="path580" d="m266.19 534.45-10.408-7.432-10.357 7.505 3.852-12.196-10.338-7.531 12.79-0.105 3.967-12.159 4.052 12.131 12.79 0.016-10.285 7.602 3.937 12.169z" transform="matrix(-.35933 0 0 .32494 162.15 -100.46)"/><path id="path581" d="m266.19 534.45-10.408-7.432-10.357 7.505 3.852-12.196-10.338-7.531 12.79-0.105 3.967-12.159 4.052 12.131 12.79 0.016-10.285 7.602 3.937 12.169z" transform="matrix(-.35933 0 0 .32494 153.05 -86.815)"/></g></g></svg>