<svg xmlns="http://www.w3.org/2000/svg" id="svg378" width="640" height="480" x="0" y="0" version="1.0"><metadata id="metadata3720"/><defs id="defs380"><clipPath id="clipPath5644" clipPathUnits="userSpaceOnUse"><rect id="rect5646" width="682.67" height="512" x="-84.605" y="0" fill-opacity=".67"/></clipPath></defs><g id="flag" fill-rule="evenodd" clip-path="url(#clipPath5644)" transform="matrix(.93750 0 0 .93750 79.318 -.0000048119)"><rect id="rect171" width="769.46" height="170.67" x="-128" y="341.33" fill="#dc0000" stroke-width="1pt"/><rect id="rect256" width="769.46" height="170.67" x="-128" y="0" fill="#ffcb00" stroke-width="1pt"/><rect id="rect255" width="769.46" height="170.67" x="-128" y="170.67" fill="#0000ba" stroke-width="1pt"/><path id="path575" fill="#fff" stroke-width=".113" d="m269.58 228.72-12.397-8.856-12.336 8.943 4.5881-14.533-12.314-8.9739 15.234-0.12511 4.7251-14.489 4.8264 14.455 15.234 0.0191-12.25 9.0585 4.6894 14.501z"/><path id="path576" fill="#fff" stroke-width=".113" d="m331.27 236.3-12.397-8.856-12.336 8.943 4.5881-14.533-12.314-8.9739 15.234-0.12511 4.7251-14.489 4.8264 14.455 15.234 0.0191-12.25 9.0585 4.6894 14.501z"/><path id="path577" fill="#fff" stroke-width=".113" d="m384.74 269.67-12.397-8.856-12.336 8.943 4.5881-14.533-12.314-8.9739 15.234-0.12511 4.7251-14.489 4.8264 14.455 15.234 0.0191-12.25 9.0585 4.6894 14.501z"/><path id="path578" fill="#fff" stroke-width=".113" d="m414.9 319.72-12.397-8.856-12.336 8.943 4.5881-14.533-12.314-8.9739 15.234-0.12511 4.7251-14.489 4.8264 14.455 15.234 0.0191-12.25 9.0585 4.6894 14.501z"/><path id="path579" fill="#fff" stroke-width=".113" d="m182.99 236.3 12.397-8.856 12.336 8.943-4.5881-14.533 12.314-8.9739-15.234-0.12511-4.7251-14.489-4.8264 14.455-15.234 0.0191 12.25 9.0585-4.6894 14.501z"/><path id="path580" fill="#fff" stroke-width=".113" d="m129.53 269.67 12.397-8.856 12.336 8.943-4.5881-14.533 12.314-8.9739-15.234-0.12511-4.7251-14.489-4.8264 14.455-15.234 0.0191 12.25 9.0585-4.6894 14.501z"/><path id="path581" fill="#fff" stroke-width=".113" d="m99.369 319.72 12.397-8.856 12.336 8.943-4.5881-14.533 12.314-8.9739-15.234-0.12511-4.7251-14.489-4.8264 14.455-15.234 0.0191 12.25 9.0585-4.6894 14.501z"/></g></svg>