<svg xmlns="http://www.w3.org/2000/svg" width="128" height="128" version="1.1"><metadata/><g fill="#FFF" fill-rule="evenodd" stroke="#000"><path stroke-dasharray="none" stroke-miterlimit="4" stroke-width=".074" d="m84.026,14.373,26.213-0.02988-0.0178-26.266-7.2844-7.2784-0.0883,20.21-20.863-20.855-5.8306,5.8435,20.989,20.991-20.42,0.0811,7.3031,7.3031z" transform="translate(0,96)"/><path stroke-width=".074" d="m44.014,14.24-26.213-0.02988,0.01775-26.266,7.2844-7.2784,0.08822,20.21,20.863-20.855,5.8306,5.8435-20.989,20.991,20.42,0.08111-7.3031,7.3031z" transform="translate(0,96)"/><path stroke-width=".074" d="m44.128-78.398-26.213,0.02988,0.01775,26.266,7.2844,7.2784,0.08822-20.21,20.863,20.855,5.8306-5.8435-20.989-20.991,20.42-0.08111-7.3031-7.3031z" transform="translate(0,96)"/><path stroke-width=".074" d="m83.969-78.422,26.213,0.02988-0.0178,26.266-7.2844,7.2784-0.0883-20.21-20.863,20.855-5.8306-5.8435,20.989-20.991-20.42-0.0811,7.3031-7.3031z" transform="translate(0,96)"/></g></svg>