<svg xmlns="http://www.w3.org/2000/svg" xmlns:xlink="http://www.w3.org/1999/xlink" width="28" height="28" class="testSVG" version="1.1" viewBox="0 0 28 28"><metadata/><style type="text/css"/><rect width="32" height="32" x="0" y="0" fill="#FFF" class="cesium-sceneModePicker-buttonGlow" display="none" filter="url(#sceneMode_blurred)" rx="2" ry="2" transform="matrix(0.845,0,0,0.84848485,37.18,0)"/><rect width="26.988" height="26.988" x=".506" y=".506" fill="url(#linearGradient4392)" stroke="#444" stroke-width="1.012" class="cesium-sceneModePicker-buttonMain" rx="3.373" ry="3.373"/><rect width="32" height="32" x="0" y="0" fill="#FFF" class="cesium-sceneModePicker-buttonGlow" display="none" filter="url(#sceneMode_blurred)" rx="2" ry="2" transform="matrix(0.845,0,0,0.84848485,104.78,0)"/><rect width="32" height="32" x="0" y="0" fill="#FFF" class="cesium-sceneModePicker-buttonGlow" display="none" filter="url(#sceneMode_blurred)" rx="2" ry="2" transform="matrix(0.845,0,0,0.84848485,70.98,0)"/><defs><linearGradient id="sceneMode_buttonNormal" x1=".5" x2=".5" y2="1"><stop offset="0" stop-color="#747577"/><stop offset=".12" stop-color="#394452"/><stop offset=".46" stop-color="#2D3237"/><stop offset=".81" stop-color="#353535"/></linearGradient><linearGradient id="sceneMode_buttonHovered" x1=".5" x2=".5" y2="1"><stop offset="0" stop-color="#89B4CF"/><stop offset=".12" stop-color="#5494C1"/><stop offset=".46" stop-color="#4C8EB8"/><stop offset=".81" stop-color="#5492B7"/></linearGradient><linearGradient id="sceneMode_buttonDisabled" x1=".5" x2=".5" y2="1"><stop offset="0" stop-color="#696969"/><stop offset=".75" stop-color="#333"/></linearGradient><filter id="sceneMode_blurred" width="2" height="2" x="-.5" y="-.5" color-interpolation-filters="sRGB"><feGaussianBlur in="SourceGraphic" stdDeviation="4"/></filter><linearGradient id="linearGradient4392" x1="16" x2="16" y1="-.6" y2="32.6" gradientTransform="matrix(0.84337339,0,0,0.84335832,0.5060306,0.5060251)" gradientUnits="userSpaceOnUse" xlink:href="#sceneMode_buttonNormal"/></defs><path fill="#edffff" fill-rule="evenodd" d="M14,4l-10,8.75h20l-4.25-3.7188v-4.6562h-2.812v2.1875l-2.938-2.5625zm-7.0938,9.906v10.094h14.094v-10.094h-14.094zm2.1876,2.313h3.3122v4.25h-3.3122v-4.25zm5.8442,1.281h3.406v6.438h-3.406v-6.438z"/></svg>