<svg xmlns="http://www.w3.org/2000/svg" xmlns:svg="http://www.w3.org/2000/svg" xmlns:xlink="http://www.w3.org/1999/xlink" id="svg2" width="90" height="30" version="1.1"><defs id="defs4"><linearGradient id="linearGradient3799"><stop id="stop3801" offset="0" stop-color="#ff8700" stop-opacity="1"/><stop id="stop3803" offset="1" stop-color="#ffe300" stop-opacity="1"/></linearGradient><linearGradient id="linearGradient3817"><stop id="stop3819" offset="0" stop-color="#0090ff" stop-opacity="1"/><stop id="stop3821" offset="1" stop-color="#00efff" stop-opacity="1"/></linearGradient><linearGradient id="linearGradient3823" x1="6" x2="6" y1="8" y2="4" gradientUnits="userSpaceOnUse" xlink:href="#linearGradient3817"/><linearGradient id="linearGradient3046" x1="6" x2="6" y1="8" y2="4" gradientUnits="userSpaceOnUse" xlink:href="#linearGradient3799"/><linearGradient id="linearGradient3181" x1="6" x2="6" y1="8" y2="4" gradientUnits="userSpaceOnUse" xlink:href="#linearGradient3817"/><linearGradient id="linearGradient3183" x1="6" x2="6" y1="8" y2="4" gradientUnits="userSpaceOnUse" xlink:href="#linearGradient3799"/><linearGradient id="linearGradient3199" x1="6" x2="6" y1="8" y2="4" gradientUnits="userSpaceOnUse" xlink:href="#linearGradient3817"/><linearGradient id="linearGradient3201" x1="6" x2="6" y1="8" y2="4" gradientUnits="userSpaceOnUse" xlink:href="#linearGradient3799"/><linearGradient id="linearGradient3214" x1="6" x2="6" y1="8" y2="4" gradientUnits="userSpaceOnUse" xlink:href="#linearGradient3817"/><linearGradient id="linearGradient3216" x1="6" x2="6" y1="8" y2="4" gradientUnits="userSpaceOnUse" xlink:href="#linearGradient3799"/><linearGradient id="linearGradient3225" x1="6" x2="6" y1="8" y2="4" gradientUnits="userSpaceOnUse" xlink:href="#linearGradient3817"/><linearGradient id="linearGradient3251" x1="6" x2="6" y1="8" y2="4" gradientUnits="userSpaceOnUse" xlink:href="#linearGradient3817"/><linearGradient id="linearGradient4016" x1="6" x2="6" y1="8" y2="4" gradientUnits="userSpaceOnUse" xlink:href="#linearGradient3817"/><linearGradient id="linearGradient4030" x1="6" x2="6" y1="8" y2="4" gradientUnits="userSpaceOnUse" xlink:href="#linearGradient3799"/><linearGradient id="linearGradient4054" x1="6" x2="6" y1="8" y2="4" gradientUnits="userSpaceOnUse" xlink:href="#linearGradient3817"/><linearGradient id="linearGradient4056" x1="6" x2="6" y1="8" y2="4" gradientUnits="userSpaceOnUse" xlink:href="#linearGradient3799"/></defs><metadata id="metadata7"/><g id="layer1" display="inline" transform="translate(0,-1022.3622)"><path id="path3040" fill="#404040" fill-opacity="1" stroke="#404040" stroke-dasharray="none" stroke-linecap="round" stroke-linejoin="round" stroke-miterlimit="4" stroke-opacity="1" stroke-width="1.2" d="m -20,1025.3787 -5,10.9835 5.044194,-4.5303 4.955806,4.5303 z"/><path id="path3818" fill="#404040" fill-opacity="1" stroke="#404040" stroke-dasharray="none" stroke-linecap="round" stroke-linejoin="round" stroke-miterlimit="4" stroke-opacity="1" stroke-width="1.141" d="m 20.298511,1031.9111 -10.5556336,4.5115 6.4490076,0.051 0.577406,6.3608 z"/><path id="path3820" fill="#005c94" fill-opacity="1" stroke="#005c94" stroke-dasharray="none" stroke-linecap="round" stroke-linejoin="round" stroke-miterlimit="4" stroke-opacity="1" stroke-width="1.141" d="m 50.298511,1031.9111 -10.555634,4.5115 6.449008,0.051 0.577406,6.3608 z"/><path id="path3822" fill="#f90" fill-opacity="1" stroke="#f90" stroke-dasharray="none" stroke-linecap="round" stroke-linejoin="round" stroke-miterlimit="4" stroke-opacity="1" stroke-width="1.141" d="m 80.298511,1031.9111 -10.555634,4.5115 6.449008,0.051 0.577406,6.3608 z"/></g><g id="layer2" display="none"><path id="path3989" fill="none" stroke="#404040" stroke-dasharray="none" stroke-miterlimit="4" stroke-opacity="1" stroke-width="1.8" d="M 12,6 A 6,6 0 1 1 0,6 6,6 0 1 1 12,6 z" display="inline" transform="matrix(1.1593579,0,0,1.1593579,10.043852,10.043869)"/><rect id="rect3991" width="4.174" height="2.782" x="10.044" y="15.609" fill="#404040" fill-opacity="1" stroke="none" display="inline"/><rect id="rect3993" width="4.174" height="2.782" x="19.782" y="15.609" fill="#404040" fill-opacity="1" stroke="none" display="inline"/><rect id="rect3995" width="2.782" height="4.174" x="15.609" y="10.044" fill="#404040" fill-opacity="1" stroke="none" display="inline"/><rect id="rect3997" width="2.782" height="4.174" x="15.609" y="19.782" fill="#404040" fill-opacity="1" stroke="none" display="inline"/><path id="path4004" fill="url(#linearGradient4054)" fill-opacity="1" stroke="none" d="M 8,6 A 2,2 0 1 1 4,6 2,2 0 1 1 8,6 z" display="inline" transform="matrix(3.46875,0,0,3.46875,26.125,-3.875)"/><path id="path4018" fill="url(#linearGradient4056)" fill-opacity="1" stroke="none" d="M 8,6 A 2,2 0 1 1 4,6 2,2 0 1 1 8,6 z" display="inline" transform="matrix(3.5,0,0,3.5,56,-4)"/><path id="path4034" fill="none" stroke="#404040" stroke-dasharray="none" stroke-miterlimit="4" stroke-opacity="1" stroke-width="1.8" d="M 12,6 A 6,6 0 1 1 0,6 6,6 0 1 1 12,6 z" display="inline" transform="matrix(1.1593579,0,0,1.1593579,40.043852,10.043869)"/><rect id="rect4036" width="4.174" height="2.782" x="40.044" y="15.609" fill="#404040" fill-opacity="1" stroke="none" display="inline"/><rect id="rect4038" width="4.174" height="2.782" x="49.782" y="15.609" fill="#404040" fill-opacity="1" stroke="none" display="inline"/><rect id="rect4040" width="2.782" height="4.174" x="45.609" y="10.044" fill="#404040" fill-opacity="1" stroke="none" display="inline"/><rect id="rect4042" width="2.782" height="4.174" x="45.609" y="19.782" fill="#404040" fill-opacity="1" stroke="none" display="inline"/><path id="path4044" fill="none" stroke="#404040" stroke-dasharray="none" stroke-miterlimit="4" stroke-opacity="1" stroke-width="1.8" d="M 12,6 A 6,6 0 1 1 0,6 6,6 0 1 1 12,6 z" display="inline" transform="matrix(1.1593579,0,0,1.1593579,70.043852,10.043869)"/><rect id="rect4046" width="4.174" height="2.782" x="70.044" y="15.609" fill="#404040" fill-opacity="1" stroke="none" display="inline"/><rect id="rect4048" width="4.174" height="2.782" x="79.782" y="15.609" fill="#404040" fill-opacity="1" stroke="none" display="inline"/><rect id="rect4050" width="2.782" height="4.174" x="75.609" y="10.044" fill="#404040" fill-opacity="1" stroke="none" display="inline"/><rect id="rect4052" width="2.782" height="4.174" x="75.609" y="19.782" fill="#404040" fill-opacity="1" stroke="none" display="inline"/></g></svg>