<svg xmlns="http://www.w3.org/2000/svg" xmlns:svg="http://www.w3.org/2000/svg" xmlns:xlink="http://www.w3.org/1999/xlink" id="svg2" width="90" height="30" version="1.1"><defs id="defs4"><linearGradient id="linearGradient3799"><stop id="stop3801" offset="0" stop-color="#ff8700" stop-opacity="1"/><stop id="stop3803" offset="1" stop-color="#ffe300" stop-opacity="1"/></linearGradient><linearGradient id="linearGradient3817"><stop id="stop3819" offset="0" stop-color="#0090ff" stop-opacity="1"/><stop id="stop3821" offset="1" stop-color="#00efff" stop-opacity="1"/></linearGradient><linearGradient id="linearGradient3823" x1="6" x2="6" y1="8" y2="4" gradientUnits="userSpaceOnUse" xlink:href="#linearGradient3817"/><linearGradient id="linearGradient3046" x1="6" x2="6" y1="8" y2="4" gradientUnits="userSpaceOnUse" xlink:href="#linearGradient3799"/><linearGradient id="linearGradient3181" x1="6" x2="6" y1="8" y2="4" gradientUnits="userSpaceOnUse" xlink:href="#linearGradient3817"/><linearGradient id="linearGradient3183" x1="6" x2="6" y1="8" y2="4" gradientUnits="userSpaceOnUse" xlink:href="#linearGradient3799"/><linearGradient id="linearGradient3199" x1="6" x2="6" y1="8" y2="4" gradientUnits="userSpaceOnUse" xlink:href="#linearGradient3817"/><linearGradient id="linearGradient3201" x1="6" x2="6" y1="8" y2="4" gradientUnits="userSpaceOnUse" xlink:href="#linearGradient3799"/><linearGradient id="linearGradient3214" x1="6" x2="6" y1="8" y2="4" gradientUnits="userSpaceOnUse" xlink:href="#linearGradient3817"/><linearGradient id="linearGradient3216" x1="6" x2="6" y1="8" y2="4" gradientUnits="userSpaceOnUse" xlink:href="#linearGradient3799"/><linearGradient id="linearGradient3225" x1="6" x2="6" y1="8" y2="4" gradientUnits="userSpaceOnUse" xlink:href="#linearGradient3817"/><linearGradient id="linearGradient3251" x1="6" x2="6" y1="8" y2="4" gradientUnits="userSpaceOnUse" xlink:href="#linearGradient3817"/><linearGradient id="linearGradient4016" x1="6" x2="6" y1="8" y2="4" gradientUnits="userSpaceOnUse" xlink:href="#linearGradient3817"/><linearGradient id="linearGradient4030" x1="6" x2="6" y1="8" y2="4" gradientUnits="userSpaceOnUse" xlink:href="#linearGradient3799"/><linearGradient id="linearGradient4054" x1="6" x2="6" y1="8" y2="4" gradientUnits="userSpaceOnUse" xlink:href="#linearGradient3817"/><linearGradient id="linearGradient4056" x1="6" x2="6" y1="8" y2="4" gradientUnits="userSpaceOnUse" xlink:href="#linearGradient3799"/></defs><metadata id="metadata7"/><g id="layer1" display="inline" transform="translate(0,-1022.3622)"><path id="path3167" fill="url(#linearGradient3251)" fill-opacity="1" stroke="none" d="M 8,6 A 2,2 0 1 1 4,6 2,2 0 1 1 8,6 z" display="inline" transform="matrix(2.5,0,0,2.5,30,1022.3622)"/><path id="path3958" fill="none" stroke="#404040" stroke-dasharray="none" stroke-miterlimit="4" stroke-opacity="1" stroke-width="1.8" d="M 12,6 A 6,6 0 1 1 0,6 6,6 0 1 1 12,6 z" transform="matrix(0.86950283,0,0,0.86950283,39.782983,1032.1452)"/><rect id="rect3960" width="3.13" height="2.087" x="39.783" y="1036.319" fill="#404040" fill-opacity="1" stroke="none"/><rect id="rect3962" width="3.13" height="2.087" x="47.087" y="1036.319" fill="#404040" fill-opacity="1" stroke="none"/><rect id="rect3964" width="2.087" height="3.13" x="43.957" y="1032.145" fill="#404040" fill-opacity="1" stroke="none"/><rect id="rect3966" width="2.087" height="3.13" x="43.957" y="1039.449" fill="#404040" fill-opacity="1" stroke="none"/><path id="path3946" fill="none" stroke="#404040" stroke-dasharray="none" stroke-miterlimit="4" stroke-opacity="1" stroke-width="1.8" d="M 12,6 A 6,6 0 1 1 0,6 6,6 0 1 1 12,6 z" transform="matrix(0.86950283,0,0,0.86950283,9.782983,1032.1452)"/><rect id="rect3948" width="3.13" height="2.087" x="9.783" y="1036.319" fill="#404040" fill-opacity="1" stroke="none"/><rect id="rect3950" width="3.13" height="2.087" x="17.087" y="1036.319" fill="#404040" fill-opacity="1" stroke="none"/><rect id="rect3952" width="2.087" height="3.13" x="13.957" y="1032.145" fill="#404040" fill-opacity="1" stroke="none"/><rect id="rect3954" width="2.087" height="3.13" x="13.957" y="1039.449" fill="#404040" fill-opacity="1" stroke="none"/><path id="path3044" fill="url(#linearGradient3046)" fill-opacity="1" stroke="none" d="M 8,6 A 2,2 0 1 1 4,6 2,2 0 1 1 8,6 z" display="inline" transform="matrix(2.5,0,0,2.5,60,1022.3622)"/><path id="path3968" fill="none" stroke="#404040" stroke-dasharray="none" stroke-miterlimit="4" stroke-opacity="1" stroke-width="1.8" d="M 12,6 A 6,6 0 1 1 0,6 6,6 0 1 1 12,6 z" transform="matrix(0.86950283,0,0,0.86950283,69.782983,1032.1452)"/><rect id="rect3970" width="3.13" height="2.087" x="69.783" y="1036.319" fill="#404040" fill-opacity="1" stroke="none"/><rect id="rect3972" width="3.13" height="2.087" x="77.087" y="1036.319" fill="#404040" fill-opacity="1" stroke="none"/><rect id="rect3974" width="2.087" height="3.13" x="73.957" y="1032.145" fill="#404040" fill-opacity="1" stroke="none"/><rect id="rect3976" width="2.087" height="3.13" x="73.957" y="1039.449" fill="#404040" fill-opacity="1" stroke="none"/></g><g id="layer2" display="none"><path id="path3989" fill="none" stroke="#404040" stroke-dasharray="none" stroke-miterlimit="4" stroke-opacity="1" stroke-width="1.8" d="M 12,6 A 6,6 0 1 1 0,6 6,6 0 1 1 12,6 z" display="inline" transform="matrix(1.1593579,0,0,1.1593579,10.043852,10.043869)"/><rect id="rect3991" width="4.174" height="2.782" x="10.044" y="15.609" fill="#404040" fill-opacity="1" stroke="none" display="inline"/><rect id="rect3993" width="4.174" height="2.782" x="19.782" y="15.609" fill="#404040" fill-opacity="1" stroke="none" display="inline"/><rect id="rect3995" width="2.782" height="4.174" x="15.609" y="10.044" fill="#404040" fill-opacity="1" stroke="none" display="inline"/><rect id="rect3997" width="2.782" height="4.174" x="15.609" y="19.782" fill="#404040" fill-opacity="1" stroke="none" display="inline"/><path id="path4004" fill="url(#linearGradient4054)" fill-opacity="1" stroke="none" d="M 8,6 A 2,2 0 1 1 4,6 2,2 0 1 1 8,6 z" display="inline" transform="matrix(3.46875,0,0,3.46875,26.125,-3.875)"/><path id="path4018" fill="url(#linearGradient4056)" fill-opacity="1" stroke="none" d="M 8,6 A 2,2 0 1 1 4,6 2,2 0 1 1 8,6 z" display="inline" transform="matrix(3.5,0,0,3.5,56,-4)"/><path id="path4034" fill="none" stroke="#404040" stroke-dasharray="none" stroke-miterlimit="4" stroke-opacity="1" stroke-width="1.8" d="M 12,6 A 6,6 0 1 1 0,6 6,6 0 1 1 12,6 z" display="inline" transform="matrix(1.1593579,0,0,1.1593579,40.043852,10.043869)"/><rect id="rect4036" width="4.174" height="2.782" x="40.044" y="15.609" fill="#404040" fill-opacity="1" stroke="none" display="inline"/><rect id="rect4038" width="4.174" height="2.782" x="49.782" y="15.609" fill="#404040" fill-opacity="1" stroke="none" display="inline"/><rect id="rect4040" width="2.782" height="4.174" x="45.609" y="10.044" fill="#404040" fill-opacity="1" stroke="none" display="inline"/><rect id="rect4042" width="2.782" height="4.174" x="45.609" y="19.782" fill="#404040" fill-opacity="1" stroke="none" display="inline"/><path id="path4044" fill="none" stroke="#404040" stroke-dasharray="none" stroke-miterlimit="4" stroke-opacity="1" stroke-width="1.8" d="M 12,6 A 6,6 0 1 1 0,6 6,6 0 1 1 12,6 z" display="inline" transform="matrix(1.1593579,0,0,1.1593579,70.043852,10.043869)"/><rect id="rect4046" width="4.174" height="2.782" x="70.044" y="15.609" fill="#404040" fill-opacity="1" stroke="none" display="inline"/><rect id="rect4048" width="4.174" height="2.782" x="79.782" y="15.609" fill="#404040" fill-opacity="1" stroke="none" display="inline"/><rect id="rect4050" width="2.782" height="4.174" x="75.609" y="10.044" fill="#404040" fill-opacity="1" stroke="none" display="inline"/><rect id="rect4052" width="2.782" height="4.174" x="75.609" y="19.782" fill="#404040" fill-opacity="1" stroke="none" display="inline"/></g></svg>