<svg xmlns="http://www.w3.org/2000/svg" width="128" height="128" version="1.1"><metadata/><g fill="#000" fill-rule="evenodd" stroke="#000"><path stroke-dasharray="none" stroke-miterlimit="4" stroke-width=".074" d="m102.37-19.845-26.213,0.02988,0.0178,26.266,7.2844,7.2784,0.0883-20.21,20.863,20.855,5.8306-5.8435-20.989-20.991,20.42-0.0811-7.3031-7.3031z" transform="translate(0,96)"/><path stroke-width=".074" d="m25.672-19.978,26.213,0.02988-0.01775,26.266-7.2844,7.2784-0.08822-20.21-20.863,20.855-5.8306-5.8435,20.989-20.991-20.42-0.08111,7.3031-7.3031z" transform="translate(0,96)"/><path stroke-width=".074" d="m25.787-44.179,26.213-0.02988-0.01775-26.266-7.2844-7.2784-0.08822,20.21-20.863-20.855-5.8306,5.8435,20.989,20.991-20.42,0.08111,7.3031,7.3031z" transform="translate(0,96)"/><path stroke-width=".074" d="m102.31-44.203-26.213-0.02988,0.0178-26.266,7.2844-7.2784,0.0883,20.21,20.863-20.855,5.8306,5.8435-20.989,20.991,20.42,0.0811-7.3031,7.3031z" transform="translate(0,96)"/></g></svg>