<svg xmlns="http://www.w3.org/2000/svg" xmlns:xlink="http://www.w3.org/1999/xlink" width="192" height="64" version="1.1" viewBox="0 0 192 64"><metadata/><style type="text/css"/><rect width="61.687" height="61.687" x="65.157" y="1.157" fill="url(#linearGradient4382)" stroke="#444" stroke-width="2.313" class="cesium-sceneModePicker-buttonMain" rx="7.711" ry="7.711"/><rect width="61.687" height="61.687" x="1.157" y="1.157" fill="url(#linearGradient4392)" stroke="#444" stroke-width="2.313" class="cesium-sceneModePicker-buttonMain" rx="7.711" ry="7.711"/><rect width="61.687" height="61.687" x="129.16" y="1.157" fill="url(#linearGradient4387)" stroke="#444" stroke-width="2.313" class="cesium-sceneModePicker-buttonMain" rx="7.711" ry="7.711"/><defs><linearGradient id="sceneMode_buttonNormal" x1=".5" x2=".5" y2="1"><stop offset="0" stop-color="#747577"/><stop offset=".12" stop-color="#394452"/><stop offset=".46" stop-color="#2D3237"/><stop offset=".81" stop-color="#353535"/></linearGradient><linearGradient id="sceneMode_buttonHovered" x1=".5" x2=".5" y2="1"><stop offset="0" stop-color="#89B4CF"/><stop offset=".12" stop-color="#5494C1"/><stop offset=".46" stop-color="#4C8EB8"/><stop offset=".81" stop-color="#5492B7"/></linearGradient><linearGradient id="sceneMode_buttonDisabled" x1=".5" x2=".5" y2="1"><stop offset="0" stop-color="#696969"/><stop offset=".75" stop-color="#333"/></linearGradient><filter id="sceneMode_blurred" width="2" height="2" x="-.5" y="-.5" color-interpolation-filters="sRGB"><feGaussianBlur in="SourceGraphic" stdDeviation="4"/></filter><linearGradient id="linearGradient4382" x1="16" x2="16" y1="-.6" y2="32.6" gradientTransform="matrix(1.9277105,0,0,1.9276762,65.157094,1.156629)" gradientUnits="userSpaceOnUse" xlink:href="#sceneMode_buttonNormal"/><linearGradient id="linearGradient4387" x1="16" x2="16" y1="-.6" y2="32.6" gradientTransform="matrix(1.9277105,0,0,1.9276762,129.15709,1.156629)" gradientUnits="userSpaceOnUse" xlink:href="#sceneMode_buttonNormal"/><linearGradient id="linearGradient4392" x1="16" x2="16" y1="-.6" y2="32.6" gradientTransform="matrix(1.9277105,0,0,1.9276762,1.1566413,1.156629)" gradientUnits="userSpaceOnUse" xlink:href="#sceneMode_buttonNormal"/></defs><g fill="none" stroke="#edffff" stroke-miterlimit="4" stroke-width="2.5"><path d="m54.581,31.918a22.909,22.901,0,1,0,-45.818,0,22.909,22.901,0,1,0,45.818,0z"/><path d="m30.998,9.2293s13.358,2.3421,13.224,22.641c-0.13358,20.298-12.556,23.031-12.556,23.031"/><path d="m30.998,9.2293s-13.47,2.4335-13.603,22.732c-0.13358,20.298,14.271,22.94,14.271,22.94"/><path d="m30.998,9.2293,0.26715,22.422,0.40073,23.602"/><path d="m15.332,16.386s0.38062,4.5541,15.681,4.5541c15.301,0,18.189-4.2939,17.922-4.1638"/><path d="m9.3653,28.877s2.9247,4.8144,22.09,4.8144,23.18-4.5541,23.18-4.5541"/><path d="m10.545,39.937s2.7152,5.0746,20.708,5.0746,21.792-4.8144,21.792-4.8144"/></g><g fill="none" stroke="#edffff" stroke-miterlimit="4" stroke-width="2.5"><path d="m135.44,31.8,50,0"/><rect width="50.258" height="24.008" x="135.25" y="19.742"/><path d="m160.38,19.876,0,23.12"/><path d="m173.57,20.001,0,23.12"/><path d="m147.19,19.736,0,23.12"/></g><g fill="none" stroke="#edffff" stroke-miterlimit="4" stroke-width="2.5"><path d="m79.307,82.682,39.25,0" transform="translate(-2.625,-50.75)"/><path d="m83.871,70.624,29.758,0,10.25,24.008-50.258,0z" transform="translate(-2.625,-50.75)"/><path d="m98.75,70.758,0,23.12" transform="translate(-2.625,-50.75)"/><path d="m106.19,70.883,5.75,23.12" transform="translate(-2.625,-50.75)"/><path d="m92.061,70.618-6.5,23.12" transform="translate(-2.625,-50.75)"/></g></svg>