<svg xmlns="http://www.w3.org/2000/svg"><metadata/><defs><font id="roboto_condensedbold_italic" horiz-adv-x="960"><font-face ascent="1638" descent="-410" units-per-em="2048"/><glyph d="M61 0l175 876h-126l41 206h126l14 70q44 220 171 324.5t330 104.5q63 0 129.5 -15.5t139.5 -43.5l-85 -232q-58 22 -104 34t-111 12q-70 0 -120.5 -48t-67.5 -136l-14 -70h161l-41 -206h-161l-175 -876h-282zM886 0h-283l216 1082h283z" horiz-adv-x="1074" unicode="fi"/><glyph horiz-adv-x="26"/><glyph horiz-adv-x="26"/><glyph horiz-adv-x="439"/><glyph horiz-adv-x="439"/><glyph horiz-adv-x="439"/><glyph d="M409 506h-283l190 950h283zM305 0h-276l52 258h276z" horiz-adv-x="500" unicode="!"/><glyph d="M384 1297l-115 -251h-122l39 239l44 275h196zM675 1297l-114 -251h-121l41 247l43 267h193z" horiz-adv-x="591" unicode="&quot;"/><glyph d="M510 410h-122l-138 -410h-170l138 410h-175l33 166h198l100 297h-178l33 167h202l140 416h170l-140 -416h121l140 416h171l-140 -416h176l-33 -167h-199l-100 -297h178l-33 -166h-201l-138 -410h-171zM566 576l100 297h-122l-100 -297h122z" horiz-adv-x="993" unicode="#"/><glyph d="M609 381q13 87 -8 134.5t-88 94.5q-172 87 -244.5 183.5t-42.5 278.5q27 172 132.5 277t259.5 124l35 212h142l-35 -217q133 -30 198.5 -151t35.5 -309h-282q19 122 -2 182.5t-71 60.5t-85 -51t-47 -129q-13 -78 9 -125.5t91 -96.5q169 -92 240.5 -189.5t43.5 -276.5 q-29 -178 -132 -279.5t-257 -119.5l-31 -199h-143l31 200q-146 22 -229 137t-48 334h282q-23 -141 7 -196.5t96 -55.5q53 0 91 49.5t51 127.5z" horiz-adv-x="984" unicode="$"/><glyph d="M240 1176q27 137 114.5 219t219.5 82q122 0 180.5 -87t33.5 -214l-15 -77q-28 -138 -114 -218.5t-219 -80.5q-122 0 -181.5 86.5t-33.5 212.5zM409 1099q-12 -60 4 -98t60 -38q40 0 72 40t44 96l15 77q12 61 -3 99.5t-59 38.5q-40 0 -73.5 -41t-44.5 -97zM656 357 q27 136 114.5 218t219.5 82q123 0 181 -87t33 -213l-15 -77q-28 -139 -113.5 -219.5t-218.5 -80.5q-122 0 -182 87t-34 213zM826 280q-13 -59 5.5 -98.5t57.5 -38.5q48 -1 76.5 37.5t40.5 99.5l15 77q12 61 -3.5 99t-59.5 38q-40 0 -73 -40.5t-44 -96.5zM341 110l-118 74 l800 1138l118 -74z" horiz-adv-x="1305" unicode="%"/><glyph d="M51 388q19 123 86 204.5t197 176.5q-44 94 -60 171t-3 157q28 177 138 278.5t270 101.5q132 0 206 -99.5t52 -237.5q-16 -101 -69 -179.5t-136 -137.5l-85 -62l167 -298l5 1q33 50 57 113t36 134h205q-24 -142 -69 -254.5t-119 -199.5l144 -257h-319l-45 81 q-80 -51 -157 -76.5t-161 -25.5q-178 0 -273.5 114.5t-66.5 294.5zM444 206q40 0 82 12t86 37l-189 341l-4 -3q-37 -49 -55.5 -94.5t-25.5 -92.5q-15 -90 16 -145t90 -55zM521 1100q-7 -41 3 -83t34 -91l57 40q53 36 75 73.5t30 82.5q7 51 -14 89t-64 38q-45 0 -78 -43 t-43 -106z" horiz-adv-x="1181" unicode="&amp;"/><glyph d="M375 1288l-110 -281h-121l41 268l46 285h188z" horiz-adv-x="298" unicode="'"/><glyph d="M133 591q64 401 231 666.5t343 348.5h6l26 -143q-114 -98 -217.5 -318t-156.5 -552l-5 -28q-55 -347 -22 -558t118 -313l-72 -141h-6q-147 82 -229 355t-20 659z" horiz-adv-x="619" unicode="("/><glyph d="M547 567q-63 -390 -237 -661t-353 -353h-6l-28 141q113 98 216.5 318.5t157.5 552.5l5 28q55 345 21 558t-117 314l74 141h6q149 -81 236.5 -362t28.5 -653z" horiz-adv-x="617" unicode=")"/><glyph d="M392 966l-230 92l86 173l221 -127l51 352h175l-87 -351l4 -4l258 122l17 -175l-273 -93l112 -269l-163 -107l-78 287l-6 1l-194 -279l-121 103z" horiz-adv-x="801" unicode="*"/><glyph d="M688 810h287l-51 -254h-287l-82 -410h-266l82 410h-289l51 254h289l79 396h266z" horiz-adv-x="959" unicode="+"/><glyph d="M269 2l-205 -311h-164l121 319l46 231h250z" horiz-adv-x="454" unicode=","/><glyph d="M618 511h-478l46 228h478z" horiz-adv-x="734" unicode="-"/><glyph d="M315 0h-278l52 258h278z" horiz-adv-x="535" unicode="."/><glyph d="M83 -125h-202l724 1581h204z" horiz-adv-x="625" unicode="/"/><glyph d="M926 571q-62 -310 -198.5 -451t-326.5 -141q-176 0 -263.5 153t-29.5 439l63 313q61 309 198 451t329 142q174 0 261 -154t30 -439zM712 909q37 187 20 262.5t-77 68.5l-6 1q-54 6 -105.5 -76.5t-85.5 -255.5l-72 -361q-39 -190 -21.5 -265.5t79.5 -67.5l6 -1 q53 -7 103.5 75.5t86.5 258.5z" horiz-adv-x="977" unicode="0"/><glyph d="M576 0h-282l232 1159l-255 -6l41 205l555 99z" horiz-adv-x="984" unicode="1"/><glyph d="M837 0h-825l31 193l458 503q92 112 136.5 194.5t56.5 151.5q15 97 -8 152t-85 55q-60 0 -106.5 -70t-63.5 -180h-274l-2 6q29 205 160.5 338.5t321.5 133.5q186 0 278 -117.5t61 -314.5q-23 -140 -98 -249t-248 -297l-213 -267l3 -5h453z" horiz-adv-x="984" unicode="2"/><glyph d="M383 783l11 70h138q66 0 109 54.5t58 150.5q14 88 -10.5 139.5t-87.5 51.5q-48 0 -92.5 -47.5t-56.5 -122.5h-271l-3 6q24 180 153 286t298 106q183 0 283 -109.5t69 -305.5q-17 -103 -79 -187t-155 -130q89 -44 127.5 -132t19.5 -207q-34 -207 -172.5 -317t-332.5 -110 q-162 0 -267.5 108.5t-70.5 307.5l3 5h275q-14 -87 16 -140.5t89 -53.5q64 0 114 56.5t65 147.5q18 121 -11 172t-105 51h-138z" horiz-adv-x="984" unicode="3"/><glyph d="M829 546h116l-45 -228h-117l-63 -318h-281l63 318h-453l20 178l661 960h281zM333 546h215l98 493l-5 3l-14 -19z" horiz-adv-x="984" unicode="4"/><glyph d="M140 644l199 812h684l-37 -233h-454l-84 -343q33 31 80 51.5t93 22.5q175 3 247.5 -125.5t35.5 -361.5q-35 -215 -161.5 -351.5t-325.5 -136.5q-162 0 -269 113t-75 306l283 15q-16 -102 11 -154.5t86 -52.5q65 0 107.5 72.5t61.5 186.5q21 133 -0.5 206t-94.5 73 q-50 0 -85 -32.5t-54 -84.5z" horiz-adv-x="984" unicode="5"/><glyph d="M740 1477q66 0 120.5 -15.5t107.5 -46.5l-81 -215q-47 23 -87.5 34.5t-95.5 11.5q-93 0 -166.5 -93t-99.5 -259l3 -5q43 41 103 64.5t131 23.5q151 0 220 -140.5t35 -354.5q-36 -226 -171 -364.5t-318 -138.5q-187 0 -286.5 157.5t-56.5 426.5l48 300q47 294 210 454 t384 160zM563 753q-52 0 -93.5 -19.5t-70.5 -55.5l-19 -118q-29 -178 -2.5 -266t97.5 -82l6 -1q52 -5 100.5 76.5t66.5 194.5q19 126 -4.5 198.5t-80.5 72.5z" horiz-adv-x="984" unicode="6"/><glyph d="M1032 1228q-229 -252 -323.5 -480.5t-183.5 -607.5l-35 -140h-282l35 140q79 328 206 599t313 489h-579l37 228h849z" horiz-adv-x="984" unicode="7"/><glyph d="M1005 1070q-24 -118 -87.5 -202t-156.5 -128q81 -51 118 -140t15 -202q-44 -217 -173.5 -318t-317.5 -101q-171 0 -267.5 110t-56.5 309q24 126 96 215.5t177 135.5q-73 48 -105 131.5t-10 189.5q41 207 164 307t301 100q162 0 251.5 -108.5t51.5 -298.5zM616 419 q20 104 -2.5 158.5t-80.5 54.5q-54 0 -101 -58.5t-66 -154.5q-22 -106 0 -159.5t82 -53.5q53 0 100.5 57.5t67.5 155.5zM718 1056q18 95 3.5 144t-64.5 49q-47 0 -84.5 -52t-54.5 -141q-20 -98 -5 -147.5t66 -49.5q47 0 83.5 53t55.5 144z" horiz-adv-x="984" unicode="8"/><glyph d="M397 206q76 0 142.5 83t90.5 229l7 47q-46 -54 -99.5 -81.5t-109.5 -27.5q-158 0 -232 136t-37 365q36 227 174 373.5t317 146.5q176 0 269.5 -156t50.5 -429l-57 -356q-43 -266 -196 -411.5t-356 -145.5q-57 0 -122 16.5t-115 45.5l64 212q50 -24 98.5 -35.5 t110.5 -11.5zM516 670q43 0 82.5 25t69.5 66l27 166q26 165 3.5 242.5t-82.5 71.5l-6 1q-52 5 -102 -82.5t-68 -202.5q-22 -136 -3.5 -211.5t79.5 -75.5z" horiz-adv-x="984" unicode="9"/><glyph d="M319 0h-278l52 258h278zM484 823h-278l52 258h278z" horiz-adv-x="535" unicode=":"/><glyph d="M473 823h-278l52 258h278zM311 2l-205 -311h-164l121 319l46 231h250z" horiz-adv-x="511" unicode=";"/><glyph d="M323 546v-6l414 -203l-54 -271l-632 365l16 81l30 149l778 364l-54 -270z" horiz-adv-x="866" unicode="&lt;"/><glyph d="M924 756h-739l46 228h739zM838 323h-739l45 229h739z" horiz-adv-x="987" unicode="="/><glyph d="M592 544v6l-421 206l54 269l639 -364l-17 -82h1l-30 -149l-785 -364l54 269z" horiz-adv-x="877" unicode="&gt;"/><glyph d="M257 413q28 136 79 201.5t175 159.5q63 55 106.5 121.5t61.5 152.5q19 98 -4.5 149t-87.5 51q-44 0 -91.5 -47.5t-64.5 -131.5h-273l-2 6q37 197 167.5 299.5t308.5 102.5q180 0 274 -117.5t56 -310.5q-27 -134 -106.5 -234.5t-189.5 -175.5q-58 -46 -84.5 -94.5 t-42.5 -131.5h-282zM453 0h-278l49 247h278z" horiz-adv-x="872" unicode="?"/><glyph d="M1488 516q-51 -219 -186 -378t-341 -159q-64 0 -105.5 46t-46.5 128q-54 -86 -115.5 -128.5t-130.5 -42.5q-114 0 -159.5 121t9.5 313q72 252 202.5 404t273.5 152q95 0 158.5 -27.5t123.5 -78.5l-4 -4h5l-157 -569q-24 -98 -18 -132.5t31 -26.5l6 -1q82 -6 163 106 t121 277q83 350 -3 546.5t-347 196.5q-236 0 -433.5 -214t-279.5 -567q-85 -352 7.5 -557.5t343.5 -205.5q67 0 150 20t143 49l4 -148q-66 -42 -158 -65.5t-176 -23.5q-316 0 -458 253.5t-44 677.5q100 428 352 682t584 254q305 0 442 -245.5t43 -652.5zM627 416 q-32 -127 -24.5 -194t55.5 -67q40 0 80.5 28.5t82.5 103.5l2 6l136 497q-15 5 -31.5 8t-33.5 3q-84 0 -149.5 -96.5t-117.5 -288.5z" horiz-adv-x="1549" unicode="@"/><glyph d="M706 309h-351l-136 -309h-284l679 1456h293l96 -1456h-284zM455 538h242l-19 491l-6 1z" horiz-adv-x="1095" unicode="A"/><glyph d="M22 0l291 1456h414q203 0 310.5 -102t69.5 -296q-23 -110 -81.5 -188.5t-153.5 -116.5q104 -28 136.5 -117.5t9.5 -210.5q-45 -223 -177.5 -324t-351.5 -101h-467zM433 642l-83 -415h184q77 0 130 50.5t73 148.5q22 111 -0.5 163.5t-100.5 52.5h-203zM473 841h141 q76 2 130.5 51.5t73.5 138.5q21 109 -12 153t-124 44h-131z" horiz-adv-x="1097" unicode="B"/><glyph d="M1032 495l2 -6q-60 -251 -188 -380.5t-342 -129.5q-206 0 -326.5 173t-68.5 432l58 290q57 289 203 446t356 157q213 0 325 -141.5t81 -385.5h-281q24 148 -10.5 223.5t-141.5 75.5q-82 0 -150 -103t-101 -270l-58 -292q-37 -179 -2 -278.5t135 -99.5q89 0 144 69.5 t92 219.5h273z" horiz-adv-x="1081" unicode="C"/><glyph d="M22 0l291 1456h391q204 0 329 -178t73 -437l-49 -245q-58 -288 -210.5 -442t-368.5 -154h-456zM550 1228l-200 -1001h157q100 0 166.5 97t101.5 272l50 247q34 177 -16 281t-166 104h-93z" horiz-adv-x="1107" unicode="D"/><glyph d="M893 639h-460l-83 -412h542l-45 -227h-825l291 1456h823l-45 -228h-541l-72 -362h460z" horiz-adv-x="971" unicode="E"/><glyph d="M890 605h-464l-121 -605h-283l291 1456h830l-45 -228h-548l-79 -396h464z" horiz-adv-x="979" unicode="F"/><glyph d="M988 216q-76 -94 -203 -165.5t-300 -71.5q-210 0 -325 139.5t-65 387.5l89 444q53 268 207.5 397.5t374.5 129.5q217 0 316.5 -121.5t61.5 -337.5l-3 -5h-266q22 123 -13.5 179.5t-132.5 56.5q-90 0 -162 -75t-101 -222l-89 -446q-33 -163 6.5 -231.5t146.5 -68.5 q73 0 117 24t75 67l53 261h-174l40 200h456z" horiz-adv-x="1133" unicode="G"/><glyph d="M1001 0h-281l120 603h-415l-120 -603h-283l291 1456h283l-125 -626h415l125 626h281z" horiz-adv-x="1193" unicode="H"/><glyph d="M316 0h-281l291 1456h281z" horiz-adv-x="523" unicode="I"/><glyph d="M799 1456h281l-202 -1012q-47 -229 -184 -347t-317 -118q-178 0 -273 114.5t-51 333.5h283q-25 -123 1.5 -172t84.5 -49q49 0 101 64t74 174z" horiz-adv-x="980" unicode="J"/><glyph d="M507 602h-83l-120 -602h-282l291 1456h282l-119 -594h87l325 594h370l-496 -722l217 -734h-324z" horiz-adv-x="1053" unicode="K"/><glyph d="M350 227h502l-45 -227h-785l291 1456h283z" horiz-adv-x="927" unicode="L"/><glyph d="M674 1456l24 -1067l6 -1l453 1068h368l-291 -1456h-281l85 423l129 533l-6 2l-444 -958h-187l-59 947l-6 1l-82 -525l-85 -423h-281l291 1456h366z" horiz-adv-x="1421" unicode="M"/><glyph d="M999 0h-281l-226 907h-6l-181 -907h-283l291 1456h283l226 -905h6l181 905h281z" horiz-adv-x="1193" unicode="N"/><glyph d="M1114 596q-58 -289 -218 -453t-384 -164q-209 0 -330 179.5t-68 441.5l52 259q58 290 212.5 454t376.5 164q211 0 337 -181t74 -441zM885 857q36 177 -14.5 284t-160.5 107q-94 0 -161.5 -106t-102.5 -281l-52 -261q-36 -180 9 -286.5t154 -106.5q95 0 168 107.5 t108 281.5z" horiz-adv-x="1158" unicode="O"/><glyph d="M409 522l-104 -522h-283l291 1456h488q194 0 296 -131.5t62 -335.5q-45 -223 -189.5 -345t-355.5 -122h-205zM455 750h205q77 0 137 68.5t80 168.5q22 111 -7.5 176t-113.5 65h-205z" horiz-adv-x="1119" unicode="P"/><glyph d="M1120 596q-30 -144 -85 -258.5t-132 -193.5l152 -225l-204 -150l-159 238q-42 -13 -85.5 -20.5t-88.5 -7.5q-209 0 -330 179.5t-68 441.5l52 259q58 290 212.5 454t376.5 164q211 0 337 -181t74 -441zM891 857q36 177 -14.5 284t-160.5 107q-94 0 -161.5 -106 t-102.5 -281l-52 -261q-36 -180 9 -286.5t154 -106.5q95 0 168 107.5t108 281.5z" horiz-adv-x="1196" unicode="Q"/><glyph d="M421 579l-116 -579h-282l291 1455h457q192 0 293 -115.5t62 -313.5q-25 -123 -89.5 -202.5t-169.5 -127.5q95 -40 127.5 -129.5t7.5 -214.5l-20 -103q-13 -64 -13 -130.5t27 -97.5l-4 -21h-292q-27 31 -21.5 100t21.5 151l20 99q23 116 -5.5 172.5t-105.5 56.5h-188z M466 806h174q72 0 126.5 54t74.5 150q21 106 -7.5 162t-107.5 56h-175z" horiz-adv-x="1118" unicode="R"/><glyph d="M708 353q19 99 -16.5 148.5t-144.5 108.5q-201 82 -292.5 195.5t-55.5 294.5q36 180 171 278.5t321 98.5q198 0 306 -120t63 -326l-2 -5h-275q20 102 -18 162.5t-119 60.5q-54 0 -103 -43t-61 -104q-19 -94 21 -140t176 -113q185 -77 267 -191t44 -303 q-38 -187 -171 -281.5t-321 -94.5q-194 0 -324.5 108.5t-80.5 336.5l2 5h275q-26 -127 28.5 -175t144.5 -48q52 0 102 42.5t63 104.5z" horiz-adv-x="1048" unicode="S"/><glyph d="M1086 1228h-308l-245 -1228h-281l245 1228h-304l45 228h893z" horiz-adv-x="955" unicode="T"/><glyph d="M1246 1456l-198 -991q-50 -248 -201.5 -367t-369.5 -119q-200 0 -311.5 128.5t-65.5 357.5l198 991h281l-198 -991q-28 -141 9 -200t132 -59q89 0 153.5 61t91.5 198l198 991h281z" horiz-adv-x="1131" unicode="U"/><glyph d="M521 372l2 -49l5 -1l17 47l398 1087h296l-618 -1456h-293l-152 1456h296z" horiz-adv-x="1090" unicode="V"/><glyph d="M1056 556h6l287 900h273l-498 -1456h-263l-50 863h-6l-325 -863h-261l-32 1456h273v-898l6 -1l336 899h202z" horiz-adv-x="1484" unicode="W"/><glyph d="M620 948l6 -1l261 509h326l-449 -722l239 -734h-340l-101 519l-6 1l-268 -520h-328l458 734l-217 722h324z" horiz-adv-x="1088" unicode="X"/><glyph d="M624 849l5 -1l344 608h307l-583 -939l-103 -517h-281l108 539l-204 917h308z" horiz-adv-x="1085" unicode="Y"/><glyph d="M357 227h514l-45 -227h-814l-7 143l670 1086h-439l45 227h777l-27 -138z" horiz-adv-x="966" unicode="Z"/><glyph d="M657 1478h-102l-256 -1601h102l-34 -216h-387l325 2034h387z" horiz-adv-x="522" unicode="["/><glyph d="M209 1456h277l175 -1581h-280z" horiz-adv-x="737" unicode="\"/><glyph d="M227 1695h388l-325 -2034h-388l34 216h105l256 1601h-105z" horiz-adv-x="522" unicode="]"/><glyph d="M317 729h-217l386 727h204l96 -727h-216l-41 422v-1l-6 1z" horiz-adv-x="761" unicode="^"/><glyph d="M625 -220h-741l44 220h741z" horiz-adv-x="769" unicode="_"/><glyph d="M661 1211h-226l-200 266h302z" horiz-adv-x="618" unicode="`"/><glyph d="M504 0q-6 27 -8.5 58t-2.5 64q-50 -65 -110.5 -104t-131.5 -39q-120 0 -183.5 89.5t-34.5 233.5q34 170 146 252.5t309 82.5h96l18 88q16 84 0 124t-68 40q-39 0 -68 -35t-41 -98l-273 1l-2 6q26 151 148 245t297 94q152 0 238.5 -100t51.5 -279l-88 -438 q-17 -84 -19.5 -150t6.5 -135h-280zM376 193q36 0 72.5 22t63.5 58l40 201h-96q-53 0 -89 -45.5t-49 -113.5q-12 -58 4 -90t54 -32z" horiz-adv-x="911" unicode="a"/><glyph d="M919 495q-53 -262 -155 -389t-273 -127q-67 0 -120 32.5t-85 93.5l-37 -105h-244l312 1560h282l-110 -546q44 42 92.5 65t100.5 23q159 0 225 -167t16 -419zM642 516q35 174 25.5 266t-87.5 92q-38 0 -74 -30t-67 -82l-101 -504q13 -27 39.5 -39t68.5 -12 q75 0 118.5 71.5t73.5 216.5z" unicode="b"/><glyph d="M433 206q51 0 84.5 43t46.5 124h255l2 -6q-26 -177 -144 -282.5t-280 -105.5q-193 0 -283.5 138.5t-55.5 352.5l22 139q36 224 164.5 358.5t330.5 134.5q162 0 246.5 -114.5t54.5 -308.5h-263q14 93 -2.5 144t-71.5 51q-74 0 -116 -73t-61 -192l-22 -139 q-21 -129 -4 -196.5t97 -67.5z" horiz-adv-x="878" unicode="c"/><glyph d="M80 555q54 272 162 409.5t275 137.5q56 0 103 -27t81 -77l113 562h282l-312 -1560h-245l4 97q-50 -57 -106 -87.5t-115 -30.5q-152 0 -223 159.5t-23 395.5zM358 534q-32 -157 -19 -242t86 -85q36 0 71.5 26.5t66.5 73.5l100 498q-13 34 -38.5 51.5t-62.5 17.5 q-68 0 -119.5 -86t-80.5 -233z" unicode="d"/><glyph d="M423 -21q-189 0 -286 135t-64 337l24 152q36 227 163 363t318 136q176 0 258.5 -128.5t48.5 -344.5l-28 -174h-504v-4q-18 -111 15 -178t125 -67q72 0 124.5 18.5t123.5 59.5l42 -181q-62 -54 -157 -89t-203 -35zM542 874q-58 0 -97 -62.5t-61 -166.5h226l7 40 q15 94 -1.5 141.5t-73.5 47.5z" horiz-adv-x="907" unicode="e"/><glyph d="M66 0l175 876h-126l41 206h126l24 120q39 194 146.5 286.5t276.5 92.5q30 0 62 -5.5t70 -15.5l-67 -218q-17 4 -34.5 7t-41.5 3q-46 0 -81 -39.5t-49 -110.5l-24 -120h162l-41 -206h-162l-175 -876h-282z" horiz-adv-x="631" unicode="f"/><glyph d="M80 555q54 272 162.5 409.5t275.5 137.5q64 0 116 -33t85 -93l37 106h245l-209 -1047q-46 -229 -187.5 -350.5t-352.5 -121.5q-63 0 -137 23t-130 60l93 219q49 -32 101 -48t118 -16q77 0 134 64t79 171l5 26q-44 -40 -92 -61.5t-99 -21.5q-153 0 -224.5 159.5 t-23.5 395.5zM358 534q-32 -156 -18.5 -241.5t86.5 -85.5q38 0 72.5 23t63.5 66l104 521q-13 29 -39 43t-65 14q-67 0 -119 -86.5t-81 -232.5z" unicode="g"/><glyph d="M473 973l5 -3q49 63 110 97.5t127 34.5q128 0 187.5 -116.5t13.5 -351.5l-127 -634h-283l127 636q29 143 11 190.5t-81 47.5q-33 0 -64.5 -17.5t-58.5 -48.5l-161 -808h-282l312 1560h282z" unicode="h"/><glyph d="M299 0h-281l216 1082h281zM568 1343h-281l43 217h281z" horiz-adv-x="488" unicode="i"/><glyph d="M521 1082l-223 -1115q-41 -206 -145.5 -305t-262.5 -99q-31 0 -60 4.5t-61 13.5l57 223q20 -6 35.5 -9t37.5 -3q38 0 69.5 44.5t47.5 130.5l223 1115h282zM568 1343h-281l43 217h281z" horiz-adv-x="479" unicode="j"/><glyph d="M421 450h-44l-90 -450h-282l312 1560h282l-177 -886h42l244 408h324l-360 -484l190 -598h-322z" horiz-adv-x="934" unicode="k"/><glyph d="M299 0h-281l312 1560h281z" horiz-adv-x="488" unicode="l"/><glyph d="M470 955q55 72 123.5 109.5t149.5 37.5q70 0 119 -42.5t65 -127.5q56 82 127.5 126t157.5 44q118 0 173.5 -112.5t11.5 -335.5l-131 -654h-283l131 654q26 134 12 177t-67 43q-34 0 -67.5 -24t-62.5 -67q-2 -18 -4.5 -36.5t-6.5 -38.5l-142 -708h-281l131 654 q26 133 11.5 176.5t-67.5 43.5q-31 0 -63 -20t-61 -56l-159 -798h-280l216 1082h263z" horiz-adv-x="1444" unicode="m"/><glyph d="M463 944q57 76 127 117t145 41q120 0 176.5 -106t13.5 -325l-134 -671h-283l134 671q24 119 5 161t-81 42q-32 0 -64 -20t-61 -55l-159 -799h-282l216 1082h263z" unicode="n"/><glyph d="M87 607q36 226 166.5 360.5t332.5 134.5q191 0 283.5 -140t58.5 -355l-21 -134q-37 -228 -168 -361t-331 -133q-193 0 -285.5 138.5t-56.5 355.5zM346 473q-21 -130 -1.5 -198.5t99.5 -68.5q73 0 117 72t64 195l21 134q20 127 0.5 197t-96.5 70q-74 0 -119.5 -73.5 t-63.5 -193.5z" unicode="o"/><glyph d="M919 494q-52 -258 -157.5 -386.5t-270.5 -128.5q-59 0 -108 23.5t-82 69.5l-97 -488h-282l299 1498h262l-9 -82q46 49 98 75.5t109 26.5q153 0 222 -169t20 -418zM641 515q33 166 21 262.5t-83 96.5q-38 0 -73 -28t-65 -77l-104 -519q13 -24 39 -34t69 -10q68 0 115.5 75 t76.5 213z" unicode="p"/><glyph d="M80 555q54 272 162 409.5t275 137.5q63 0 114 -34t83 -94l40 108h245l-299 -1498h-283l96 483q-44 -43 -92 -65.5t-99 -22.5q-152 0 -223 159.5t-23 395.5zM358 534q-32 -157 -19 -242.5t86 -85.5q37 0 71 23t63 65l104 521q-13 29 -38.5 44t-62.5 15q-68 0 -119.5 -86 t-80.5 -233z" unicode="q"/><glyph d="M662 823l-104 3q-38 0 -69 -22.5t-54 -62.5l-148 -741h-282l216 1082h263l-16 -132l5 -3q38 74 89 114.5t109 40.5q17 0 37.5 -3.5t35.5 -8.5z" horiz-adv-x="638" unicode="r"/><glyph d="M510 283q8 48 -19.5 80t-115.5 82q-146 61 -212 138t-46 200q22 137 136 228t282 91q166 0 256.5 -97t63.5 -244l-3 -6h-272q10 70 -8 109t-70 39q-38 0 -73 -31.5t-41 -74.5q-9 -49 15.5 -77.5t116.5 -80.5q154 -58 219 -137.5t45 -208.5q-24 -143 -141.5 -228.5 t-291.5 -85.5q-173 0 -263 110t-65 246l2 5h259q-12 -87 15.5 -124.5t89.5 -37.5q48 0 80.5 28.5t40.5 76.5z" horiz-adv-x="857" unicode="s"/><glyph d="M608 1351l-54 -269h140l-41 -206h-140l-108 -543q-15 -71 -3 -97t43 -26q23 0 41 2.5t40 8.5l-22 -216q-47 -14 -87 -20t-91 -6q-125 0 -182.5 86t-21.5 267l109 544h-120l41 206h120l54 269h282z" horiz-adv-x="632" unicode="t"/><glyph d="M542 0l7 114q-54 -67 -120 -101t-141 -34q-129 0 -189.5 111.5t-14.5 337.5l130 654h282l-131 -656q-25 -122 -10.5 -170.5t65.5 -48.5q40 0 76 18t66 52l161 805h283l-216 -1082h-248z" unicode="u"/><glyph d="M422 408l-1 -70l6 -1l23 71l220 674h295l-457 -1082h-276l-111 1082h295z" horiz-adv-x="880" unicode="v"/><glyph d="M856 498l6 -1l207 585h261l-426 -1082h-234l-26 562l-6 1l-251 -563h-235l5 1082h262l-26 -585l6 -2l254 587h182z" horiz-adv-x="1228" unicode="w"/><glyph d="M485 743l6 -1l155 340h317l-338 -535l172 -547h-316l-49 349l-5 1l-161 -350h-317l347 547l-168 535h316z" horiz-adv-x="880" unicode="x"/><glyph d="M431 467l6 -2l264 617h301l-595 -1245q-62 -116 -143.5 -195t-217.5 -79q-32 0 -59 6t-68 18l76 212q13 -3 21 -4.5t16 -1.5q54 0 92 33.5t61 84.5l38 78l-84 1093h303z" horiz-adv-x="880" unicode="y"/><glyph d="M344 227h398l-45 -227h-715l34 169l526 685h-379l45 228h700l-33 -165z" horiz-adv-x="854" unicode="z"/><glyph d="M340 -361q-151 55 -200 175t-21 290l33 206q16 102 -6.5 155.5t-87.5 53.5l24 151h1l8 51q62 0 103 55.5t57 153.5l33 207q28 177 113.5 292.5t252.5 166.5l6 -1l26 -150q-61 -31 -95 -109t-53 -199l-33 -207q-18 -109 -70.5 -189.5t-140.5 -123.5q72 -47 100 -127 t12 -180l-33 -206q-21 -126 -12 -201t62 -106z" horiz-adv-x="570" unicode="{"/><glyph d="M199 -270h-161l276 1726h161z" horiz-adv-x="461" unicode="|"/><glyph d="M-56 -210q62 31 96 109t54 198l33 206q17 109 69.5 189t142.5 123q-73 45 -101.5 125t-11.5 183l33 207q19 124 9.5 200t-61.5 108l78 157q150 -55 199 -175t22 -290l-33 -207q-17 -103 6 -156t90 -53l-9 -54l-15 -94l-9 -54q-64 0 -105.5 -56t-56.5 -153l-33 -206 q-29 -176 -114.5 -292t-251.5 -166h-6z" horiz-adv-x="570" unicode="}"/><glyph d="M1037 761q-28 -170 -118 -276.5t-203 -106.5q-65 0 -119 32.5t-103 101.5q-29 45 -52 64.5t-56 19.5t-66.5 -52t-44.5 -126l-186 26q27 171 114.5 276t203.5 105q63 0 120.5 -34t103.5 -98q28 -46 51.5 -65.5t54.5 -19.5q32 0 66 53t46 128z" horiz-adv-x="1075" unicode="~"/><glyph d="M246 -374h-283l190 949h283zM482 821h-276l52 261h276z" horiz-adv-x="528" unicode="¡"/><glyph d="M469 206q51 0 84.5 43t46.5 124h256l2 -5q-23 -157 -119 -259t-233 -124l-46 -230h-182l48 238q-140 36 -201 166t-31 311l22 139q33 206 144 336.5t287 152.5l44 220h182l-47 -234q109 -38 159.5 -144t26.5 -261h-263q14 93 -2.5 144t-71.5 51q-74 0 -116 -73t-61 -192 l-22 -139q-21 -129 -4 -196.5t97 -67.5z" horiz-adv-x="997" unicode="¢"/><glyph d="M533 591l-13 -82q-17 -83 -58.5 -154.5t-104.5 -127.5h566l-45 -227h-818l45 227h7q35 12 68 94.5t51 171.5l17 98h-120l44 225h113l35 209q45 225 166.5 338.5t295.5 113.5q170 0 255.5 -115.5t48.5 -300.5h-282q20 103 -1.5 145t-64.5 36l-6 1q-36 4 -72.5 -54.5 t-56.5 -163.5l-34 -209h260l-44 -225h-252z" horiz-adv-x="1019" unicode="£"/><glyph d="M845 97q-76 -58 -159.5 -87.5t-168.5 -29.5q-78 0 -147.5 32.5t-121.5 93.5l-135 -132l-102 136l150 145q-29 76 -35 166t14 187q21 108 63 202.5t102 171.5l-91 145l157 137l85 -135q72 51 151 78t161 27q74 0 141 -30.5t120 -86.5l151 148l103 -138l-162 -158 q30 -78 36.5 -170t-12.5 -191q-21 -104 -60 -195t-93 -164l88 -139l-158 -137zM310 608q-41 -201 30 -324.5t213 -123.5q129 0 256.5 131.5t165.5 316.5q39 199 -31.5 322.5t-211.5 123.5q-130 0 -258 -131t-164 -315z" horiz-adv-x="1207" unicode="¤"/><glyph d="M618 913l6 -1l295 544h307l-445 -719h175l-40 -200h-235l-23 -111h235l-38 -200h-236l-45 -226h-281l45 226h-252l38 200h253l23 111h-253l40 200h202l-158 719h307z" horiz-adv-x="1044" unicode="¥"/><glyph d="M-33 -270l158 791h249l-158 -791h-249zM410 698h-249l151 758h249z" horiz-adv-x="461" unicode="¦"/><glyph d="M991 482q-20 -95 -66.5 -162.5t-118.5 -108.5q48 -51 62.5 -121.5t-4.5 -168.5q-38 -189 -171 -283t-334 -94q-182 0 -295.5 100.5t-66.5 316.5l2 5h275q-23 -113 15 -153.5t115 -40.5q66 0 115 41t63 107q13 70 -22 107.5t-151 87.5q-185 64 -261 156t-42 262 q18 93 65.5 161t121.5 111q-49 51 -64.5 121.5t4.5 169.5q36 184 172 282.5t338 98.5q189 0 287 -113.5t56 -309.5l-3 -5h-275q18 93 -9.5 146.5t-100.5 53.5q-71 0 -119.5 -43t-60.5 -108q-17 -79 15 -114.5t153 -83.5q187 -63 263 -155.5t42 -262.5zM544 666 q-25 8 -44 15.5t-36 15.5q-27 -23 -44.5 -57t-25.5 -76q-17 -86 12 -123.5t146 -91.5q42 -16 52 -19.5t27 -9.5q28 23 48.5 57t29.5 76q14 76 -19.5 118t-145.5 95z" horiz-adv-x="1076" unicode="§"/><glyph d="M948 1258h-245l32 198h245zM518 1258h-245l32 198h245z" horiz-adv-x="974" unicode="¨"/><glyph d="M972 596l2 -6q-22 -156 -108 -232t-223 -76q-132 0 -197.5 107t-37.5 280l19 119q28 179 124 283t235 104q130 0 196 -81t42 -233h-142q16 100 -13.5 142.5t-103.5 43.5q-73 -1 -126 -72.5t-71 -185.5l-19 -120q-20 -122 9 -190.5t106 -68.5q70 0 114 44t60 142h134z M238 729q-45 -277 68.5 -454t320.5 -176q196 -1 371.5 183t218.5 447q43 275 -70 451t-319 176q-197 0 -373 -183t-217 -444zM129 729q52 327 258.5 537t459.5 210q239 0 384 -217.5t96 -529.5q-53 -328 -260.5 -539t-458.5 -211q-240 0 -385 218.5t-94 531.5z" horiz-adv-x="1376" unicode="©"/><glyph d="M544 705q-2 23 -1.5 47t3.5 48q-35 -48 -84.5 -78.5t-110.5 -30.5q-89 0 -132.5 62.5t-22.5 165.5q22 117 102.5 173.5t217.5 56.5h96l11 53q14 70 0 103t-54 33q-44 0 -76.5 -28t-42.5 -80l-145 13l-2 6q17 104 97.5 166t196.5 62q103 0 157 -72.5t28 -203.5l-63 -315 q-11 -54 -15 -96.5t-1 -84.5h-159zM419 830q32 0 79 30t69 65l23 112h-97q-51 0 -90 -35t-48 -77q-10 -48 5.5 -71.5t58.5 -23.5z" horiz-adv-x="759" unicode="ª"/><glyph d="M284 516l104 -397h-173l-144 388l1 6l3 13l299 389h173zM624 516l104 -397h-173l-144 388l1 6l3 13l299 389h173z" horiz-adv-x="878" unicode="«"/><glyph d="M836 638h-1l-52 -263h-180l52 263h-497l32 163h678z" horiz-adv-x="938" unicode="¬"/><glyph d="M618 511h-478l46 228h478z" horiz-adv-x="734" unicode="­"/><glyph d="M129 729q52 327 259 537t460 210q239 0 384 -218t96 -529q-53 -328 -260.5 -539t-458.5 -211q-240 0 -385.5 218.5t-94.5 531.5zM239 729q-45 -277 68.5 -454t320.5 -176q195 -1 370.5 183t218.5 447q43 275 -69.5 451t-318.5 176q-197 0 -373 -183t-217 -444zM599 655 l-54 -339h-138l136 850h242q124 0 189.5 -68.5t46.5 -192.5q-10 -61 -42 -104.5t-85 -72.5q45 -30 60 -85t4 -128l-9 -56q-7 -43 -9 -74.5t2 -52.5l-2 -16h-140q-4 22 0.5 63.5t11.5 80.5l8 54q12 75 -9.5 108t-83.5 33h-128zM619 783h104q60 0 106 31.5t56 89.5 q11 77 -15.5 105.5t-105.5 28.5h-104z" horiz-adv-x="1376" unicode="®"/><glyph d="M914 1297h-629l25 160h629z" horiz-adv-x="927" unicode="¯"/><glyph d="M272 1203q23 119 107 196.5t183 77.5q89 0 145 -82t34 -192q-25 -121 -107.5 -196t-180.5 -75q-91 0 -147.5 80t-33.5 191zM408 1203q-12 -59 10 -94t64 -35q38 0 75 37t48 92q11 59 -9.5 95.5t-61.5 36.5q-39 0 -77.5 -39t-48.5 -93z" horiz-adv-x="704" unicode="°"/><glyph d="M683 956h262l-38 -235h-262l-61 -382h-248l61 382h-263l38 235h263l58 361h248zM705 7h-672l46 230h672z" horiz-adv-x="959" unicode="±"/><glyph d="M671 667h-517l30 152l300 254q55 49 73 82.5t27 77.5q8 43 -1.5 68t-42.5 25t-58 -31.5t-34 -79.5h-187l-2 6q18 114 104.5 186t212.5 72q113 0 169.5 -66t34.5 -181q-18 -88 -74 -149t-184 -163l-91 -95l3 -6h267z" horiz-adv-x="726" unicode="²"/><glyph d="M398 1136h87q41 0 67.5 26t36.5 72q8 41 -4.5 66t-49.5 25q-34 0 -57 -23t-29 -55h-186l-1 6q17 109 100 167t198 58q118 0 184 -60.5t45 -168.5q-12 -60 -50 -105t-94 -69q51 -25 73.5 -72.5t10.5 -112.5q-25 -120 -108.5 -177.5t-213.5 -57.5q-118 0 -187.5 64 t-41.5 176l3 6h190q-10 -48 5.5 -71t58.5 -23q33 0 62 25t38 70q11 54 -8.5 80.5t-66.5 26.5h-87l17 89z" horiz-adv-x="717" unicode="³"/><glyph d="M434 1478h295l2 -6l-280 -260h-226z" horiz-adv-x="673" unicode="´"/><glyph d="M532 1082l-124 -623l-2 -8q-30 -151 -11 -196.5t85 -45.5q44 0 82.5 24.5t69.5 71.5l155 777h282l-216 -1082h-265l5 40q-38 -31 -81 -46t-89 -15q-31 0 -57 8.5t-47 25.5l-86 -429h-283l299 1498h283z" horiz-adv-x="1078" unicode="µ"/><glyph d="M428 0l104 520h-60q-175 0 -259 132t-43 336q43 220 170.5 344t318.5 124h344l-291 -1456h-284z" horiz-adv-x="923" unicode="¶"/><glyph d="M438 560h-273l52 262h273z" horiz-adv-x="557" unicode="·"/><glyph d="M236 7l-20 -59q45 -11 69.5 -52.5t9.5 -120.5q-24 -115 -110.5 -175t-226.5 -58l-5 4l26 155q28 0 49 21t30 63q8 45 -11 60.5t-76 20.5l54 141h211z" horiz-adv-x="483" unicode="¸"/><glyph d="M446 665h-198l127 634l-96 -1l31 156l298 23z" horiz-adv-x="504" unicode="¹"/><glyph d="M246 1142q32 158 126 246.5t227 88.5q121 0 184 -95t34 -240l-23 -117q-32 -158 -125.5 -246t-225.5 -88q-123 0 -186.5 94t-33.5 240zM382 1025q-19 -94 3 -144.5t86 -50.5q56 0 101.5 54.5t62.5 140.5l23 117q18 90 -3.5 142t-83.5 54q-58 -2 -104 -57.5t-62 -138.5z" horiz-adv-x="784" unicode="º"/><glyph d="M338 949l143 -389l-2 -6h1l-3 -13l-299 -389h-173l263 398l-103 399h173zM689 949l143 -389l-2 -6h1l-3 -13l-299 -389h-173l263 398l-103 399h173z" horiz-adv-x="879" unicode="»"/><glyph d="M441 664h-198l127 634l-96 -1l31 156l298 23zM263 118l-118 74l800 1138l118 -74zM1078 294h68l-31 -154h-68l-28 -140h-198l28 140h-325l12 124l444 534l1 3h198zM739 294h141l50 249l-6 3l-7 -9z" horiz-adv-x="1209" unicode="¼"/><glyph d="M255 118l-118 74l800 1138l118 -74zM424 664h-198l127 634l-96 -1l31 156l298 23zM1100 0h-517l30 152l300 254q55 49 73 82.5t27 77.5q8 43 -1.5 68t-42.5 25t-58 -31.5t-34 -79.5h-187l-2 6q18 114 104.5 186t212.5 72q113 0 169.5 -66t34.5 -181q-18 -88 -74 -149 t-184 -163l-91 -95l3 -6h267z" horiz-adv-x="1269" unicode="½"/><glyph d="M439 118l-118 74l800 1138l118 -74zM1223 294h68l-31 -154h-68l-28 -140h-198l28 140h-325l12 124l444 534l1 3h198zM884 294h141l50 249l-6 3l-7 -9zM381 1137h87q41 0 67.5 26t36.5 72q8 41 -4.5 66t-49.5 25q-34 0 -57 -23t-29 -55h-186l-1 6q17 109 100 167t198 58 q118 0 184 -60.5t45 -168.5q-12 -60 -50 -105t-94 -69q51 -25 73.5 -72.5t10.5 -112.5q-25 -120 -108.5 -177.5t-213.5 -57.5q-118 0 -187.5 64t-41.5 176l3 6h190q-10 -48 5.5 -71t58.5 -23q33 0 62 25t38 70q11 54 -8.5 80.5t-66.5 26.5h-87l17 89z" horiz-adv-x="1396" unicode="¾"/><glyph d="M690 668q-30 -137 -81 -202.5t-175 -158.5q-64 -56 -107.5 -122.5t-59.5 -151.5q-20 -97 3 -147.5t89 -50.5q44 0 91 46.5t65 130.5h274l2 -6q-39 -196 -169.5 -298t-308.5 -102q-181 0 -273.5 117t-54.5 309q26 133 105 233.5t189 176.5q58 44 84.5 92.5t44.5 133.5h282 zM492 1082h279l-49 -248h-279z" horiz-adv-x="883" unicode="¿"/><glyph d="M706 309h-351l-136 -309h-284l679 1456h293l96 -1456h-284zM455 538h242l-19 491l-6 1zM926 1559h-226l-200 266h302z" horiz-adv-x="1095" unicode="À"/><glyph d="M706 309h-351l-136 -309h-284l679 1456h293l96 -1456h-284zM455 538h242l-19 491l-6 1zM851 1826h295l2 -6l-280 -260h-226z" horiz-adv-x="1095" unicode="Á"/><glyph d="M706 309h-351l-136 -309h-284l679 1456h293l96 -1456h-284zM455 538h242l-19 491l-6 1zM1117 1613l-5 -22h-219l-80 134l-132 -134h-214l5 25l290 237h155z" horiz-adv-x="1095" unicode="Â"/><glyph d="M706 309h-351l-136 -309h-284l679 1456h293l96 -1456h-284zM455 538h242l-19 491l-6 1zM1146 1854q-17 -99 -75.5 -163.5t-135.5 -64.5q-53 0 -121 44t-110 44q-24 0 -47.5 -33t-30.5 -79l-140 43q15 96 74.5 162.5t135.5 66.5q40 0 114.5 -44t117.5 -44q24 0 48 33 t32 80z" horiz-adv-x="1095" unicode="Ã"/><glyph d="M706 309h-351l-136 -309h-284l679 1456h293l96 -1456h-284zM455 538h242l-19 491l-6 1zM1128 1606h-245l32 198h245zM698 1606h-245l32 198h245z" horiz-adv-x="1095" unicode="Ä"/><glyph d="M706 309h-351l-136 -309h-284l679 1456h293l96 -1456h-284zM455 538h242l-19 491l-6 1zM631 1739q16 85 80.5 137.5t145.5 52.5q72 0 117 -55.5t30 -134.5q-18 -87 -80 -136.5t-142 -49.5q-75 0 -121.5 53.5t-29.5 132.5zM737 1739q-9 -45 8.5 -70t54.5 -25q34 0 62 26.5 t37 68.5q8 46 -8 71.5t-53 25.5q-34 0 -63.5 -27.5t-37.5 -69.5z" horiz-adv-x="1095" unicode="Å"/><glyph d="M1440 0h-744l56 339h-301l-196 -339h-328l895 1456h860l-46 -231h-454l-60 -363h375l-46 -230h-368l-67 -402h470zM792 578l79 474l-5 2l-276 -476h202z" horiz-adv-x="1593" unicode="Æ"/><glyph d="M1032 495l2 -6q-60 -251 -188 -380.5t-342 -129.5q-206 0 -326.5 173t-68.5 432l58 290q57 289 203 446t356 157q213 0 325 -141.5t81 -385.5h-281q24 148 -10.5 223.5t-141.5 75.5q-82 0 -150 -103t-101 -270l-58 -292q-37 -179 -2 -278.5t135 -99.5q89 0 144 69.5 t92 219.5h273zM547 7l-20 -59q45 -11 69.5 -52.5t9.5 -120.5q-24 -115 -110.5 -175t-226.5 -58l-5 4l26 155q28 0 49 21t30 63q8 45 -11 60.5t-76 20.5l54 141h211z" horiz-adv-x="1045" unicode="Ç"/><glyph d="M893 639h-460l-83 -412h542l-45 -227h-825l291 1456h823l-45 -228h-541l-72 -362h460zM865 1559h-226l-200 266h302z" horiz-adv-x="971" unicode="È"/><glyph d="M893 639h-460l-83 -412h542l-45 -227h-825l291 1456h823l-45 -228h-541l-72 -362h460zM790 1826h295l2 -6l-280 -260h-226z" horiz-adv-x="971" unicode="É"/><glyph d="M893 639h-460l-83 -412h542l-45 -227h-825l291 1456h823l-45 -228h-541l-72 -362h460zM1056 1613l-5 -22h-219l-80 134l-132 -134h-214l5 25l290 237h155z" horiz-adv-x="971" unicode="Ê"/><glyph d="M893 639h-460l-83 -412h542l-45 -227h-825l291 1456h823l-45 -228h-541l-72 -362h460zM1067 1606h-245l32 198h245zM637 1606h-245l32 198h245z" horiz-adv-x="971" unicode="Ë"/><glyph d="M316 0h-281l291 1456h281zM635 1559h-226l-200 266h302z" horiz-adv-x="523" unicode="Ì"/><glyph d="M316 0h-281l291 1456h281zM558 1826h295l2 -6l-280 -260h-226z" horiz-adv-x="523" unicode="Í"/><glyph d="M316 0h-281l291 1456h281zM826 1613l-5 -22h-219l-80 134l-132 -134h-214l5 25l290 237h155z" horiz-adv-x="523" unicode="Î"/><glyph d="M316 0h-281l291 1456h281zM837 1606h-245l32 198h245zM407 1606h-245l32 198h245z" horiz-adv-x="523" unicode="Ï"/><glyph d="M52 0l131 655h-103l35 175h103l125 626h391q204 0 329 -178t73 -437l-49 -245q-58 -288 -210.5 -442t-368.5 -154h-456zM637 655h-171l-86 -428h157q100 0 166.5 97t101.5 272l50 247q34 177 -16 281t-166 104h-93l-79 -398h171z" horiz-adv-x="1137" unicode="Ð"/><glyph d="M999 0h-281l-226 907h-6l-181 -907h-283l291 1456h283l226 -905h6l181 905h281zM1187 1854q-17 -99 -75.5 -163.5t-135.5 -64.5q-53 0 -121 44t-110 44q-24 0 -47.5 -33t-30.5 -79l-140 43q15 96 74.5 162.5t135.5 66.5q40 0 114.5 -44t117.5 -44q24 0 48 33t32 80z" horiz-adv-x="1193" unicode="Ñ"/><glyph d="M1114 596q-58 -289 -218 -453t-384 -164q-209 0 -330 179.5t-68 441.5l52 259q58 290 212.5 454t376.5 164q211 0 337 -181t74 -441zM885 857q36 177 -14.5 284t-160.5 107q-94 0 -161.5 -106t-102.5 -281l-52 -261q-36 -180 9 -286.5t154 -106.5q95 0 168 107.5 t108 281.5zM938 1580h-226l-200 266h302z" horiz-adv-x="1121" unicode="Ò"/><glyph d="M1114 596q-58 -289 -218 -453t-384 -164q-209 0 -330 179.5t-68 441.5l52 259q58 290 212.5 454t376.5 164q211 0 337 -181t74 -441zM885 857q36 177 -14.5 284t-160.5 107q-94 0 -161.5 -106t-102.5 -281l-52 -261q-36 -180 9 -286.5t154 -106.5q95 0 168 107.5 t108 281.5zM863 1847h295l2 -6l-280 -260h-226z" horiz-adv-x="1121" unicode="Ó"/><glyph d="M1114 596q-58 -289 -218 -453t-384 -164q-209 0 -330 179.5t-68 441.5l52 259q58 290 212.5 454t376.5 164q211 0 337 -181t74 -441zM885 857q36 177 -14.5 284t-160.5 107q-94 0 -161.5 -106t-102.5 -281l-52 -261q-36 -180 9 -286.5t154 -106.5q95 0 168 107.5 t108 281.5zM1129 1634l-5 -22h-219l-80 134l-132 -134h-214l5 25l290 237h155z" horiz-adv-x="1121" unicode="Ô"/><glyph d="M1114 596q-58 -289 -218 -453t-384 -164q-209 0 -330 179.5t-68 441.5l52 259q58 290 212.5 454t376.5 164q211 0 337 -181t74 -441zM885 857q36 177 -14.5 284t-160.5 107q-94 0 -161.5 -106t-102.5 -281l-52 -261q-36 -180 9 -286.5t154 -106.5q95 0 168 107.5 t108 281.5zM1158 1875q-17 -99 -75.5 -163.5t-135.5 -64.5q-53 0 -121 44t-110 44q-24 0 -47.5 -33t-30.5 -79l-140 43q15 96 74.5 162.5t135.5 66.5q40 0 114.5 -44t117.5 -44q24 0 48 33t32 80z" horiz-adv-x="1121" unicode="Õ"/><glyph d="M1114 596q-58 -289 -218 -453t-384 -164q-209 0 -330 179.5t-68 441.5l52 259q58 290 212.5 454t376.5 164q211 0 337 -181t74 -441zM885 857q36 177 -14.5 284t-160.5 107q-94 0 -161.5 -106t-102.5 -281l-52 -261q-36 -180 9 -286.5t154 -106.5q95 0 168 107.5 t108 281.5zM1140 1627h-245l32 198h245zM710 1627h-245l32 198h245z" horiz-adv-x="1121" unicode="Ö"/><glyph d="M50 369l322 313l-200 318l198 163l188 -300l308 300l131 -163l-326 -317l198 -314l-198 -163l-186 296l-304 -296z" horiz-adv-x="946" unicode="×"/><glyph d="M1073 523q-55 -273 -212.5 -408.5t-383.5 -135.5q-57 0 -108.5 12t-95.5 36l-79 -120h-125l121 182q-69 71 -93.5 181.5t4.5 252.5l81 408q54 272 211 409t382 137q80 0 150 -25t122 -72l91 136h126l-149 -223q39 -71 49.5 -162.5t-10.5 -199.5zM380 523 q-11 -53 -14.5 -94t0.5 -65l6 -2l511 771q-13 59 -51 87t-102 28q-96 0 -167 -80.5t-101 -234.5zM870 913l-6 2l-450 -676q19 -17 46 -24.5t62 -7.5q94 0 166 80.5t104 235.5z" horiz-adv-x="1170" unicode="Ø"/><glyph d="M1246 1456l-198 -991q-50 -248 -201.5 -367t-369.5 -119q-200 0 -311.5 128.5t-65.5 357.5l198 991h281l-198 -991q-28 -141 9 -200t132 -59q89 0 153.5 61t91.5 198l198 991h281zM935 1559h-226l-200 266h302z" horiz-adv-x="1131" unicode="Ù"/><glyph d="M1246 1456l-198 -991q-50 -248 -201.5 -367t-369.5 -119q-200 0 -311.5 128.5t-65.5 357.5l198 991h281l-198 -991q-28 -141 9 -200t132 -59q89 0 153.5 61t91.5 198l198 991h281zM860 1826h295l2 -6l-280 -260h-226z" horiz-adv-x="1131" unicode="Ú"/><glyph d="M1246 1456l-198 -991q-50 -248 -201.5 -367t-369.5 -119q-200 0 -311.5 128.5t-65.5 357.5l198 991h281l-198 -991q-28 -141 9 -200t132 -59q89 0 153.5 61t91.5 198l198 991h281zM1126 1613l-5 -22h-219l-80 134l-132 -134h-214l5 25l290 237h155z" horiz-adv-x="1131" unicode="Û"/><glyph d="M1246 1456l-198 -991q-50 -248 -201.5 -367t-369.5 -119q-200 0 -311.5 128.5t-65.5 357.5l198 991h281l-198 -991q-28 -141 9 -200t132 -59q89 0 153.5 61t91.5 198l198 991h281zM1137 1606h-245l32 198h245zM707 1606h-245l32 198h245z" horiz-adv-x="1131" unicode="Ü"/><glyph d="M624 849l5 -1l344 608h307l-583 -939l-103 -517h-281l108 539l-204 917h308zM847 1825h295l2 -6l-280 -260h-226z" horiz-adv-x="1085" unicode="Ý"/><glyph d="M594 1456l-54 -268h151q200 0 300.5 -126.5t61.5 -323.5q-44 -215 -184 -332.5t-358 -117.5h-151l-57 -288h-283l291 1456h283zM495 964l-89 -449h150q80 0 137 64.5t76 156.5q20 101 -8.5 163t-115.5 62h-147z" horiz-adv-x="1040" unicode="Þ"/><glyph d="M313 0h-281l221 1104q47 238 178.5 351.5t330.5 113.5q147 0 235.5 -97.5t54.5 -267.5q-23 -116 -81.5 -207t-72.5 -162q-12 -60 71 -198.5t56 -277.5q-42 -205 -151 -292.5t-306 -87.5q-58 0 -118.5 15t-86.5 40l94 224q25 -23 63.5 -38t91.5 -15q44 0 80.5 38.5 t50.5 104.5q16 80 -71 209t-59 267q21 104 81.5 198t75.5 168q13 67 -10.5 110t-66.5 43q-46 0 -92 -66.5t-68 -176.5z" horiz-adv-x="1095" unicode="ß"/><glyph d="M504 0q-6 27 -8.5 58t-2.5 64q-50 -65 -110.5 -104t-131.5 -39q-120 0 -183.5 89.5t-34.5 233.5q34 170 146 252.5t309 82.5h96l18 88q16 84 0 124t-68 40q-39 0 -68 -35t-41 -98l-273 1l-2 6q26 151 148 245t297 94q152 0 238.5 -100t51.5 -279l-88 -438 q-17 -84 -19.5 -150t6.5 -135h-280zM376 193q36 0 72.5 22t63.5 58l40 201h-96q-53 0 -89 -45.5t-49 -113.5q-12 -58 4 -90t54 -32zM758 1237h-226l-200 266h302z" horiz-adv-x="911" unicode="à"/><glyph d="M504 0q-6 27 -8.5 58t-2.5 64q-50 -65 -110.5 -104t-131.5 -39q-120 0 -183.5 89.5t-34.5 233.5q34 170 146 252.5t309 82.5h96l18 88q16 84 0 124t-68 40q-39 0 -68 -35t-41 -98l-273 1l-2 6q26 151 148 245t297 94q152 0 238.5 -100t51.5 -279l-88 -438 q-17 -84 -19.5 -150t6.5 -135h-280zM376 193q36 0 72.5 22t63.5 58l40 201h-96q-53 0 -89 -45.5t-49 -113.5q-12 -58 4 -90t54 -32zM683 1504h295l2 -6l-280 -260h-226z" horiz-adv-x="911" unicode="á"/><glyph d="M504 0q-6 27 -8.5 58t-2.5 64q-50 -65 -110.5 -104t-131.5 -39q-120 0 -183.5 89.5t-34.5 233.5q34 170 146 252.5t309 82.5h96l18 88q16 84 0 124t-68 40q-39 0 -68 -35t-41 -98l-273 1l-2 6q26 151 148 245t297 94q152 0 238.5 -100t51.5 -279l-88 -438 q-17 -84 -19.5 -150t6.5 -135h-280zM376 193q36 0 72.5 22t63.5 58l40 201h-96q-53 0 -89 -45.5t-49 -113.5q-12 -58 4 -90t54 -32zM949 1291l-5 -22h-219l-80 134l-132 -134h-214l5 25l290 237h155z" horiz-adv-x="911" unicode="â"/><glyph d="M504 0q-6 27 -8.5 58t-2.5 64q-50 -65 -110.5 -104t-131.5 -39q-120 0 -183.5 89.5t-34.5 233.5q34 170 146 252.5t309 82.5h96l18 88q16 84 0 124t-68 40q-39 0 -68 -35t-41 -98l-273 1l-2 6q26 151 148 245t297 94q152 0 238.5 -100t51.5 -279l-88 -438 q-17 -84 -19.5 -150t6.5 -135h-280zM376 193q36 0 72.5 22t63.5 58l40 201h-96q-53 0 -89 -45.5t-49 -113.5q-12 -58 4 -90t54 -32zM978 1532q-17 -99 -75.5 -163.5t-135.5 -64.5q-53 0 -121 44t-110 44q-24 0 -47.5 -33t-30.5 -79l-140 43q15 96 74.5 162.5t135.5 66.5 q40 0 114.5 -44t117.5 -44q24 0 48 33t32 80z" horiz-adv-x="911" unicode="ã"/><glyph d="M504 0q-6 27 -8.5 58t-2.5 64q-50 -65 -110.5 -104t-131.5 -39q-120 0 -183.5 89.5t-34.5 233.5q34 170 146 252.5t309 82.5h96l18 88q16 84 0 124t-68 40q-39 0 -68 -35t-41 -98l-273 1l-2 6q26 151 148 245t297 94q152 0 238.5 -100t51.5 -279l-88 -438 q-17 -84 -19.5 -150t6.5 -135h-280zM376 193q36 0 72.5 22t63.5 58l40 201h-96q-53 0 -89 -45.5t-49 -113.5q-12 -58 4 -90t54 -32zM960 1284h-245l32 198h245zM530 1284h-245l32 198h245z" horiz-adv-x="911" unicode="ä"/><glyph d="M504 0q-6 27 -8.5 58t-2.5 64q-50 -65 -110.5 -104t-131.5 -39q-120 0 -183.5 89.5t-34.5 233.5q34 170 146 252.5t309 82.5h96l18 88q16 84 0 124t-68 40q-39 0 -68 -35t-41 -98l-273 1l-2 6q26 151 148 245t297 94q152 0 238.5 -100t51.5 -279l-88 -438 q-17 -84 -19.5 -150t6.5 -135h-280zM376 193q36 0 72.5 22t63.5 58l40 201h-96q-53 0 -89 -45.5t-49 -113.5q-12 -58 4 -90t54 -32zM463 1417q16 85 80.5 137.5t145.5 52.5q72 0 117 -55.5t30 -134.5q-18 -87 -80 -136.5t-142 -49.5q-75 0 -121.5 53.5t-29.5 132.5z M569 1417q-9 -45 8.5 -70t54.5 -25q34 0 62 26.5t37 68.5q8 46 -8 71.5t-53 25.5q-34 0 -63.5 -27.5t-37.5 -69.5z" horiz-adv-x="911" unicode="å"/><glyph d="M922 -21q-96 0 -168.5 39t-115.5 112q-62 -66 -151 -108.5t-198 -42.5q-151 0 -225 92.5t-44 245.5q34 169 154.5 250.5t328.5 81.5h124l11 56q16 84 -1.5 126.5t-65.5 42.5q-47 0 -85.5 -37.5t-48.5 -91.5l-268 17l-2 6q26 154 148.5 244t303.5 90q72 0 132.5 -22 t102.5 -65q58 43 127.5 65t149.5 22q162 0 241 -133.5t35 -353.5l-32 -160h-505q-20 -123 9.5 -186t121.5 -63q68 0 122.5 19.5t123.5 58.5l33 -183q-59 -49 -158 -85.5t-200 -36.5zM385 184q34 0 83 27t84 64l38 191h-122q-60 0 -107.5 -45.5t-59.5 -107.5q-13 -64 7 -96.5 t77 -32.5zM1086 874q-62 0 -104.5 -61t-71.5 -169h228l5 27q20 100 6.5 151.5t-63.5 51.5z" horiz-adv-x="1420" unicode="æ"/><glyph d="M433 206q51 0 84.5 43t46.5 124h255l2 -6q-26 -177 -144 -282.5t-280 -105.5q-193 0 -283.5 138.5t-55.5 352.5l22 139q36 224 164.5 358.5t330.5 134.5q162 0 246.5 -114.5t54.5 -308.5h-263q14 93 -2.5 144t-71.5 51q-74 0 -116 -73t-61 -192l-22 -139 q-21 -129 -4 -196.5t97 -67.5zM499 7l-20 -59q45 -11 69.5 -52.5t9.5 -120.5q-24 -115 -110.5 -175t-226.5 -58l-5 4l26 155q28 0 49 21t30 63q8 45 -11 60.5t-76 20.5l54 141h211z" horiz-adv-x="878" unicode="ç"/><glyph d="M423 -21q-189 0 -286 135t-64 337l24 152q36 227 163 363t318 136q176 0 258.5 -128.5t48.5 -344.5l-28 -174h-504v-4q-18 -111 15 -178t125 -67q72 0 124.5 18.5t123.5 59.5l42 -181q-62 -54 -157 -89t-203 -35zM542 874q-58 0 -97 -62.5t-61 -166.5h226l7 40 q15 94 -1.5 141.5t-73.5 47.5zM719 1238h-226l-200 266h302z" horiz-adv-x="907" unicode="è"/><glyph d="M423 -21q-189 0 -286 135t-64 337l24 152q36 227 163 363t318 136q176 0 258.5 -128.5t48.5 -344.5l-28 -174h-504v-4q-18 -111 15 -178t125 -67q72 0 124.5 18.5t123.5 59.5l42 -181q-62 -54 -157 -89t-203 -35zM542 874q-58 0 -97 -62.5t-61 -166.5h226l7 40 q15 94 -1.5 141.5t-73.5 47.5zM644 1505h295l2 -6l-280 -260h-226z" horiz-adv-x="907" unicode="é"/><glyph d="M423 -21q-189 0 -286 135t-64 337l24 152q36 227 163 363t318 136q176 0 258.5 -128.5t48.5 -344.5l-28 -174h-504v-4q-18 -111 15 -178t125 -67q72 0 124.5 18.5t123.5 59.5l42 -181q-62 -54 -157 -89t-203 -35zM542 874q-58 0 -97 -62.5t-61 -166.5h226l7 40 q15 94 -1.5 141.5t-73.5 47.5zM912 1292l-5 -22h-219l-80 134l-132 -134h-214l5 25l290 237h155z" horiz-adv-x="907" unicode="ê"/><glyph d="M423 -21q-189 0 -286 135t-64 337l24 152q36 227 163 363t318 136q176 0 258.5 -128.5t48.5 -344.5l-28 -174h-504v-4q-18 -111 15 -178t125 -67q72 0 124.5 18.5t123.5 59.5l42 -181q-62 -54 -157 -89t-203 -35zM542 874q-58 0 -97 -62.5t-61 -166.5h226l7 40 q15 94 -1.5 141.5t-73.5 47.5zM923 1284h-245l32 198h245zM493 1284h-245l32 198h245z" horiz-adv-x="907" unicode="ë"/><glyph d="M309 0h-283l216 1082h283zM558 1216h-226l-200 266h302z" horiz-adv-x="507" unicode="ì"/><glyph d="M309 0h-283l216 1082h283zM481 1483h295l2 -6l-280 -260h-226z" horiz-adv-x="507" unicode="í"/><glyph d="M309 0h-283l216 1082h283zM749 1272l-5 -22h-219l-80 134l-132 -134h-214l5 25l290 237h155z" horiz-adv-x="507" unicode="î"/><glyph d="M309 0h-283l216 1082h283zM760 1263h-245l32 198h245zM330 1263h-245l32 198h245z" horiz-adv-x="507" unicode="ï"/><glyph d="M923 1284q71 -117 92 -274.5t-16 -345.5l-14 -71q-58 -288 -220.5 -451t-363.5 -163q-187 0 -291.5 142t-63.5 345q48 241 180.5 369t327.5 128q53 0 101 -21t86 -59q0 79 -16 142t-44 113l-198 -119l-49 111l169 101q-25 20 -52.5 37t-57.5 32l131 217q65 -21 121.5 -56 t103.5 -82l185 111l47 -110zM717 666v1q-19 36 -59 59.5t-97 23.5q-79 0 -143.5 -79t-89.5 -205q-24 -117 8 -188.5t113 -71.5q77 0 148.5 110t105.5 277z" horiz-adv-x="1016" unicode="ð"/><glyph d="M463 944q57 76 127 117t145 41q120 0 176.5 -106t13.5 -325l-134 -671h-283l134 671q24 119 5 161t-81 42q-32 0 -64 -20t-61 -55l-159 -799h-282l216 1082h263zM1005 1532q-17 -99 -75.5 -163.5t-135.5 -64.5q-53 0 -121 44t-110 44q-24 0 -47.5 -33t-30.5 -79l-140 43 q15 96 74.5 162.5t135.5 66.5q40 0 114.5 -44t117.5 -44q24 0 48 33t32 80z" unicode="ñ"/><glyph d="M87 607q36 226 166.5 360.5t332.5 134.5q191 0 283.5 -140t58.5 -355l-21 -134q-37 -228 -168 -361t-331 -133q-193 0 -285.5 138.5t-56.5 355.5zM346 473q-21 -130 -1.5 -198.5t99.5 -68.5q73 0 117 72t64 195l21 134q20 127 0.5 197t-96.5 70q-74 0 -119.5 -73.5 t-63.5 -193.5zM748 1237h-226l-200 266h302z" unicode="ò"/><glyph d="M87 607q36 226 166.5 360.5t332.5 134.5q191 0 283.5 -140t58.5 -355l-21 -134q-37 -228 -168 -361t-331 -133q-193 0 -285.5 138.5t-56.5 355.5zM346 473q-21 -130 -1.5 -198.5t99.5 -68.5q73 0 117 72t64 195l21 134q20 127 0.5 197t-96.5 70q-74 0 -119.5 -73.5 t-63.5 -193.5zM673 1504h295l2 -6l-280 -260h-226z" unicode="ó"/><glyph d="M87 607q36 226 166.5 360.5t332.5 134.5q191 0 283.5 -140t58.5 -355l-21 -134q-37 -228 -168 -361t-331 -133q-193 0 -285.5 138.5t-56.5 355.5zM346 473q-21 -130 -1.5 -198.5t99.5 -68.5q73 0 117 72t64 195l21 134q20 127 0.5 197t-96.5 70q-74 0 -119.5 -73.5 t-63.5 -193.5zM939 1291l-5 -22h-219l-80 134l-132 -134h-214l5 25l290 237h155z" unicode="ô"/><glyph d="M87 607q36 226 166.5 360.5t332.5 134.5q191 0 283.5 -140t58.5 -355l-21 -134q-37 -228 -168 -361t-331 -133q-193 0 -285.5 138.5t-56.5 355.5zM346 473q-21 -130 -1.5 -198.5t99.5 -68.5q73 0 117 72t64 195l21 134q20 127 0.5 197t-96.5 70q-74 0 -119.5 -73.5 t-63.5 -193.5zM968 1532q-17 -99 -75.5 -163.5t-135.5 -64.5q-53 0 -121 44t-110 44q-24 0 -47.5 -33t-30.5 -79l-140 43q15 96 74.5 162.5t135.5 66.5q40 0 114.5 -44t117.5 -44q24 0 48 33t32 80z" unicode="õ"/><glyph d="M87 607q36 226 166.5 360.5t332.5 134.5q191 0 283.5 -140t58.5 -355l-21 -134q-37 -228 -168 -361t-331 -133q-193 0 -285.5 138.5t-56.5 355.5zM346 473q-21 -130 -1.5 -198.5t99.5 -68.5q73 0 117 72t64 195l21 134q20 127 0.5 197t-96.5 70q-74 0 -119.5 -73.5 t-63.5 -193.5zM950 1284h-245l32 198h245zM520 1284h-245l32 198h245z" unicode="ö"/><glyph d="M929 577h-838l45 221h838zM727 971h-277l46 230h277zM566 167h-277l46 230h277z" horiz-adv-x="969" unicode="÷"/><glyph d="M87 607q36 226 166.5 360.5t332.5 134.5q44 0 84 -8.5t75 -24.5l88 148h150l-135 -227q57 -67 77.5 -166t2.5 -217l-21 -134q-37 -228 -168 -361t-331 -133q-41 0 -77.5 7t-67.5 19l-87 -148h-148l129 218q-64 66 -88 169.5t-3 228.5zM346 473q-5 -28 -7.5 -50.5 t-1.5 -33.5l5 -2l275 465q-14 10 -30.5 16t-36.5 6q-74 0 -119.5 -73.5t-63.5 -193.5zM646 607q2 13 3.5 25t1.5 15l-6 2l-255 -431q10 -6 23.5 -9t30.5 -3q73 0 117 72t64 195z" horiz-adv-x="962" unicode="ø"/><glyph d="M542 0l7 114q-54 -67 -120 -101t-141 -34q-129 0 -189.5 111.5t-14.5 337.5l130 654h282l-131 -656q-25 -122 -10.5 -170.5t65.5 -48.5q40 0 76 18t66 52l161 805h283l-216 -1082h-248zM779 1216h-226l-200 266h302z" unicode="ù"/><glyph d="M542 0l7 114q-54 -67 -120 -101t-141 -34q-129 0 -189.5 111.5t-14.5 337.5l130 654h282l-131 -656q-25 -122 -10.5 -170.5t65.5 -48.5q40 0 76 18t66 52l161 805h283l-216 -1082h-248zM704 1483h295l2 -6l-280 -260h-226z" unicode="ú"/><glyph d="M542 0l7 114q-54 -67 -120 -101t-141 -34q-129 0 -189.5 111.5t-14.5 337.5l130 654h282l-131 -656q-25 -122 -10.5 -170.5t65.5 -48.5q40 0 76 18t66 52l161 805h283l-216 -1082h-248zM970 1272l-5 -22h-219l-80 134l-132 -134h-214l5 25l290 237h155z" unicode="û"/><glyph d="M542 0l7 114q-54 -67 -120 -101t-141 -34q-129 0 -189.5 111.5t-14.5 337.5l130 654h282l-131 -656q-25 -122 -10.5 -170.5t65.5 -48.5q40 0 76 18t66 52l161 805h283l-216 -1082h-248zM981 1263h-245l32 198h245zM551 1263h-245l32 198h245z" unicode="ü"/><glyph d="M431 467l6 -2l264 617h301l-595 -1245q-62 -116 -143.5 -195t-217.5 -79q-32 0 -59 6t-68 18l76 212q13 -3 21 -4.5t16 -1.5q54 0 92 33.5t61 84.5l38 78l-84 1093h303zM664 1483h295l2 -6l-280 -260h-226z" horiz-adv-x="880" unicode="ý"/><glyph d="M920 494q-52 -258 -157.5 -386.5t-270.5 -128.5q-60 0 -108.5 24t-81.5 70l-14 -73l-83 -416h-282l299 1498h1l96 478h281l-109 -545q42 42 90.5 64.5t100.5 22.5q153 0 222 -169t20 -418zM642 515q33 166 21 262.5t-83 96.5q-38 0 -73 -28t-65 -77l-104 -519 q13 -24 39 -34t69 -10q68 0 115.5 75t76.5 213z" horiz-adv-x="964" unicode="þ"/><glyph d="M431 467l6 -2l264 617h301l-595 -1245q-62 -116 -143.5 -195t-217.5 -79q-32 0 -59 6t-68 18l76 212q13 -3 21 -4.5t16 -1.5q54 0 92 33.5t61 84.5l38 78l-84 1093h303zM943 1263h-245l32 198h245zM513 1263h-245l32 198h245z" horiz-adv-x="880" unicode="ÿ"/><glyph d="M706 309h-351l-136 -309h-284l679 1456h293l96 -1456h-284zM455 538h242l-19 491l-6 1zM1109 1617h-629l25 160h629z" horiz-adv-x="1095" unicode="Ā"/><glyph d="M504 0q-6 27 -8.5 58t-2.5 64q-50 -65 -110.5 -104t-131.5 -39q-120 0 -183.5 89.5t-34.5 233.5q34 170 146 252.5t309 82.5h96l18 88q16 84 0 124t-68 40q-39 0 -68 -35t-41 -98l-273 1l-2 6q26 151 148 245t297 94q152 0 238.5 -100t51.5 -279l-88 -438 q-17 -84 -19.5 -150t6.5 -135h-280zM376 193q36 0 72.5 22t63.5 58l40 201h-96q-53 0 -89 -45.5t-49 -113.5q-12 -58 4 -90t54 -32zM941 1297h-629l25 160h629z" horiz-adv-x="911" unicode="ā"/><glyph d="M706 309h-351l-136 -309h-284l679 1456h293l96 -1456h-284zM455 538h242l-19 491l-6 1zM1136 1897l2 -6q-17 -134 -111 -212t-235 -78q-136 0 -208.5 81.5t-47.5 209.5l2 5h206q-9 -54 9 -87.5t67 -33.5q45 0 73 34t37 87h206z" horiz-adv-x="1095" unicode="Ă"/><glyph d="M504 0q-6 27 -8.5 58t-2.5 64q-50 -65 -110.5 -104t-131.5 -39q-120 0 -183.5 89.5t-34.5 233.5q34 170 146 252.5t309 82.5h96l18 88q16 84 0 124t-68 40q-39 0 -68 -35t-41 -98l-273 1l-2 6q26 151 148 245t297 94q152 0 238.5 -100t51.5 -279l-88 -438 q-17 -84 -19.5 -150t6.5 -135h-280zM376 193q36 0 72.5 22t63.5 58l40 201h-96q-53 0 -89 -45.5t-49 -113.5q-12 -58 4 -90t54 -32zM968 1575l2 -6q-17 -134 -111 -212t-235 -78q-136 0 -208.5 81.5t-47.5 209.5l2 5h206q-9 -54 9 -87.5t67 -33.5q45 0 73 34t37 87h206z" horiz-adv-x="911" unicode="ă"/><glyph d="M706 309h-351l-136 -309h-284l679 1456h293l96 -1456h-284zM455 538h242l-19 491l-6 1zM916 0q-47 -52 -71 -88.5t-34 -85.5q-5 -25 3.5 -45.5t50.5 -20.5q20 0 38.5 6t38.5 14l1 -151q-34 -19 -74.5 -31.5t-92.5 -12.5q-90 0 -143.5 55.5t-34.5 151.5q17 81 65 146 t138 118z" horiz-adv-x="1095" unicode="Ą"/><glyph d="M504 0q-6 27 -8.5 58t-2.5 64q-50 -65 -110.5 -104t-131.5 -39q-120 0 -183.5 89.5t-34.5 233.5q34 170 146 252.5t309 82.5h96l18 88q16 84 0 124t-68 40q-39 0 -68 -35t-41 -98l-273 1l-2 6q26 151 148 245t297 94q152 0 238.5 -100t51.5 -279l-88 -438 q-17 -84 -19.5 -150t6.5 -135h-280zM376 193q36 0 72.5 22t63.5 58l40 201h-96q-53 0 -89 -45.5t-49 -113.5q-12 -58 4 -90t54 -32zM696 0q-47 -52 -71 -88.5t-34 -85.5q-5 -25 3.5 -45.5t50.5 -20.5q20 0 38.5 6t38.5 14l1 -151q-34 -19 -74.5 -31.5t-92.5 -12.5 q-90 0 -143.5 55.5t-34.5 151.5q17 81 65 146t138 118z" horiz-adv-x="911" unicode="ą"/><glyph d="M1032 495l2 -6q-60 -251 -188 -380.5t-342 -129.5q-206 0 -326.5 173t-68.5 432l58 290q57 289 203 446t356 157q213 0 325 -141.5t81 -385.5h-281q24 148 -10.5 223.5t-141.5 75.5q-82 0 -150 -103t-101 -270l-58 -292q-37 -179 -2 -278.5t135 -99.5q89 0 144 69.5 t92 219.5h273zM838 1847h295l2 -6l-280 -260h-226z" horiz-adv-x="1045" unicode="Ć"/><glyph d="M433 206q51 0 84.5 43t46.5 124h255l2 -6q-26 -177 -144 -282.5t-280 -105.5q-193 0 -283.5 138.5t-55.5 352.5l22 139q36 224 164.5 358.5t330.5 134.5q162 0 246.5 -114.5t54.5 -308.5h-263q14 93 -2.5 144t-71.5 51q-74 0 -116 -73t-61 -192l-22 -139 q-21 -129 -4 -196.5t97 -67.5zM633 1504h295l2 -6l-280 -260h-226z" horiz-adv-x="878" unicode="ć"/><glyph d="M1032 495l2 -6q-60 -251 -188 -380.5t-342 -129.5q-206 0 -326.5 173t-68.5 432l58 290q57 289 203 446t356 157q213 0 325 -141.5t81 -385.5h-281q24 148 -10.5 223.5t-141.5 75.5q-82 0 -150 -103t-101 -270l-58 -292q-37 -179 -2 -278.5t135 -99.5q89 0 144 69.5 t92 219.5h273zM1104 1634l-5 -22h-219l-80 134l-132 -134h-214l5 25l290 237h155z" horiz-adv-x="1045" unicode="Ĉ"/><glyph d="M433 206q51 0 84.5 43t46.5 124h255l2 -6q-26 -177 -144 -282.5t-280 -105.5q-193 0 -283.5 138.5t-55.5 352.5l22 139q36 224 164.5 358.5t330.5 134.5q162 0 246.5 -114.5t54.5 -308.5h-263q14 93 -2.5 144t-71.5 51q-74 0 -116 -73t-61 -192l-22 -139 q-21 -129 -4 -196.5t97 -67.5zM901 1291l-5 -22h-219l-80 134l-132 -134h-214l5 25l290 237h155z" horiz-adv-x="878" unicode="ĉ"/><glyph d="M1032 495l2 -6q-60 -251 -188 -380.5t-342 -129.5q-206 0 -326.5 173t-68.5 432l58 290q57 289 203 446t356 157q213 0 325 -141.5t81 -385.5h-281q24 148 -10.5 223.5t-141.5 75.5q-82 0 -150 -103t-101 -270l-58 -292q-37 -179 -2 -278.5t135 -99.5q89 0 144 69.5 t92 219.5h273zM917 1628h-287l48 241h287z" horiz-adv-x="1045" unicode="Ċ"/><glyph d="M433 206q51 0 84.5 43t46.5 124h255l2 -6q-26 -177 -144 -282.5t-280 -105.5q-193 0 -283.5 138.5t-55.5 352.5l22 139q36 224 164.5 358.5t330.5 134.5q162 0 246.5 -114.5t54.5 -308.5h-263q14 93 -2.5 144t-71.5 51q-74 0 -116 -73t-61 -192l-22 -139 q-21 -129 -4 -196.5t97 -67.5zM712 1285h-287l48 241h287z" horiz-adv-x="878" unicode="ċ"/><glyph d="M1032 495l2 -6q-60 -251 -188 -380.5t-342 -129.5q-206 0 -326.5 173t-68.5 432l58 290q57 289 203 446t356 157q213 0 325 -141.5t81 -385.5h-281q24 148 -10.5 223.5t-141.5 75.5q-82 0 -150 -103t-101 -270l-58 -292q-37 -179 -2 -278.5t135 -99.5q89 0 144 69.5 t92 219.5h273zM805 1766l105 127h254l-3 -17l-291 -253h-189l-188 255l3 15h253z" horiz-adv-x="1045" unicode="Č"/><glyph d="M433 206q51 0 84.5 43t46.5 124h255l2 -6q-26 -177 -144 -282.5t-280 -105.5q-193 0 -283.5 138.5t-55.5 352.5l22 139q36 224 164.5 358.5t330.5 134.5q162 0 246.5 -114.5t54.5 -308.5h-263q14 93 -2.5 144t-71.5 51q-74 0 -116 -73t-61 -192l-22 -139 q-21 -129 -4 -196.5t97 -67.5zM602 1423l105 127h254l-3 -17l-291 -253h-189l-188 255l3 15h253z" horiz-adv-x="878" unicode="č"/><glyph d="M22 0l291 1456h391q204 0 329 -178t73 -437l-49 -245q-58 -288 -210.5 -442t-368.5 -154h-456zM550 1228l-200 -1001h157q100 0 166.5 97t101.5 272l50 247q34 177 -16 281t-166 104h-93zM751 1745l105 127h254l-3 -17l-291 -253h-189l-188 255l3 15h253z" horiz-adv-x="1107" unicode="Ď"/><glyph d="M80 555q54 272 162 409.5t275 137.5q56 0 103 -27t81 -77l113 562h282l-312 -1560h-245l4 97q-50 -57 -106 -87.5t-115 -30.5q-152 0 -223 159.5t-23 395.5zM358 534q-32 -157 -19 -242t86 -85q36 0 71.5 26.5t66.5 73.5l100 498q-13 34 -38.5 51.5t-62.5 17.5 q-68 0 -119.5 -86t-80.5 -233zM1340 1398l-163 -231h-112l99 240l30 152h178z" horiz-adv-x="1110" unicode="ď"/><glyph d="M52 0l131 655h-103l35 175h103l125 626h391q204 0 329 -178t73 -437l-49 -245q-58 -288 -210.5 -442t-368.5 -154h-456zM637 655h-171l-86 -428h157q100 0 166.5 97t101.5 272l50 247q34 177 -16 281t-166 104h-93l-79 -398h171z" horiz-adv-x="1137" unicode="Đ"/><glyph d="M1133 1223h-105l-244 -1223h-245l4 97q-50 -57 -106 -87.5t-115 -30.5q-152 0 -223 159.5t-23 395.5l4 21q54 272 162 409.5t275 137.5q56 0 103 -27t81 -77l45 225h-170l35 175h170l33 162h282l-33 -162h105zM358 534q-32 -157 -19 -242t86 -85q36 0 71.5 26.5 t66.5 73.5l100 498q-13 34 -38.5 51.5t-62.5 17.5q-68 0 -119.5 -86t-80.5 -233z" horiz-adv-x="990" unicode="đ"/><glyph d="M893 639h-460l-83 -412h542l-45 -227h-825l291 1456h823l-45 -228h-541l-72 -362h460zM1048 1617h-629l25 160h629z" horiz-adv-x="971" unicode="Ē"/><glyph d="M423 -21q-189 0 -286 135t-64 337l24 152q36 227 163 363t318 136q176 0 258.5 -128.5t48.5 -344.5l-28 -174h-504v-4q-18 -111 15 -178t125 -67q72 0 124.5 18.5t123.5 59.5l42 -181q-62 -54 -157 -89t-203 -35zM542 874q-58 0 -97 -62.5t-61 -166.5h226l7 40 q15 94 -1.5 141.5t-73.5 47.5zM904 1297h-629l25 160h629z" horiz-adv-x="907" unicode="ē"/><glyph d="M893 639h-460l-83 -412h542l-45 -227h-825l291 1456h823l-45 -228h-541l-72 -362h460zM1075 1897l2 -6q-17 -134 -111 -212t-235 -78q-136 0 -208.5 81.5t-47.5 209.5l2 5h206q-9 -54 9 -87.5t67 -33.5q45 0 73 34t37 87h206z" horiz-adv-x="971" unicode="Ĕ"/><glyph d="M423 -21q-189 0 -286 135t-64 337l24 152q36 227 163 363t318 136q176 0 258.5 -128.5t48.5 -344.5l-28 -174h-504v-4q-18 -111 15 -178t125 -67q72 0 124.5 18.5t123.5 59.5l42 -181q-62 -54 -157 -89t-203 -35zM542 874q-58 0 -97 -62.5t-61 -166.5h226l7 40 q15 94 -1.5 141.5t-73.5 47.5zM929 1576l2 -6q-17 -134 -111 -212t-235 -78q-136 0 -208.5 81.5t-47.5 209.5l2 5h206q-9 -54 9 -87.5t67 -33.5q45 0 73 34t37 87h206z" horiz-adv-x="907" unicode="ĕ"/><glyph d="M893 639h-460l-83 -412h542l-45 -227h-825l291 1456h823l-45 -228h-541l-72 -362h460zM869 1607h-287l48 241h287z" horiz-adv-x="971" unicode="Ė"/><glyph d="M423 -21q-189 0 -286 135t-64 337l24 152q36 227 163 363t318 136q176 0 258.5 -128.5t48.5 -344.5l-28 -174h-504v-4q-18 -111 15 -178t125 -67q72 0 124.5 18.5t123.5 59.5l42 -181q-62 -54 -157 -89t-203 -35zM542 874q-58 0 -97 -62.5t-61 -166.5h226l7 40 q15 94 -1.5 141.5t-73.5 47.5zM723 1286h-287l48 241h287z" horiz-adv-x="907" unicode="ė"/><glyph d="M893 639h-460l-83 -412h542l-45 -227h-825l291 1456h823l-45 -228h-541l-72 -362h460zM644 0q-47 -52 -71 -88.5t-34 -85.5q-5 -25 3.5 -45.5t50.5 -20.5q20 0 38.5 6t38.5 14l1 -151q-34 -19 -74.5 -31.5t-92.5 -12.5q-90 0 -143.5 55.5t-34.5 151.5q17 81 65 146 t138 118z" horiz-adv-x="971" unicode="Ę"/><glyph d="M423 -21q-189 0 -286 135t-64 337l24 152q36 227 163 363t318 136q176 0 258.5 -128.5t48.5 -344.5l-28 -174h-504v-4q-18 -111 15 -178t125 -67q72 0 124.5 18.5t123.5 59.5l42 -181q-62 -54 -157 -89t-203 -35zM542 874q-58 0 -97 -62.5t-61 -166.5h226l7 40 q15 94 -1.5 141.5t-73.5 47.5zM662 40q-47 -52 -71 -88.5t-34 -85.5q-5 -25 3.5 -45.5t50.5 -20.5q20 0 38.5 6t38.5 14l1 -151q-34 -19 -74.5 -31.5t-92.5 -12.5q-90 0 -143.5 55.5t-34.5 151.5q17 81 65 146t138 118z" horiz-adv-x="907" unicode="ę"/><glyph d="M893 639h-460l-83 -412h542l-45 -227h-825l291 1456h823l-45 -228h-541l-72 -362h460zM757 1745l105 127h254l-3 -17l-291 -253h-189l-188 255l3 15h253z" horiz-adv-x="971" unicode="Ě"/><glyph d="M423 -21q-189 0 -286 135t-64 337l24 152q36 227 163 363t318 136q176 0 258.5 -128.5t48.5 -344.5l-28 -174h-504v-4q-18 -111 15 -178t125 -67q72 0 124.5 18.5t123.5 59.5l42 -181q-62 -54 -157 -89t-203 -35zM542 874q-58 0 -97 -62.5t-61 -166.5h226l7 40 q15 94 -1.5 141.5t-73.5 47.5zM611 1424l105 127h254l-3 -17l-291 -253h-189l-188 255l3 15h253z" horiz-adv-x="907" unicode="ě"/><glyph d="M988 216q-76 -94 -203 -165.5t-300 -71.5q-210 0 -325 139.5t-65 387.5l89 444q53 268 207.5 397.5t374.5 129.5q217 0 316.5 -121.5t61.5 -337.5l-3 -5h-266q22 123 -13.5 179.5t-132.5 56.5q-90 0 -162 -75t-101 -222l-89 -446q-33 -163 6.5 -231.5t146.5 -68.5 q73 0 117 24t75 67l53 261h-174l40 200h456zM1120 1634l-5 -22h-219l-80 134l-132 -134h-214l5 25l290 237h155z" horiz-adv-x="1133" unicode="Ĝ"/><glyph d="M80 555q54 272 162.5 409.5t275.5 137.5q64 0 116 -33t85 -93l37 106h245l-209 -1047q-46 -229 -187.5 -350.5t-352.5 -121.5q-63 0 -137 23t-130 60l93 219q49 -32 101 -48t118 -16q77 0 134 64t79 171l5 26q-44 -40 -92 -61.5t-99 -21.5q-153 0 -224.5 159.5 t-23.5 395.5zM358 534q-32 -156 -18.5 -241.5t86.5 -85.5q38 0 72.5 23t63.5 66l104 521q-13 29 -39 43t-65 14q-67 0 -119 -86.5t-81 -232.5zM956 1291l-5 -22h-219l-80 134l-132 -134h-214l5 25l290 237h155z" horiz-adv-x="959" unicode="ĝ"/><glyph d="M988 216q-76 -94 -203 -165.5t-300 -71.5q-210 0 -325 139.5t-65 387.5l89 444q53 268 207.5 397.5t374.5 129.5q217 0 316.5 -121.5t61.5 -337.5l-3 -5h-266q22 123 -13.5 179.5t-132.5 56.5q-90 0 -162 -75t-101 -222l-89 -446q-33 -163 6.5 -231.5t146.5 -68.5 q73 0 117 24t75 67l53 261h-174l40 200h456zM1139 1918l2 -6q-17 -134 -111 -212t-235 -78q-136 0 -208.5 81.5t-47.5 209.5l2 5h206q-9 -54 9 -87.5t67 -33.5q45 0 73 34t37 87h206z" horiz-adv-x="1133" unicode="Ğ"/><glyph d="M80 555q54 272 162.5 409.5t275.5 137.5q64 0 116 -33t85 -93l37 106h245l-209 -1047q-46 -229 -187.5 -350.5t-352.5 -121.5q-63 0 -137 23t-130 60l93 219q49 -32 101 -48t118 -16q77 0 134 64t79 171l5 26q-44 -40 -92 -61.5t-99 -21.5q-153 0 -224.5 159.5 t-23.5 395.5zM358 534q-32 -156 -18.5 -241.5t86.5 -85.5q38 0 72.5 23t63.5 66l104 521q-13 29 -39 43t-65 14q-67 0 -119 -86.5t-81 -232.5zM975 1575l2 -6q-17 -134 -111 -212t-235 -78q-136 0 -208.5 81.5t-47.5 209.5l2 5h206q-9 -54 9 -87.5t67 -33.5q45 0 73 34 t37 87h206z" horiz-adv-x="959" unicode="ğ"/><glyph d="M988 216q-76 -94 -203 -165.5t-300 -71.5q-210 0 -325 139.5t-65 387.5l89 444q53 268 207.5 397.5t374.5 129.5q217 0 316.5 -121.5t61.5 -337.5l-3 -5h-266q22 123 -13.5 179.5t-132.5 56.5q-90 0 -162 -75t-101 -222l-89 -446q-33 -163 6.5 -231.5t146.5 -68.5 q73 0 117 24t75 67l53 261h-174l40 200h456zM933 1628h-287l48 241h287z" horiz-adv-x="1133" unicode="Ġ"/><glyph d="M80 555q54 272 162.5 409.5t275.5 137.5q64 0 116 -33t85 -93l37 106h245l-209 -1047q-46 -229 -187.5 -350.5t-352.5 -121.5q-63 0 -137 23t-130 60l93 219q49 -32 101 -48t118 -16q77 0 134 64t79 171l5 26q-44 -40 -92 -61.5t-99 -21.5q-153 0 -224.5 159.5 t-23.5 395.5zM358 534q-32 -156 -18.5 -241.5t86.5 -85.5q38 0 72.5 23t63.5 66l104 521q-13 29 -39 43t-65 14q-67 0 -119 -86.5t-81 -232.5zM769 1285h-287l48 241h287z" horiz-adv-x="959" unicode="ġ"/><glyph d="M988 216q-76 -94 -203 -165.5t-300 -71.5q-210 0 -325 139.5t-65 387.5l89 444q53 268 207.5 397.5t374.5 129.5q217 0 316.5 -121.5t61.5 -337.5l-3 -5h-266q22 123 -13.5 179.5t-132.5 56.5q-90 0 -162 -75t-101 -222l-89 -446q-33 -163 6.5 -231.5t146.5 -68.5 q73 0 117 24t75 67l53 261h-174l40 200h456zM512 -258l-163 -231h-112l99 240l30 152h178z" horiz-adv-x="1133" unicode="Ģ"/><glyph d="M80 555q54 272 162.5 409.5t275.5 137.5q64 0 116 -33t85 -93l37 106h245l-209 -1047q-46 -229 -187.5 -350.5t-352.5 -121.5q-63 0 -137 23t-130 60l93 219q49 -32 101 -48t118 -16q77 0 134 64t79 171l5 26q-44 -40 -92 -61.5t-99 -21.5q-153 0 -224.5 159.5 t-23.5 395.5zM358 534q-32 -156 -18.5 -241.5t86.5 -85.5q38 0 72.5 23t63.5 66l104 521q-13 29 -39 43t-65 14q-67 0 -119 -86.5t-81 -232.5zM544 1438l150 257h153l-81 -265l-34 -170h-224z" horiz-adv-x="959" unicode="ģ"/><glyph d="M1001 0h-281l120 603h-415l-120 -603h-283l291 1456h283l-125 -626h415l125 626h281zM1158 1613l-5 -22h-219l-80 134l-132 -134h-214l5 25l290 237h155z" horiz-adv-x="1193" unicode="Ĥ"/><glyph d="M473 973l5 -3q49 63 110 97.5t127 34.5q128 0 187.5 -116.5t13.5 -351.5l-127 -634h-283l127 636q29 143 11 190.5t-81 47.5q-33 0 -64.5 -17.5t-58.5 -48.5l-161 -808h-282l312 1560h282zM1001 1615l-5 -22h-219l-80 134l-132 -134h-214l5 25l290 237h155z" unicode="ĥ"/><glyph d="M1246 1196h94l-33 -167h-95l-205 -1029h-281l120 603h-415l-120 -603h-283l205 1029h-88l33 167h89l52 260h283l-52 -260h415l52 260h281zM477 830h415l39 199h-415z" horiz-adv-x="1199" unicode="Ħ"/><glyph d="M719 1220h-166l-50 -247l5 -3q49 63 110 97.5t127 34.5q128 0 187.5 -116.5t13.5 -351.5l-127 -634h-283l127 636q29 143 11 190.5t-81 47.5q-33 0 -64.5 -17.5t-58.5 -48.5l-161 -808h-282l244 1220h-109l35 175h109l33 165h282l-33 -165h166z" horiz-adv-x="990" unicode="ħ"/><glyph d="M316 0h-281l291 1456h281zM855 1854q-17 -99 -75.5 -163.5t-135.5 -64.5q-53 0 -121 44t-110 44q-24 0 -47.5 -33t-30.5 -79l-140 43q15 96 74.5 162.5t135.5 66.5q40 0 114.5 -44t117.5 -44q24 0 48 33t32 80z" horiz-adv-x="523" unicode="Ĩ"/><glyph d="M309 0h-283l216 1082h283zM778 1511q-17 -99 -75.5 -163.5t-135.5 -64.5q-53 0 -121 44t-110 44q-24 0 -47.5 -33t-30.5 -79l-140 43q15 96 74.5 162.5t135.5 66.5q40 0 114.5 -44t117.5 -44q24 0 48 33t32 80z" horiz-adv-x="507" unicode="ĩ"/><glyph d="M316 0h-281l291 1456h281zM818 1617h-629l25 160h629z" horiz-adv-x="523" unicode="Ī"/><glyph d="M309 0h-283l216 1082h283zM741 1276h-629l25 160h629z" horiz-adv-x="507" unicode="ī"/><glyph d="M316 0h-281l291 1456h281zM845 1897l2 -6q-17 -134 -111 -212t-235 -78q-136 0 -208.5 81.5t-47.5 209.5l2 5h206q-9 -54 9 -87.5t67 -33.5q45 0 73 34t37 87h206z" horiz-adv-x="523" unicode="Ĭ"/><glyph d="M309 0h-283l216 1082h283zM768 1554l2 -6q-17 -134 -111 -212t-235 -78q-136 0 -208.5 81.5t-47.5 209.5l2 5h206q-9 -54 9 -87.5t67 -33.5q45 0 73 34t37 87h206z" horiz-adv-x="507" unicode="ĭ"/><glyph d="M316 0h-281l291 1456h281zM230 0q-47 -52 -71 -88.5t-34 -85.5q-5 -25 3.5 -45.5t50.5 -20.5q20 0 38.5 6t38.5 14l1 -151q-34 -19 -74.5 -31.5t-92.5 -12.5q-90 0 -143.5 55.5t-34.5 151.5q17 81 65 146t138 118z" horiz-adv-x="523" unicode="Į"/><glyph d="M299 0h-281l216 1082h281zM568 1343h-281l43 217h281zM213 0q-47 -52 -71 -88.5t-34 -85.5q-5 -25 3.5 -45.5t50.5 -20.5q20 0 38.5 6t38.5 14l1 -151q-34 -19 -74.5 -31.5t-92.5 -12.5q-90 0 -143.5 55.5t-34.5 151.5q17 81 65 146t138 118z" horiz-adv-x="488" unicode="į"/><glyph d="M316 0h-281l291 1456h281zM637 1607h-287l48 241h287z" horiz-adv-x="523" unicode="İ"/><glyph d="M309 0h-283l216 1082h283z" horiz-adv-x="507" unicode="ı"/><glyph d="M316 0h-281l291 1456h281zM1322 1456h281l-202 -1012q-47 -229 -184 -347t-317 -118q-178 0 -273 114.5t-51 333.5h283q-25 -123 1.5 -172t84.5 -49q49 0 101 64t74 174z" horiz-adv-x="1503" unicode="Ĳ"/><glyph d="M299 0h-281l216 1082h281zM568 1343h-281l43 217h281zM1009 1082l-223 -1115q-41 -206 -145.5 -305t-262.5 -99q-31 0 -60 4.5t-61 13.5l57 223q20 -6 35.5 -9t37.5 -3q38 0 69.5 44.5t47.5 130.5l223 1115h282zM1056 1343h-281l43 217h281z" horiz-adv-x="967" unicode="ĳ"/><glyph d="M799 1456h281l-202 -1012q-47 -229 -184 -347t-317 -118q-178 0 -273 114.5t-51 333.5h283q-25 -123 1.5 -172t84.5 -49q49 0 101 64t74 174zM1278 1608l-5 -22h-219l-80 134l-132 -134h-214l5 25l290 237h155z" horiz-adv-x="980" unicode="Ĵ"/><glyph d="M537 1082l-223 -1115q-41 -206 -145.5 -305t-262.5 -99q-31 0 -60 4.5t-61 13.5l58 222q19 -6 35.5 -9t38.5 -3q37 0 68 46t48 130l223 1115h281zM740 1267l-5 -22h-219l-80 134l-132 -134h-214l5 25l290 237h155z" horiz-adv-x="521" unicode="ĵ"/><glyph d="M507 602h-83l-120 -602h-282l291 1456h282l-119 -594h87l325 594h370l-496 -722l217 -734h-324zM484 -258l-163 -231h-112l99 240l30 152h178z" horiz-adv-x="1095" unicode="Ķ"/><glyph d="M421 450h-44l-90 -450h-282l312 1560h282l-177 -886h42l244 408h324l-360 -484l190 -598h-322zM424 -258l-163 -231h-112l99 240l30 152h178z" horiz-adv-x="934" unicode="ķ"/><glyph d="M462 402h-78l-80 -402h-282l216 1082h282l-82 -409h60l260 409h352l3 -5l-387 -483l178 -594h-361z" horiz-adv-x="1029" unicode="ĸ"/><glyph d="M350 227h502l-45 -227h-785l291 1456h283zM544 1810h295l2 -6l-280 -260h-226z" horiz-adv-x="927" unicode="Ĺ"/><glyph d="M299 0h-281l312 1560h281zM552 1890h295l2 -6l-280 -260h-226z" horiz-adv-x="488" unicode="ĺ"/><glyph d="M350 227h502l-45 -227h-785l291 1456h283zM443 -258l-163 -231h-112l99 240l30 152h178z" horiz-adv-x="927" unicode="Ļ"/><glyph d="M299 0h-281l312 1560h281zM191 -258l-163 -231h-112l99 240l30 152h178z" horiz-adv-x="488" unicode="ļ"/><glyph d="M350 227h502l-45 -227h-785l291 1456h283zM924 1298l-163 -231h-112l99 240l30 152h178z" horiz-adv-x="927" unicode="Ľ"/><glyph d="M299 0h-281l312 1560h281zM867 1398l-163 -231h-112l99 240l30 152h178z" horiz-adv-x="638" unicode="ľ"/><glyph d="M350 227h502l-45 -227h-785l291 1456h283zM808 680h-287l48 241h287z" horiz-adv-x="927" unicode="Ŀ"/><glyph d="M299 0h-281l312 1560h281zM776 628h-287l48 241h287z" horiz-adv-x="708" unicode="ŀ"/><glyph d="M474 894l193 62l-38 -191l-193 -62l-95 -476h502l-45 -227h-785l121 605l-84 -27l38 191l84 27l132 660h283z" horiz-adv-x="857" unicode="Ł"/><glyph d="M495 916l115 42l-39 -191l-114 -41l-145 -726h-281l123 616l-101 -36l38 191l101 36l151 753h281z" horiz-adv-x="522" unicode="ł"/><glyph d="M999 0h-281l-226 907h-6l-181 -907h-283l291 1456h283l226 -905h6l181 905h281zM892 1826h295l2 -6l-280 -260h-226z" horiz-adv-x="1193" unicode="Ń"/><glyph d="M463 944q57 76 127 117t145 41q120 0 176.5 -106t13.5 -325l-134 -671h-283l134 671q24 119 5 161t-81 42q-32 0 -64 -20t-61 -55l-159 -799h-282l216 1082h263zM710 1504h295l2 -6l-280 -260h-226z" unicode="ń"/><glyph d="M999 0h-281l-226 907h-6l-181 -907h-283l291 1456h283l226 -905h6l181 905h281zM542 -258l-163 -231h-112l99 240l30 152h178z" horiz-adv-x="1193" unicode="Ņ"/><glyph d="M463 944q57 76 127 117t145 41q120 0 176.5 -106t13.5 -325l-134 -671h-283l134 671q24 119 5 161t-81 42q-32 0 -64 -20t-61 -55l-159 -799h-282l216 1082h263zM424 -258l-163 -231h-112l99 240l30 152h178z" unicode="ņ"/><glyph d="M999 0h-281l-226 907h-6l-181 -907h-283l291 1456h283l226 -905h6l181 905h281zM859 1745l105 127h254l-3 -17l-291 -253h-189l-188 255l3 15h253z" horiz-adv-x="1193" unicode="Ň"/><glyph d="M463 944q57 76 127 117t145 41q120 0 176.5 -106t13.5 -325l-134 -671h-283l134 671q24 119 5 161t-81 42q-32 0 -64 -20t-61 -55l-159 -799h-282l216 1082h263zM677 1423l105 127h254l-3 -17l-291 -253h-189l-188 255l3 15h253z" unicode="ň"/><glyph d="M463 944q57 76 127 117t145 41q120 0 176.5 -106t13.5 -325l-134 -671h-283l134 671q24 119 5 161t-81 42q-32 0 -64 -20t-61 -55l-159 -799h-282l216 1082h263zM411 1397l-163 -231h-112l99 240l30 152h178z" unicode="ŉ"/><glyph d="M1288 1456l-298 -1489q-41 -206 -146 -305t-263 -99q-32 0 -62 4.5t-61 13.5l56 222q20 -6 37.5 -9t40.5 -3q37 0 68.5 46t48.5 130l7 33v1l-229 891h-6l-178 -892h-283l291 1456h283l229 -892h6l178 892h281z" horiz-adv-x="1186" unicode="Ŋ"/><glyph d="M463 946q57 75 126.5 115.5t144.5 40.5q121 0 176.5 -109.5t10.5 -336.5l-138 -689q-41 -206 -146 -305t-263 -99q-31 0 -60.5 4.5t-59.5 13.5l56 224q21 -6 37 -9.5t38 -3.5q36 0 67 45.5t48 129.5l138 689q25 128 10.5 173t-67.5 45q-36 0 -72 -21t-67 -57l-159 -796 h-283l216 1082h263z" unicode="ŋ"/><glyph d="M1114 596q-58 -289 -218 -453t-384 -164q-209 0 -330 179.5t-68 441.5l52 259q58 290 212.5 454t376.5 164q211 0 337 -181t74 -441zM885 857q36 177 -14.5 284t-160.5 107q-94 0 -161.5 -106t-102.5 -281l-52 -261q-36 -180 9 -286.5t154 -106.5q95 0 168 107.5 t108 281.5zM1121 1638h-629l25 160h629z" horiz-adv-x="1121" unicode="Ō"/><glyph d="M87 607q36 226 166.5 360.5t332.5 134.5q191 0 283.5 -140t58.5 -355l-21 -134q-37 -228 -168 -361t-331 -133q-193 0 -285.5 138.5t-56.5 355.5zM346 473q-21 -130 -1.5 -198.5t99.5 -68.5q73 0 117 72t64 195l21 134q20 127 0.5 197t-96.5 70q-74 0 -119.5 -73.5 t-63.5 -193.5zM931 1297h-629l25 160h629z" unicode="ō"/><glyph d="M1114 596q-58 -289 -218 -453t-384 -164q-209 0 -330 179.5t-68 441.5l52 259q58 290 212.5 454t376.5 164q211 0 337 -181t74 -441zM885 857q36 177 -14.5 284t-160.5 107q-94 0 -161.5 -106t-102.5 -281l-52 -261q-36 -180 9 -286.5t154 -106.5q95 0 168 107.5 t108 281.5zM1148 1918l2 -6q-17 -134 -111 -212t-235 -78q-136 0 -208.5 81.5t-47.5 209.5l2 5h206q-9 -54 9 -87.5t67 -33.5q45 0 73 34t37 87h206z" horiz-adv-x="1121" unicode="Ŏ"/><glyph d="M87 607q36 226 166.5 360.5t332.5 134.5q191 0 283.5 -140t58.5 -355l-21 -134q-37 -228 -168 -361t-331 -133q-193 0 -285.5 138.5t-56.5 355.5zM346 473q-21 -130 -1.5 -198.5t99.5 -68.5q73 0 117 72t64 195l21 134q20 127 0.5 197t-96.5 70q-74 0 -119.5 -73.5 t-63.5 -193.5zM958 1575l2 -6q-17 -134 -111 -212t-235 -78q-136 0 -208.5 81.5t-47.5 209.5l2 5h206q-9 -54 9 -87.5t67 -33.5q45 0 73 34t37 87h206z" unicode="ŏ"/><glyph d="M1114 596q-58 -289 -218 -453t-384 -164q-209 0 -330 179.5t-68 441.5l52 259q58 290 212.5 454t376.5 164q211 0 337 -181t74 -441zM885 857q36 177 -14.5 284t-160.5 107q-94 0 -161.5 -106t-102.5 -281l-52 -261q-36 -180 9 -286.5t154 -106.5q95 0 168 107.5 t108 281.5zM1068 1888h260l2 -6l-279 -260h-220l-2 5zM731 1888h257l3 -6l-246 -260h-224z" horiz-adv-x="1121" unicode="Ő"/><glyph d="M87 607q36 226 166.5 360.5t332.5 134.5q191 0 283.5 -140t58.5 -355l-21 -134q-37 -228 -168 -361t-331 -133q-193 0 -285.5 138.5t-56.5 355.5zM346 473q-21 -130 -1.5 -198.5t99.5 -68.5q73 0 117 72t64 195l21 134q20 127 0.5 197t-96.5 70q-74 0 -119.5 -73.5 t-63.5 -193.5zM878 1545h260l2 -6l-279 -260h-220l-2 5zM541 1545h257l3 -6l-246 -260h-224z" unicode="ő"/><glyph d="M1487 0h-749q-74 -10 -126.5 -15.5t-104.5 -5.5q-211 0 -326 168.5t-63 428.5l61 304q56 282 225.5 439.5t400.5 157.5q49 0 108 -6t116 -15h747l-45 -228h-541l-72 -362h460l-45 -227h-460l-83 -412h542zM552 206q34 0 73 3t80 9l204 1019q-37 6 -74.5 9.5t-74.5 3.5 q-100 0 -182.5 -96.5t-117.5 -271.5l-61 -306q-38 -191 3 -280.5t150 -89.5z" horiz-adv-x="1644" unicode="Œ"/><glyph d="M101 551q52 260 189.5 405.5t339.5 145.5q80 0 143.5 -31.5t106.5 -88.5q61 58 137 89t163 31q171 0 249.5 -133t35.5 -353l-32 -161h-501q-16 -117 14 -183t113 -66q69 0 125 19t128 59l35 -181q-64 -53 -161.5 -88.5t-205.5 -35.5q-81 0 -146 32t-109 91 q-66 -61 -146 -92t-172 -31q-186 0 -272 155t-38 395zM379 529q-32 -159 -19 -240t90 -75l6 -1q68 -5 119 82.5t81 233.5l4 22q31 156 17.5 238t-90.5 77l-6 1q-68 4 -119 -85t-79 -231zM1135 874q-51 0 -92 -62t-70 -167h222l5 27q20 102 6 152t-71 50z" horiz-adv-x="1504" unicode="œ"/><glyph d="M421 579l-116 -579h-282l291 1455h457q192 0 293 -115.5t62 -313.5q-25 -123 -89.5 -202.5t-169.5 -127.5q95 -40 127.5 -129.5t7.5 -214.5l-20 -103q-13 -64 -13 -130.5t27 -97.5l-4 -21h-292q-27 31 -21.5 100t21.5 151l20 99q23 116 -5.5 172.5t-105.5 56.5h-188z M466 806h174q72 0 126.5 54t74.5 150q21 106 -7.5 162t-107.5 56h-175zM822 1826h295l2 -6l-280 -260h-226z" horiz-adv-x="1118" unicode="Ŕ"/><glyph d="M662 823l-104 3q-38 0 -69 -22.5t-54 -62.5l-148 -741h-282l216 1082h263l-16 -132l5 -3q38 74 89 114.5t109 40.5q17 0 37.5 -3.5t35.5 -8.5zM577 1504h295l2 -6l-280 -260h-226z" horiz-adv-x="638" unicode="ŕ"/><glyph d="M421 579l-116 -579h-282l291 1455h457q192 0 293 -115.5t62 -313.5q-25 -123 -89.5 -202.5t-169.5 -127.5q95 -40 127.5 -129.5t7.5 -214.5l-20 -103q-13 -64 -13 -130.5t27 -97.5l-4 -21h-292q-27 31 -21.5 100t21.5 151l20 99q23 116 -5.5 172.5t-105.5 56.5h-188z M466 806h174q72 0 126.5 54t74.5 150q21 106 -7.5 162t-107.5 56h-175zM472 -258l-163 -231h-112l99 240l30 152h178z" horiz-adv-x="1118" unicode="Ŗ"/><glyph d="M662 823l-104 3q-38 0 -69 -22.5t-54 -62.5l-148 -741h-282l216 1082h263l-16 -132l5 -3q38 74 89 114.5t109 40.5q17 0 37.5 -3.5t35.5 -8.5zM192 -258l-163 -231h-112l99 240l30 152h178z" horiz-adv-x="638" unicode="ŗ"/><glyph d="M421 579l-116 -579h-282l291 1455h457q192 0 293 -115.5t62 -313.5q-25 -123 -89.5 -202.5t-169.5 -127.5q95 -40 127.5 -129.5t7.5 -214.5l-20 -103q-13 -64 -13 -130.5t27 -97.5l-4 -21h-292q-27 31 -21.5 100t21.5 151l20 99q23 116 -5.5 172.5t-105.5 56.5h-188z M466 806h174q72 0 126.5 54t74.5 150q21 106 -7.5 162t-107.5 56h-175zM789 1745l105 127h254l-3 -17l-291 -253h-189l-188 255l3 15h253z" horiz-adv-x="1118" unicode="Ř"/><glyph d="M662 823l-104 3q-38 0 -69 -22.5t-54 -62.5l-148 -741h-282l216 1082h263l-16 -132l5 -3q38 74 89 114.5t109 40.5q17 0 37.5 -3.5t35.5 -8.5zM546 1423l105 127h254l-3 -17l-291 -253h-189l-188 255l3 15h253z" horiz-adv-x="638" unicode="ř"/><glyph d="M708 353q19 99 -16.5 148.5t-144.5 108.5q-201 82 -292.5 195.5t-55.5 294.5q36 180 171 278.5t321 98.5q198 0 306 -120t63 -326l-2 -5h-275q20 102 -18 162.5t-119 60.5q-54 0 -103 -43t-61 -104q-19 -94 21 -140t176 -113q185 -77 267 -191t44 -303 q-38 -187 -171 -281.5t-321 -94.5q-194 0 -324.5 108.5t-80.5 336.5l2 5h275q-26 -127 28.5 -175t144.5 -48q52 0 102 42.5t63 104.5zM837 1847h295l2 -6l-280 -260h-226z" horiz-adv-x="1071" unicode="Ś"/><glyph d="M510 283q8 48 -19.5 80t-115.5 82q-146 61 -212 138t-46 200q22 137 136 228t282 91q166 0 256.5 -97t63.5 -244l-3 -6h-272q10 70 -8 109t-70 39q-38 0 -73 -31.5t-41 -74.5q-9 -49 15.5 -77.5t116.5 -80.5q154 -58 219 -137.5t45 -208.5q-24 -143 -141.5 -228.5 t-291.5 -85.5q-173 0 -263 110t-65 246l2 5h259q-12 -87 15.5 -124.5t89.5 -37.5q48 0 80.5 28.5t40.5 76.5zM628 1504h295l2 -6l-280 -260h-226z" horiz-adv-x="857" unicode="ś"/><glyph d="M708 353q19 99 -16.5 148.5t-144.5 108.5q-201 82 -292.5 195.5t-55.5 294.5q36 180 171 278.5t321 98.5q198 0 306 -120t63 -326l-2 -5h-275q20 102 -18 162.5t-119 60.5q-54 0 -103 -43t-61 -104q-19 -94 21 -140t176 -113q185 -77 267 -191t44 -303 q-38 -187 -171 -281.5t-321 -94.5q-194 0 -324.5 108.5t-80.5 336.5l2 5h275q-26 -127 28.5 -175t144.5 -48q52 0 102 42.5t63 104.5zM1103 1634l-5 -22h-219l-80 134l-132 -134h-214l5 25l290 237h155z" horiz-adv-x="1071" unicode="Ŝ"/><glyph d="M510 283q8 48 -19.5 80t-115.5 82q-146 61 -212 138t-46 200q22 137 136 228t282 91q166 0 256.5 -97t63.5 -244l-3 -6h-272q10 70 -8 109t-70 39q-38 0 -73 -31.5t-41 -74.5q-9 -49 15.5 -77.5t116.5 -80.5q154 -58 219 -137.5t45 -208.5q-24 -143 -141.5 -228.5 t-291.5 -85.5q-173 0 -263 110t-65 246l2 5h259q-12 -87 15.5 -124.5t89.5 -37.5q48 0 80.5 28.5t40.5 76.5zM896 1291l-5 -22h-219l-80 134l-132 -134h-214l5 25l290 237h155z" horiz-adv-x="857" unicode="ŝ"/><glyph d="M708 353q19 99 -16.5 148.5t-144.5 108.5q-201 82 -292.5 195.5t-55.5 294.5q36 180 171 278.5t321 98.5q198 0 306 -120t63 -326l-2 -5h-275q20 102 -18 162.5t-119 60.5q-54 0 -103 -43t-61 -104q-19 -94 21 -140t176 -113q185 -77 267 -191t44 -303 q-38 -187 -171 -281.5t-321 -94.5q-194 0 -324.5 108.5t-80.5 336.5l2 5h275q-26 -127 28.5 -175t144.5 -48q52 0 102 42.5t63 104.5zM577 -1l-20 -59q45 -11 69.5 -52.5t9.5 -120.5q-24 -115 -110.5 -175t-226.5 -58l-5 4l26 155q28 0 49 21t30 63q8 45 -11 60.5t-76 20.5 l54 141h211z" horiz-adv-x="1071" unicode="Ş"/><glyph d="M510 283q8 48 -19.5 80t-115.5 82q-146 61 -212 138t-46 200q22 137 136 228t282 91q166 0 256.5 -97t63.5 -244l-3 -6h-272q10 70 -8 109t-70 39q-38 0 -73 -31.5t-41 -74.5q-9 -49 15.5 -77.5t116.5 -80.5q154 -58 219 -137.5t45 -208.5q-24 -143 -141.5 -228.5 t-291.5 -85.5q-173 0 -263 110t-65 246l2 5h259q-12 -87 15.5 -124.5t89.5 -37.5q48 0 80.5 28.5t40.5 76.5zM471 0l-20 -59q45 -11 69.5 -52.5t9.5 -120.5q-24 -115 -110.5 -175t-226.5 -58l-5 4l26 155q28 0 49 21t30 63q8 45 -11 60.5t-76 20.5l54 141h211z" horiz-adv-x="857" unicode="ş"/><glyph d="M708 353q19 99 -16.5 148.5t-144.5 108.5q-201 82 -292.5 195.5t-55.5 294.5q36 180 171 278.5t321 98.5q198 0 306 -120t63 -326l-2 -5h-275q20 102 -18 162.5t-119 60.5q-54 0 -103 -43t-61 -104q-19 -94 21 -140t176 -113q185 -77 267 -191t44 -303 q-38 -187 -171 -281.5t-321 -94.5q-194 0 -324.5 108.5t-80.5 336.5l2 5h275q-26 -127 28.5 -175t144.5 -48q52 0 102 42.5t63 104.5zM804 1766l105 127h254l-3 -17l-291 -253h-189l-188 255l3 15h253z" horiz-adv-x="1071" unicode="Š"/><glyph d="M510 283q8 48 -19.5 80t-115.5 82q-146 61 -212 138t-46 200q22 137 136 228t282 91q166 0 256.5 -97t63.5 -244l-3 -6h-272q10 70 -8 109t-70 39q-38 0 -73 -31.5t-41 -74.5q-9 -49 15.5 -77.5t116.5 -80.5q154 -58 219 -137.5t45 -208.5q-24 -143 -141.5 -228.5 t-291.5 -85.5q-173 0 -263 110t-65 246l2 5h259q-12 -87 15.5 -124.5t89.5 -37.5q48 0 80.5 28.5t40.5 76.5zM597 1423l105 127h254l-3 -17l-291 -253h-189l-188 255l3 15h253z" horiz-adv-x="857" unicode="š"/><glyph d="M1086 1228h-308l-245 -1228h-281l245 1228h-304l45 228h893zM427 -258l-163 -231h-112l99 240l30 152h178z" horiz-adv-x="955" unicode="Ţ"/><glyph d="M608 1351l-54 -269h140l-41 -206h-140l-108 -543q-15 -71 -3 -97t43 -26q23 0 41 2.5t40 8.5l-22 -216q-47 -14 -87 -20t-91 -6q-125 0 -182.5 86t-21.5 267l109 544h-120l41 206h120l54 269h282zM307 -258l-163 -231h-112l99 240l30 152h178z" horiz-adv-x="632" unicode="ţ"/><glyph d="M1086 1228h-308l-245 -1228h-281l245 1228h-304l45 228h893zM745 1744l105 127h254l-3 -17l-291 -253h-189l-188 255l3 15h253z" horiz-adv-x="955" unicode="Ť"/><glyph d="M608 1351l-54 -269h140l-41 -206h-140l-108 -543q-15 -71 -3 -97t43 -26q23 0 41 2.5t40 8.5l-22 -216q-47 -14 -87 -20t-91 -6q-125 0 -182.5 86t-21.5 267l109 544h-120l41 206h120l54 269h282zM945 1424l-163 -231h-112l99 240l30 152h178z" horiz-adv-x="672" unicode="ť"/><glyph d="M830 749h-148l-149 -749h-281l149 749h-128l35 175h128l61 304h-304l45 228h893l-45 -228h-308l-61 -304h148z" horiz-adv-x="955" unicode="Ŧ"/><glyph d="M608 1351l-54 -269h140l-41 -206h-140l-33 -168h134l-35 -175h-134l-40 -200q-15 -71 -3 -97t43 -26q23 0 41 2.5t40 8.5l-22 -216q-47 -14 -87 -20t-91 -6q-125 0 -182.5 86t-21.5 267l40 201h-140l35 175h140l33 168h-119l41 206h120l54 269h282z" horiz-adv-x="632" unicode="ŧ"/><glyph d="M1246 1456l-198 -991q-50 -248 -201.5 -367t-369.5 -119q-200 0 -311.5 128.5t-65.5 357.5l198 991h281l-198 -991q-28 -141 9 -200t132 -59q89 0 153.5 61t91.5 198l198 991h281zM1155 1854q-17 -99 -75.5 -163.5t-135.5 -64.5q-53 0 -121 44t-110 44q-24 0 -47.5 -33 t-30.5 -79l-140 43q15 96 74.5 162.5t135.5 66.5q40 0 114.5 -44t117.5 -44q24 0 48 33t32 80z" horiz-adv-x="1131" unicode="Ũ"/><glyph d="M542 0l7 114q-54 -67 -120 -101t-141 -34q-129 0 -189.5 111.5t-14.5 337.5l130 654h282l-131 -656q-25 -122 -10.5 -170.5t65.5 -48.5q40 0 76 18t66 52l161 805h283l-216 -1082h-248zM999 1511q-17 -99 -75.5 -163.5t-135.5 -64.5q-53 0 -121 44t-110 44 q-24 0 -47.5 -33t-30.5 -79l-140 43q15 96 74.5 162.5t135.5 66.5q40 0 114.5 -44t117.5 -44q24 0 48 33t32 80z" unicode="ũ"/><glyph d="M1246 1456l-198 -991q-50 -248 -201.5 -367t-369.5 -119q-200 0 -311.5 128.5t-65.5 357.5l198 991h281l-198 -991q-28 -141 9 -200t132 -59q89 0 153.5 61t91.5 198l198 991h281zM1118 1617h-629l25 160h629z" horiz-adv-x="1131" unicode="Ū"/><glyph d="M542 0l7 114q-54 -67 -120 -101t-141 -34q-129 0 -189.5 111.5t-14.5 337.5l130 654h282l-131 -656q-25 -122 -10.5 -170.5t65.5 -48.5q40 0 76 18t66 52l161 805h283l-216 -1082h-248zM962 1276h-629l25 160h629z" unicode="ū"/><glyph d="M1246 1456l-198 -991q-50 -248 -201.5 -367t-369.5 -119q-200 0 -311.5 128.5t-65.5 357.5l198 991h281l-198 -991q-28 -141 9 -200t132 -59q89 0 153.5 61t91.5 198l198 991h281zM1145 1897l2 -6q-17 -134 -111 -212t-235 -78q-136 0 -208.5 81.5t-47.5 209.5l2 5h206 q-9 -54 9 -87.5t67 -33.5q45 0 73 34t37 87h206z" horiz-adv-x="1131" unicode="Ŭ"/><glyph d="M542 0l7 114q-54 -67 -120 -101t-141 -34q-129 0 -189.5 111.5t-14.5 337.5l130 654h282l-131 -656q-25 -122 -10.5 -170.5t65.5 -48.5q40 0 76 18t66 52l161 805h283l-216 -1082h-248zM989 1554l2 -6q-17 -134 -111 -212t-235 -78q-136 0 -208.5 81.5t-47.5 209.5l2 5 h206q-9 -54 9 -87.5t67 -33.5q45 0 73 34t37 87h206z" unicode="ŭ"/><glyph d="M1246 1456l-198 -991q-50 -248 -201.5 -367t-369.5 -119q-200 0 -311.5 128.5t-65.5 357.5l198 991h281l-198 -991q-28 -141 9 -200t132 -59q89 0 153.5 61t91.5 198l198 991h281zM640 1739q16 85 80.5 137.5t145.5 52.5q72 0 117 -55.5t30 -134.5q-18 -87 -80 -136.5 t-142 -49.5q-75 0 -121.5 53.5t-29.5 132.5zM746 1739q-9 -45 8.5 -70t54.5 -25q34 0 62 26.5t37 68.5q8 46 -8 71.5t-53 25.5q-34 0 -63.5 -27.5t-37.5 -69.5z" horiz-adv-x="1131" unicode="Ů"/><glyph d="M542 0l7 114q-54 -67 -120 -101t-141 -34q-129 0 -189.5 111.5t-14.5 337.5l130 654h282l-131 -656q-25 -122 -10.5 -170.5t65.5 -48.5q40 0 76 18t66 52l161 805h283l-216 -1082h-248zM484 1396q16 85 80.5 137.5t145.5 52.5q72 0 117 -55.5t30 -134.5 q-18 -87 -80 -136.5t-142 -49.5q-75 0 -121.5 53.5t-29.5 132.5zM590 1396q-9 -45 8.5 -70t54.5 -25q34 0 62 26.5t37 68.5q8 46 -8 71.5t-53 25.5q-34 0 -63.5 -27.5t-37.5 -69.5z" unicode="ů"/><glyph d="M1246 1456l-198 -991q-50 -248 -201.5 -367t-369.5 -119q-200 0 -311.5 128.5t-65.5 357.5l198 991h281l-198 -991q-28 -141 9 -200t132 -59q89 0 153.5 61t91.5 198l198 991h281zM1065 1867h260l2 -6l-279 -260h-220l-2 5zM728 1867h257l3 -6l-246 -260h-224z" horiz-adv-x="1131" unicode="Ű"/><glyph d="M542 0l7 114q-54 -67 -120 -101t-141 -34q-129 0 -189.5 111.5t-14.5 337.5l130 654h282l-131 -656q-25 -122 -10.5 -170.5t65.5 -48.5q40 0 76 18t66 52l161 805h283l-216 -1082h-248zM909 1524h260l2 -6l-279 -260h-220l-2 5zM572 1524h257l3 -6l-246 -260h-224z" unicode="ű"/><glyph d="M1246 1456l-198 -991q-50 -248 -201.5 -367t-369.5 -119q-200 0 -311.5 128.5t-65.5 357.5l198 991h281l-198 -991q-28 -141 9 -200t132 -59q89 0 153.5 61t91.5 198l198 991h281zM724 0q-47 -52 -71 -88.5t-34 -85.5q-5 -25 3.5 -45.5t50.5 -20.5q20 0 38.5 6t38.5 14 l1 -151q-34 -19 -74.5 -31.5t-92.5 -12.5q-90 0 -143.5 55.5t-34.5 151.5q17 81 65 146t138 118z" horiz-adv-x="1131" unicode="Ų"/><glyph d="M542 0l7 114q-54 -67 -120 -101t-141 -34q-129 0 -189.5 111.5t-14.5 337.5l130 654h282l-131 -656q-25 -122 -10.5 -170.5t65.5 -48.5q40 0 76 18t66 52l161 805h283l-216 -1082h-248zM700 0q-47 -52 -71 -88.5t-34 -85.5q-5 -25 3.5 -45.5t50.5 -20.5q20 0 38.5 6 t38.5 14l1 -151q-34 -19 -74.5 -31.5t-92.5 -12.5q-90 0 -143.5 55.5t-34.5 151.5q17 81 65 146t138 118z" unicode="ų"/><glyph d="M1056 556h6l287 900h273l-498 -1456h-263l-50 863h-6l-325 -863h-261l-32 1456h273v-898l6 -1l336 899h202zM1255 1613l-5 -22h-219l-80 134l-132 -134h-214l5 25l290 237h155z" horiz-adv-x="1484" unicode="Ŵ"/><glyph d="M856 498l6 -1l207 585h261l-426 -1082h-234l-26 562l-6 1l-251 -563h-235l5 1082h262l-26 -585l6 -2l254 587h182zM1107 1272l-5 -22h-219l-80 134l-132 -134h-214l5 25l290 237h155z" horiz-adv-x="1228" unicode="ŵ"/><glyph d="M624 849l5 -1l344 608h307l-583 -939l-103 -517h-281l108 539l-204 917h308zM1113 1612l-5 -22h-219l-80 134l-132 -134h-214l5 25l290 237h155z" horiz-adv-x="1085" unicode="Ŷ"/><glyph d="M431 467l6 -2l264 617h301l-595 -1245q-62 -116 -143.5 -195t-217.5 -79q-32 0 -59 6t-68 18l76 212q13 -3 21 -4.5t16 -1.5q54 0 92 33.5t61 84.5l38 78l-84 1093h303zM932 1272l-5 -22h-219l-80 134l-132 -134h-214l5 25l290 237h155z" horiz-adv-x="880" unicode="ŷ"/><glyph d="M624 849l5 -1l344 608h307l-583 -939l-103 -517h-281l108 539l-204 917h308zM1124 1605h-245l32 198h245zM694 1605h-245l32 198h245z" horiz-adv-x="1085" unicode="Ÿ"/><glyph d="M357 227h514l-45 -227h-814l-7 143l670 1086h-439l45 227h777l-27 -138zM776 1828h295l2 -6l-280 -260h-226z" horiz-adv-x="959" unicode="Ź"/><glyph d="M344 227h398l-45 -227h-715l34 169l526 685h-379l45 228h700l-33 -165zM650 1483h295l2 -6l-280 -260h-226z" horiz-adv-x="854" unicode="ź"/><glyph d="M357 227h514l-45 -227h-814l-7 143l670 1086h-439l45 227h777l-27 -138zM855 1609h-287l48 241h287z" horiz-adv-x="959" unicode="Ż"/><glyph d="M344 227h398l-45 -227h-715l34 169l526 685h-379l45 228h700l-33 -165zM729 1264h-287l48 241h287z" horiz-adv-x="854" unicode="ż"/><glyph d="M357 227h514l-45 -227h-814l-7 143l670 1086h-439l45 227h777l-27 -138zM743 1747l105 127h254l-3 -17l-291 -253h-189l-188 255l3 15h253z" horiz-adv-x="959" unicode="Ž"/><glyph d="M344 227h398l-45 -227h-715l34 169l526 685h-379l45 228h700l-33 -165zM617 1402l105 127h254l-3 -17l-291 -253h-189l-188 255l3 15h253z" horiz-adv-x="854" unicode="ž"/><glyph d="M7 0l240 1202q39 194 146.5 286.5t276.5 92.5q28 0 61.5 -6t70.5 -15l-66 -217q-20 5 -35.5 7.5t-38.5 2.5q-47 0 -83 -40t-50 -111l-240 -1202h-282z" horiz-adv-x="472" unicode="ſ"/><glyph d="M657 876h-159l-145 -909q-33 -201 -135.5 -302.5t-259.5 -101.5q-32 0 -60.5 4.5t-58.5 13.5l46 222q17 -6 35.5 -9t40.5 -3q39 0 67 45.5t43 130.5l145 909h-125l33 206h125l19 120q30 189 135.5 284t272.5 95q31 0 63.5 -5.5t69.5 -15.5l-57 -218q-19 4 -36.5 7 t-39.5 3q-49 0 -82 -39t-44 -111l-19 -120h159z" horiz-adv-x="641" unicode="ƒ"/><glyph d="M1068 523q-55 -273 -212.5 -408.5t-383.5 -135.5q-207 0 -317 146t-59 398l81 408q54 272 211 409t382 137q111 0 199 -46.5t138 -132.5q77 35 132.5 114.5t78.5 194.5h199q-41 -203 -130.5 -326.5t-224.5 -172.5q3 -41 -0.5 -85.5t-12.5 -91.5zM869 933q32 167 -4.5 241 t-139.5 74q-96 0 -167 -80.5t-101 -234.5l-82 -410q-34 -168 2 -242t140 -74q94 0 166 80.5t104 235.5z" horiz-adv-x="1186" unicode="Ơ"/><glyph d="M85 607q36 226 166.5 360.5t332.5 134.5q91 0 162 -35t117 -98q49 39 85 107t54 160h196q-32 -157 -101.5 -258t-173.5 -148q10 -52 11 -108t-8 -115l-21 -134q-37 -228 -168 -361t-331 -133q-193 0 -285.5 138.5t-56.5 355.5zM344 473q-21 -130 -1.5 -198.5t99.5 -68.5 q73 0 117 72t64 195l21 134q20 127 0.5 197t-96.5 70q-74 0 -119.5 -73.5t-63.5 -193.5z" horiz-adv-x="998" unicode="ơ"/><glyph d="M1246 1456l-37 -185l5 -2q73 13 121 99t79 241h191l2 -5q-48 -255 -151 -381t-285 -144l-123 -614q-50 -248 -201.5 -367t-369.5 -119q-200 0 -311.5 128.5t-65.5 357.5l198 991h281l-198 -991q-28 -141 9 -200t132 -59q89 0 153.5 61t91.5 198l198 991h281z" horiz-adv-x="1221" unicode="Ư"/><glyph d="M1272 1186l2 -5q-31 -170 -109 -261.5t-215 -118.5l-160 -801h-248l7 114q-54 -67 -120 -101t-141 -34q-129 0 -189.5 111.5t-14.5 337.5l130 654h282l-131 -656q-25 -122 -10.5 -170.5t65.5 -48.5q40 0 76 18t66 52l161 805h283l-19 -95l6 -2q37 15 64.5 66.5 t44.5 134.5h170z" horiz-adv-x="1046" unicode="ư"/><glyph d="M537 1082l-223 -1115q-41 -206 -145.5 -305t-262.5 -99q-31 0 -60 4.5t-61 13.5l58 222q19 -6 35.5 -9t38.5 -3q37 0 68 46t48 130l223 1115h281zM441 1397l105 127h254l-3 -17l-291 -253h-189l-188 255l3 15h253z" horiz-adv-x="521" unicode="ǰ"/><glyph d="M706 309h-351l-136 -309h-284l679 1456h293l96 -1456h-284zM455 538h242l-19 491l-6 1zM975 2148h239l2 -6l-273 -212h-165l-3 6zM631 1695q16 83 77 134t138 51q68 0 109.5 -54t26.5 -131q-17 -84 -75.5 -132.5t-133.5 -48.5q-71 0 -114.5 52t-27.5 129zM734 1695 q-9 -41 7.5 -64.5t50.5 -23.5q28 0 53 25t33 63q8 43 -5.5 67.5t-44.5 24.5t-58.5 -26.5t-35.5 -65.5z" horiz-adv-x="1095" unicode="Ǻ"/><glyph d="M504 0q-6 27 -8.5 58t-2.5 64q-50 -65 -110.5 -104t-131.5 -39q-120 0 -183.5 89.5t-34.5 233.5q34 170 146 252.5t309 82.5h96l18 88q16 84 0 124t-68 40q-39 0 -68 -35t-41 -98l-273 1l-2 6q26 151 148 245t297 94q152 0 238.5 -100t51.5 -279l-88 -438 q-17 -84 -19.5 -150t6.5 -135h-280zM376 193q36 0 72.5 22t63.5 58l40 201h-96q-53 0 -89 -45.5t-49 -113.5q-12 -58 4 -90t54 -32zM807 1826h239l2 -6l-273 -212h-165l-3 6zM463 1373q16 83 77 134t138 51q68 0 109.5 -54t26.5 -131q-17 -84 -75.5 -132.5t-133.5 -48.5 q-71 0 -114.5 52t-27.5 129zM566 1373q-9 -41 7.5 -64.5t50.5 -23.5q28 0 53 25t33 63q8 43 -5.5 67.5t-44.5 24.5t-58.5 -26.5t-35.5 -65.5z" horiz-adv-x="911" unicode="ǻ"/><glyph d="M1440 0h-744l56 339h-301l-196 -339h-328l895 1456h860l-46 -231h-454l-60 -363h375l-46 -230h-368l-67 -402h470zM792 578l79 474l-5 2l-276 -476h202zM1057 1826h295l2 -6l-280 -260h-226z" horiz-adv-x="1593" unicode="Ǽ"/><glyph d="M922 -21q-96 0 -168.5 39t-115.5 112q-62 -66 -151 -108.5t-198 -42.5q-151 0 -225 92.5t-44 245.5q34 169 154.5 250.5t328.5 81.5h124l11 56q16 84 -1.5 126.5t-65.5 42.5q-47 0 -85.5 -37.5t-48.5 -91.5l-268 17l-2 6q26 154 148.5 244t303.5 90q72 0 132.5 -22 t102.5 -65q58 43 127.5 65t149.5 22q162 0 241 -133.5t35 -353.5l-32 -160h-505q-20 -123 9.5 -186t121.5 -63q68 0 122.5 19.5t123.5 58.5l33 -183q-59 -49 -158 -85.5t-200 -36.5zM385 184q34 0 83 27t84 64l38 191h-122q-60 0 -107.5 -45.5t-59.5 -107.5q-13 -64 7 -96.5 t77 -32.5zM1086 874q-62 0 -104.5 -61t-71.5 -169h228l5 27q20 100 6.5 151.5t-63.5 51.5zM942 1505h295l2 -6l-280 -260h-226z" horiz-adv-x="1420" unicode="ǽ"/><glyph d="M1073 523q-55 -273 -212.5 -408.5t-383.5 -135.5q-57 0 -108.5 12t-95.5 36l-79 -120h-125l121 182q-69 71 -93.5 181.5t4.5 252.5l81 408q54 272 211 409t382 137q80 0 150 -25t122 -72l91 136h126l-149 -223q39 -71 49.5 -162.5t-10.5 -199.5zM380 523 q-11 -53 -14.5 -94t0.5 -65l6 -2l511 771q-13 59 -51 87t-102 28q-96 0 -167 -80.5t-101 -234.5zM870 913l-6 2l-450 -676q19 -17 46 -24.5t62 -7.5q94 0 166 80.5t104 235.5zM901 1888h295l2 -6l-280 -260h-226z" horiz-adv-x="1170" unicode="Ǿ"/><glyph d="M87 607q36 226 166.5 360.5t332.5 134.5q44 0 84 -8.5t75 -24.5l88 148h150l-135 -227q57 -67 77.5 -166t2.5 -217l-21 -134q-37 -228 -168 -361t-331 -133q-41 0 -77.5 7t-67.5 19l-87 -148h-148l129 218q-64 66 -88 169.5t-3 228.5zM346 473q-5 -28 -7.5 -50.5 t-1.5 -33.5l5 -2l275 465q-14 10 -30.5 16t-36.5 6q-74 0 -119.5 -73.5t-63.5 -193.5zM646 607q2 13 3.5 25t1.5 15l-6 2l-255 -431q10 -6 23.5 -9t30.5 -3q73 0 117 72t64 195zM684 1499h295l2 -6l-280 -260h-226z" horiz-adv-x="962" unicode="ǿ"/><glyph d="M708 353q19 99 -16.5 148.5t-144.5 108.5q-201 82 -292.5 195.5t-55.5 294.5q36 180 171 278.5t321 98.5q198 0 306 -120t63 -326l-2 -5h-275q20 102 -18 162.5t-119 60.5q-54 0 -103 -43t-61 -104q-19 -94 21 -140t176 -113q185 -77 267 -191t44 -303 q-38 -187 -171 -281.5t-321 -94.5q-194 0 -324.5 108.5t-80.5 336.5l2 5h275q-26 -127 28.5 -175t144.5 -48q52 0 102 42.5t63 104.5zM497 -258l-163 -231h-112l99 240l30 152h178z" horiz-adv-x="1071" unicode="Ș"/><glyph d="M510 283q8 48 -19.5 80t-115.5 82q-146 61 -212 138t-46 200q22 137 136 228t282 91q166 0 256.5 -97t63.5 -244l-3 -6h-272q10 70 -8 109t-70 39q-38 0 -73 -31.5t-41 -74.5q-9 -49 15.5 -77.5t116.5 -80.5q154 -58 219 -137.5t45 -208.5q-24 -143 -141.5 -228.5 t-291.5 -85.5q-173 0 -263 110t-65 246l2 5h259q-12 -87 15.5 -124.5t89.5 -37.5q48 0 80.5 28.5t40.5 76.5zM391 -258l-163 -231h-112l99 240l30 152h178z" horiz-adv-x="857" unicode="ș"/><glyph d="M1086 1228h-308l-245 -1228h-281l245 1228h-304l45 228h893zM507 16l-20 -59q45 -11 69.5 -52.5t9.5 -120.5q-24 -115 -110.5 -175t-226.5 -58l-5 4l26 155q28 0 49 21t30 63q8 45 -11 60.5t-76 20.5l54 141h211z" horiz-adv-x="955" unicode="Ț"/><glyph d="M608 1351l-54 -269h140l-41 -206h-140l-108 -543q-15 -71 -3 -97t43 -26q23 0 41 2.5t40 8.5l-22 -216q-47 -14 -87 -20t-91 -6q-125 0 -182.5 86t-21.5 267l109 544h-120l41 206h120l54 269h282zM387 7l-20 -59q45 -11 69.5 -52.5t9.5 -120.5q-24 -115 -110.5 -175 t-226.5 -58l-5 4l26 155q28 0 49 21t30 63q8 45 -11 60.5t-76 20.5l54 141h211z" horiz-adv-x="632" unicode="ț"/><glyph d="M537 1082l-223 -1115q-41 -206 -145.5 -305t-262.5 -99q-31 0 -60 4.5t-61 13.5l58 222q19 -6 35.5 -9t38.5 -3q37 0 68 46t48 130l223 1115h281z" horiz-adv-x="521" unicode="ȷ"/><glyph d="M563 1103q183 0 274 -152t47 -376l-8 -41q-53 -261 -187.5 -407.5t-326.5 -145.5q-171 0 -249 132t-34 353l32 161h498q15 116 -14.5 182.5t-111.5 66.5q-70 0 -125 -19.5t-125 -58.5l-36 181q65 52 162 88t204 36zM407 207q50 0 91.5 62t71.5 168h-222l-5 -27 q-21 -103 -7 -153t71 -50z" horiz-adv-x="907" unicode="ə"/><glyph d="M517 1368l-212 -344h-135l115 344l38 192h232z" horiz-adv-x="363" unicode="ʼ"/><glyph d="M932 1274l-5 -22h-219l-80 134l-132 -134h-214l5 25l290 237h155z" horiz-adv-x="880" unicode="ˆ"/><glyph d="M610 1395l105 127h254l-3 -17l-291 -253h-189l-188 255l3 15h253z" horiz-adv-x="837" unicode="ˇ"/><glyph d="M862 1456l2 -6q-17 -134 -111 -212t-235 -78q-136 0 -208.5 81.5t-47.5 209.5l2 5h206q-9 -54 9 -87.5t67 -33.5q45 0 73 34t37 87h206z" horiz-adv-x="805" unicode="˘"/><glyph d="M575 1229h-287l48 241h287z" horiz-adv-x="572" unicode="˙"/><glyph d="M289 1299q16 85 80.5 137.5t145.5 52.5q72 0 117 -55.5t30 -134.5q-18 -87 -80 -136.5t-142 -49.5q-75 0 -121.5 53.5t-29.5 132.5zM395 1299q-9 -45 8.5 -70t54.5 -25q34 0 62 26.5t37 68.5q8 46 -8 71.5t-53 25.5q-34 0 -63.5 -27.5t-37.5 -69.5z" horiz-adv-x="601" unicode="˚"/><glyph d="M269 0q-47 -52 -71 -88.5t-34 -85.5q-5 -25 3.5 -45.5t50.5 -20.5q20 0 38.5 6t38.5 14l1 -151q-34 -19 -74.5 -31.5t-92.5 -12.5q-90 0 -143.5 55.5t-34.5 151.5q17 81 65 146t138 118z" horiz-adv-x="552" unicode="˛"/><glyph d="M906 1481q-17 -99 -75.5 -163.5t-135.5 -64.5q-53 0 -121 44t-110 44q-24 0 -47.5 -33t-30.5 -79l-140 43q15 96 74.5 162.5t135.5 66.5q40 0 114.5 -44t117.5 -44q24 0 48 33t32 80z" horiz-adv-x="844" unicode="˜"/><glyph d="M842 1518h260l2 -6l-279 -260h-220l-2 5zM505 1518h257l3 -6l-246 -260h-224z" horiz-adv-x="761" unicode="˝"/><glyph d="M3 -226q14 75 68 120t123 45q62 0 99 -47.5t24 -117.5q-16 -74 -69 -118t-120 -44q-63 0 -100.5 47t-24.5 115zM105 -226q-7 -30 5 -49t37 -19q21 0 40.5 19.5t25.5 48.5q6 34 -4.5 52.5t-33.5 18.5t-44 -20t-26 -51z" horiz-adv-x="562" unicode="˳"/><glyph d="M-156 1195h-164l-98 303h215z" horiz-adv-x="26" unicode="̀"/><glyph d="M-335 1505h216l-222 -303h-163z" horiz-adv-x="26" unicode="́"/><glyph d="M41 1481q-17 -99 -75.5 -163.5t-135.5 -64.5q-53 0 -121 44t-110 44q-24 0 -47.5 -33t-30.5 -79l-140 43q15 96 74.5 162.5t135.5 66.5q40 0 114.5 -44t117.5 -44q24 0 48 33t32 80z" horiz-adv-x="27" unicode="̃"/><glyph d="M-423 1266l9 129q58 3 84 18t33 51q8 38 -15 54.5t-70 16.5l32 131q167 0 240.5 -48t53.5 -145q-13 -64 -53.5 -100t-89.5 -44l-13 -63h-211z" horiz-adv-x="26" unicode="̉"/><glyph d="M-221 1252h-226l-177 266h267zM82 1252h-224l-142 266h264z" horiz-adv-x="26" unicode="̏"/><glyph d="M-471 -353h-312l49 241h312z" horiz-adv-x="26" unicode="̣"/><glyph d="M520 1623h257l-253 -350h-136z" horiz-adv-x="635" unicode="΄"/><glyph d="M987 1259h-229l39 197h229zM530 1259h-230l39 197h230zM708 1755h257l-212 -275h-134z" horiz-adv-x="971" unicode="΅"/><glyph d="M706 309h-351l-136 -309h-284l679 1456h293l96 -1456h-284zM455 538h242l-19 491l-6 1zM375 1623h257l-253 -350h-136z" horiz-adv-x="1095" unicode="Ά"/><glyph d="M438 560h-273l52 262h273z" horiz-adv-x="558" unicode="·"/><glyph d="M993 639h-460l-83 -412h542l-45 -227h-825l291 1456h823l-45 -228h-541l-72 -362h460zM189 1625h257l-253 -350h-136z" horiz-adv-x="1071" unicode="Έ"/><glyph d="M1101 0h-281l120 603h-415l-120 -603h-283l291 1456h283l-125 -626h415l125 626h281zM223 1622h257l-253 -350h-136z" horiz-adv-x="1293" unicode="Ή"/><glyph d="M416 0h-281l291 1456h281zM230 1624h257l-253 -350h-136z" horiz-adv-x="623" unicode="Ί"/><glyph d="M1134 596q-58 -289 -218 -453t-384 -164q-209 0 -330 179.5t-68 441.5l52 259q58 290 212.5 454t376.5 164q211 0 337 -181t74 -441zM905 857q36 177 -14.5 284t-160.5 107q-94 0 -161.5 -106t-102.5 -281l-52 -261q-36 -180 9 -286.5t154 -106.5q95 0 168 107.5 t108 281.5zM283 1623h257l-253 -350h-136z" horiz-adv-x="1141" unicode="Ό"/><glyph d="M724 849l5 -1l344 608h307l-583 -939l-103 -517h-281l108 539l-204 917h308zM159 1623h257l-253 -350h-136z" horiz-adv-x="1185" unicode="Ύ"/><glyph d="M562 127l21 103l1 5q68 37 124 165.5t105 371.5l18 90q40 197 17.5 289.5t-98.5 86.5l-6 1q-67 5 -131 -95t-100 -282l-18 -90q-52 -261 -45 -380.5t65 -156.5l-47 -235h-417l46 230h206q-86 89 -121.5 231.5t-1.5 310.5l18 88q58 290 219.5 453.5t376.5 163.5 q197 0 301 -175.5t51 -441.5l-18 -88q-36 -178 -125 -317.5t-208 -224.5h206l-46 -230h-418zM267 1623h257l-253 -350h-136z" horiz-adv-x="1164" unicode="Ώ"/><glyph d="M523 1081l-150 -751q-15 -74 -6.5 -98.5t41.5 -24.5q22 0 36 3t44 12l-17 -215q-46 -16 -82.5 -22t-84.5 -6q-127 0 -187.5 89.5t-25.5 263.5l150 749h282zM753 1197h-229l39 197h229zM296 1197h-230l39 197h230zM474 1693h257l-212 -275h-134z" horiz-adv-x="592" unicode="ΐ"/><glyph d="M706 309h-351l-136 -309h-284l679 1456h293l96 -1456h-284zM455 538h242l-19 491l-6 1z" horiz-adv-x="1095" unicode="Α"/><glyph d="M22 0l291 1456h414q203 0 310.5 -102t69.5 -296q-23 -110 -81.5 -188.5t-153.5 -116.5q104 -28 136.5 -117.5t9.5 -210.5q-45 -223 -177.5 -324t-351.5 -101h-467zM433 642l-83 -415h184q77 0 130 50.5t73 148.5q22 111 -0.5 163.5t-100.5 52.5h-203zM473 841h141 q76 2 130.5 51.5t73.5 138.5q21 109 -12 153t-124 44h-131z" horiz-adv-x="1097" unicode="Β"/><glyph d="M1055 1228h-503l-246 -1228h-283l291 1456h786z" horiz-adv-x="948" unicode="Γ"/><glyph d="M691 1456h292l165 -1456h-1208zM348 227h482l-75 804l-6 1z" horiz-adv-x="1249" unicode="Δ"/><glyph d="M893 639h-460l-83 -412h542l-45 -227h-825l291 1456h823l-45 -228h-541l-72 -362h460z" horiz-adv-x="971" unicode="Ε"/><glyph d="M357 227h514l-45 -227h-814l-7 143l670 1086h-439l45 227h777l-27 -138z" horiz-adv-x="959" unicode="Ζ"/><glyph d="M1001 0h-281l120 603h-415l-120 -603h-283l291 1456h283l-125 -626h415l125 626h281z" horiz-adv-x="1193" unicode="Η"/><glyph d="M756 609h-257l45 226h257zM1111 596q-58 -289 -218 -453t-384 -164q-209 0 -330 179.5t-68 441.5l52 259q58 290 212.5 454t376.5 164q211 0 337 -181t74 -441zM882 857q36 177 -14.5 284t-160.5 107q-94 0 -161.5 -106t-102.5 -281l-52 -261q-36 -180 9 -286.5 t154 -106.5q95 0 168 107.5t108 281.5z" horiz-adv-x="1170" unicode="Θ"/><glyph d="M316 0h-281l291 1456h281z" horiz-adv-x="523" unicode="Ι"/><glyph d="M507 602h-83l-120 -602h-282l291 1456h282l-119 -594h87l325 594h370l-496 -722l217 -734h-324z" horiz-adv-x="1095" unicode="Κ"/><glyph d="M225 0h-294l675 1456h294l95 -1456h-295l-10 1122v-3l-6 1l1 3z" horiz-adv-x="1095" unicode="Λ"/><glyph d="M674 1456l24 -1067l6 -1l453 1068h368l-291 -1456h-281l85 423l129 533l-6 2l-444 -958h-187l-59 947l-6 1l-82 -525l-85 -423h-281l291 1456h366z" horiz-adv-x="1421" unicode="Μ"/><glyph d="M999 0h-281l-226 907h-6l-181 -907h-283l291 1456h283l226 -905h6l181 905h281z" horiz-adv-x="1193" unicode="Ν"/><glyph d="M46 227h807l-45 -227h-807zM265 844h619l-44 -218h-619zM314 1456h748l-45 -227h-748z" horiz-adv-x="967" unicode="Ξ"/><glyph d="M1114 596q-58 -289 -218 -453t-384 -164q-209 0 -330 179.5t-68 441.5l52 259q58 290 212.5 454t376.5 164q211 0 337 -181t74 -441zM885 857q36 177 -14.5 284t-160.5 107q-94 0 -161.5 -106t-102.5 -281l-52 -261q-36 -180 9 -286.5t154 -106.5q95 0 168 107.5 t108 281.5z" horiz-adv-x="1121" unicode="Ο"/><glyph d="M1002 0h-281l246 1228h-416l-246 -1228h-283l291 1456h980z" horiz-adv-x="1193" unicode="Π"/><glyph d="M409 522l-104 -522h-283l291 1456h488q194 0 296 -131.5t62 -335.5q-45 -223 -189.5 -345t-355.5 -122h-205zM455 750h205q77 0 137 68.5t80 168.5q22 111 -7.5 176t-113.5 65h-205z" horiz-adv-x="1119" unicode="Ρ"/><glyph d="M771 730l-387 -503h488l-45 -227h-839l29 144l456 595l-222 574l28 143h825l-45 -227h-470l186 -481z" horiz-adv-x="967" unicode="Σ"/><glyph d="M1086 1228h-308l-245 -1228h-281l245 1228h-304l45 228h893z" horiz-adv-x="955" unicode="Τ"/><glyph d="M624 849l5 -1l344 608h307l-583 -939l-103 -517h-281l108 539l-204 917h308z" horiz-adv-x="1085" unicode="Υ"/><glyph d="M980 1285q187 -12 288 -168t53 -396q-52 -256 -204.5 -399t-359.5 -152l-34 -170h-281l34 169q-190 10 -293 162t-55 388q52 263 207 410.5t364 155.5l34 171h281zM404 719q-30 -148 2.5 -222t113.5 -74h6l121 604l-5 2q-76 -4 -143 -86.5t-95 -223.5zM1044 721 q30 152 -0.5 229t-108.5 79h-6l-120 -602l5 -3q73 4 138 84t92 213z" horiz-adv-x="1321" unicode="Φ"/><glyph d="M620 948l6 -1l261 509h326l-449 -722l239 -734h-340l-101 519l-6 1l-268 -520h-328l458 734l-217 722h324z" horiz-adv-x="1088" unicode="Χ"/><glyph d="M799 605l6 -2q72 16 127 104.5t86 241.5l101 507h283l-101 -507q-56 -276 -199.5 -424t-352.5 -172l-70 -353h-281l70 352q-191 25 -283.5 182.5t-40.5 414.5l101 507h282l-101 -507q-33 -162 -10 -248t96 -101l6 1l171 855h281z" horiz-adv-x="1239" unicode="Ψ"/><glyph d="M542 127l21 103l1 5q68 37 124 165.5t105 371.5l18 90q40 197 17.5 289.5t-98.5 86.5l-6 1q-67 5 -131 -95t-100 -282l-18 -90q-52 -261 -45 -380.5t65 -156.5l-47 -235h-417l46 230h206q-86 89 -121.5 231.5t-1.5 310.5l18 88q58 290 219.5 453.5t376.5 163.5 q197 0 301 -175.5t51 -441.5l-18 -88q-36 -178 -125 -317.5t-208 -224.5h206l-46 -230h-418z" horiz-adv-x="1144" unicode="Ω"/><glyph d="M316 0h-281l291 1456h281zM837 1606h-245l32 198h245zM407 1606h-245l32 198h245z" horiz-adv-x="523" unicode="Ϊ"/><glyph d="M624 849l5 -1l344 608h307l-583 -939l-103 -517h-281l108 539l-204 917h308zM1124 1605h-245l32 198h245zM694 1605h-245l32 198h245z" horiz-adv-x="1085" unicode="Ϋ"/><glyph d="M990 1081l-146 -733q-17 -82 -11.5 -110t32.5 -28q3 0 5.5 0.5t4.5 3.5l-21 -212q-30 -13 -55 -18t-57 -5q-72 0 -121 38t-66 114q-52 -74 -112 -113t-129 -39q-153 0 -218 149t-17 386l4 21q54 271 171.5 419t284.5 148q58 0 99 -35t65 -99l41 113h246zM362 514 q-32 -155 -18.5 -231.5t88.5 -76.5q33 0 62.5 18t55.5 54q1 15 3.5 32t7.5 38l92 463q-11 31 -32.5 47t-52.5 16q-67 0 -119.5 -94.5t-82.5 -244.5zM693 1560h257l-253 -350h-136z" horiz-adv-x="956" unicode="ά"/><glyph d="M61 304q19 98 76 162t146 94q-64 36 -94 96.5t-16 130.5q32 159 157 236t313 77q150 0 244.5 -89.5t61.5 -232.5l-3 -6h-275q12 58 -12 87.5t-74 29.5q-52 0 -89 -37.5t-46 -87.5q-12 -58 11.5 -88t77.5 -30h149l-12 -60l-25 -126h-149q-56 0 -98.5 -33t-56.5 -100 q-12 -61 11.5 -98.5t85.5 -37.5q58 0 99.5 36t52.5 91h272l2 -6q-30 -172 -158.5 -251.5t-292.5 -79.5q-173 0 -280.5 88t-77.5 235zM677 1559h257l-253 -350h-136z" horiz-adv-x="953" unicode="έ"/><glyph d="M463 945q57 76 127 116.5t144 40.5q121 0 176.5 -108.5t10.5 -337.5l-214 -1071h-283l214 1071q25 128 10.5 173t-67.5 45q-36 0 -72 -21t-68 -58v-1l-159 -794h-282l216 1082h263zM660 1560h257l-253 -350h-136z" unicode="ή"/><glyph d="M523 1081l-150 -751q-15 -74 -6.5 -98.5t41.5 -24.5q22 0 36 3t44 12l-17 -215q-46 -16 -82.5 -22t-84.5 -6q-127 0 -187.5 89.5t-25.5 263.5l150 749h282zM445 1538h257l-253 -350h-136z" horiz-adv-x="592" unicode="ί"/><glyph d="M505 1082l-122 -611q-30 -151 -10.5 -207.5t72.5 -49.5l6 -1q60 -5 114 99t83 249q23 129 29 259.5t-2 261.5h264q21 -105 21 -235t-31 -286q-57 -285 -178.5 -433.5t-340.5 -148.5q-180 0 -269 124t-39 370l121 609h282zM988 1198h-229l39 197h229zM531 1198h-230 l39 197h230zM709 1694h257l-212 -275h-134z" unicode="ΰ"/><glyph d="M990 1081l-146 -733q-17 -82 -11.5 -110t32.5 -28q3 0 5.5 0.5t4.5 3.5l-21 -212q-30 -13 -55 -18t-57 -5q-72 0 -121 38t-66 114q-52 -74 -112 -113t-129 -39q-153 0 -218 149t-17 386l4 21q54 271 171.5 419t284.5 148q58 0 99 -35t65 -99l41 113h246zM362 514 q-32 -155 -18.5 -231.5t88.5 -76.5q33 0 62.5 18t55.5 54q1 15 3.5 32t7.5 38l92 463q-11 31 -32.5 47t-52.5 16q-67 0 -119.5 -94.5t-82.5 -244.5z" horiz-adv-x="956" unicode="α"/><glyph d="M738 1477q169 0 260.5 -106t55.5 -288q-23 -109 -82.5 -192t-144.5 -129q87 -45 124.5 -137t13.5 -216q-44 -218 -158.5 -324t-285.5 -106q-53 0 -105 16.5t-94 50.5l-91 -455h-281l288 1439q42 212 182 329.5t318 117.5zM565 853h46q56 0 96.5 54t60.5 154 q16 83 -2.5 135.5t-72.5 52.5q-55 0 -105 -60.5t-69 -158.5l-157 -784q22 -20 56 -30t79 -10q60 0 114 59.5t72 148.5q23 120 -1 176.5t-94 56.5h-65l31 152z" horiz-adv-x="1025" unicode="β"/><glyph d="M698 1082h295l-498 -1078l-84 -420h-281l86 430l-67 1068h295l-20 -674l-3 -70l6 -1l25 71z" horiz-adv-x="880" unicode="γ"/><glyph d="M1019 1456l-45 -227h-284q120 -154 196.5 -322.5t39.5 -355.5l-4 -22q-53 -261 -190.5 -405.5t-339.5 -144.5q-188 0 -275.5 146.5t-41.5 373.5l4 22q42 212 152.5 342.5t249.5 157.5h-2.5h-4.5q-34 69 -73 133t-81 118l37 184h662zM361 529q-32 -159 -18.5 -240 t92.5 -75l6 -1q68 -5 118.5 82.5t80.5 233.5l4 22q24 119 7.5 197t-63.5 118q-8 5 -10.5 6.5t-7.5 1.5q-72 0 -124.5 -90.5t-80.5 -232.5z" unicode="δ"/><glyph d="M61 304q19 98 76 162t146 94q-64 36 -94 96.5t-16 130.5q32 159 157 236t313 77q150 0 244.5 -89.5t61.5 -232.5l-3 -6h-275q12 58 -12 87.5t-74 29.5q-52 0 -89 -37.5t-46 -87.5q-12 -58 11.5 -88t77.5 -30h149l-12 -60l-25 -126h-149q-56 0 -98.5 -33t-56.5 -100 q-12 -61 11.5 -98.5t85.5 -37.5q58 0 99.5 36t52.5 91h272l2 -6q-30 -172 -158.5 -251.5t-292.5 -79.5q-173 0 -280.5 88t-77.5 235z" horiz-adv-x="953" unicode="ε"/><glyph d="M1010 1456l-31 -157l-371 -444q-110 -136 -163 -225.5t-76 -206.5q-21 -105 2 -153t96 -48h39q113 0 175 -74.5t37 -201.5q-27 -127 -122.5 -228t-240.5 -141l-52 196q55 26 91.5 61t47.5 86q7 41 -11.5 60.5t-74.5 19.5h-32q-145 0 -210.5 112t-34.5 266 q32 166 107.5 287.5t233.5 308.5l214 251l-2 5h-400l45 226h733z" horiz-adv-x="862" unicode="ζ"/><glyph d="M463 945q57 76 127 116.5t144 40.5q121 0 176.5 -108.5t10.5 -337.5l-214 -1071h-283l214 1071q25 128 10.5 173t-67.5 45q-36 0 -72 -21t-68 -58v-1l-159 -794h-282l216 1082h263z" unicode="η"/><glyph d="M943 571q-62 -310 -198.5 -451t-326.5 -141q-176 0 -263.5 153t-29.5 439l63 313q61 309 198 451t329 142q174 0 261 -154t30 -439zM672 623h-254l-15 -75q-39 -190 -21.5 -265.5t79.5 -67.5l6 -1q53 -7 103.5 75.5t86.5 258.5zM461 841h254l14 68q37 187 20 262.5 t-77 68.5l-6 1q-54 6 -105.5 -76.5t-85.5 -255.5z" horiz-adv-x="1012" unicode="θ"/><glyph d="M523 1081l-150 -751q-15 -74 -6.5 -98.5t41.5 -24.5q22 0 36 3t44 12l-17 -215q-46 -16 -82.5 -22t-84.5 -6q-127 0 -187.5 89.5t-25.5 263.5l150 749h282z" horiz-adv-x="592" unicode="ι"/><glyph d="M462 402h-78l-80 -402h-282l216 1082h282l-82 -409h60l260 409h352l3 -5l-387 -483l178 -594h-361z" horiz-adv-x="1029" unicode="κ"/><glyph d="M228 0h-302l508 1067l-22 106q-7 51 -32.5 84t-63.5 33q-10 0 -27 -2t-27 -4l37 211q48 12 74 17.5t61 5.5q127 0 185 -82.5t73 -190.5l115 -895q1 -52 16 -87t44 -43q7 -3 16.5 -3.5t21.5 0.5l-66 -220q-32 -6 -63 -8t-62 1q-108 10 -152 107t-54 223l-27 326h-6l-4 -12 z" horiz-adv-x="902" unicode="λ"/><glyph d="M532 1082l-124 -623l-2 -8q-30 -151 -11 -196.5t85 -45.5q44 0 82.5 24.5t69.5 71.5l155 777h282l-216 -1082h-265l5 40q-38 -31 -81 -46t-89 -15q-31 0 -57 8.5t-47 25.5l-86 -429h-283l299 1498h283z" horiz-adv-x="1078" unicode="μ"/><glyph d="M422 408l-1 -70l6 -1l23 71l220 674h295l-457 -1082h-276l-111 1082h295z" horiz-adv-x="880" unicode="ν"/><glyph d="M1029 1456l-47 -235h-224q-71 0 -119 -41.5t-61 -111.5q-17 -79 8 -120t100 -41h127l-16 -79h1l-17 -84l-15 -73h-118q-108 0 -179.5 -64.5t-95.5 -186.5q-20 -98 6 -151.5t94 -53.5h118q117 0 180.5 -71.5t37.5 -202.5q-31 -146 -121.5 -241.5t-244.5 -141.5l-40 171 q47 25 86.5 61.5t51.5 93.5q9 49 -7.5 73t-64.5 24h-60q-177 0 -268 118t-49 325q28 143 107.5 234t209.5 133q-73 34 -106 91.5t-17 135.5q13 72 51.5 122.5t99.5 80.5h-160l47 235h705z" horiz-adv-x="926" unicode="ξ"/><glyph d="M87 607q36 226 166.5 360.5t332.5 134.5q191 0 283.5 -140t58.5 -355l-21 -134q-37 -228 -168 -361t-331 -133q-193 0 -285.5 138.5t-56.5 355.5zM346 473q-21 -130 -1.5 -198.5t99.5 -68.5q73 0 117 72t64 195l21 134q20 127 0.5 197t-96.5 70q-74 0 -119.5 -73.5 t-63.5 -193.5z" unicode="ο"/><glyph d="M1120 868h-126l-107 -537q-15 -74 -6.5 -98.5t41.5 -24.5q22 0 36 3t44 12l-17 -215q-46 -16 -82.5 -22t-84.5 -6q-127 0 -187.5 89.5t-25.5 263.5l107 535h-142l-173 -868h-282l173 868h-123l42 214h955z" horiz-adv-x="1128" unicode="π"/><glyph d="M922 514q-52 -258 -167 -396.5t-280 -138.5q-59 0 -101.5 27t-69.5 80l-100 -502h-282l199 997h1l-1 1q49 247 185 383.5t335 136.5q178 0 256 -158.5t29 -408.5zM644 535q32 163 19.5 249.5t-81.5 80.5l-6 1q-52 5 -101.5 -85.5t-76.5 -226.5l-1 -1h1l-58 -288 q12 -30 38 -44.5t67 -14.5q67 0 116.5 83.5t78.5 224.5z" unicode="ρ"/><glyph d="M598 1102q158 0 240 -114t43 -309h-263q19 95 5.5 144t-68.5 44l-6 1q-67 4 -115 -84t-76 -230l-6 -28q-30 -151 -1 -218.5t131 -87.5q155 -29 216 -94.5t35 -198.5q-28 -127 -123 -227.5t-238 -139.5l-53 196q55 27 91 61.5t46 84.5q9 44 -14.5 65.5t-80.5 34.5 q-196 34 -266.5 165.5t-25.5 358.5l6 28q51 256 185.5 402t337.5 146z" horiz-adv-x="861" unicode="ς"/><glyph d="M1030 854h-206q51 -65 73.5 -154t3.5 -186l-5 -23q-48 -240 -180 -376t-326 -136q-188 0 -273 155t-37 395l4 22q50 251 185.5 391t339.5 140v-1h1v1h465zM360 529q-32 -159 -18.5 -240t91.5 -75l6 -1q60 -5 106.5 82.5t76.5 233.5l4 22q28 142 18.5 220t-72.5 83h-7 q-72 0 -123 -85t-78 -218z" horiz-adv-x="978" unicode="σ"/><glyph d="M946 856h-267l-171 -856h-282l171 856h-265l45 226h814z" horiz-adv-x="900" unicode="τ"/><glyph d="M505 1082l-122 -611q-30 -151 -10.5 -207.5t72.5 -49.5l6 -1q60 -5 114 99t83 249q23 129 29 259.5t-2 261.5h264q21 -105 21 -235t-31 -286q-57 -285 -178.5 -433.5t-340.5 -148.5q-180 0 -269 124t-39 370l121 609h282z" unicode="υ"/><glyph d="M910 1082q210 0 301 -167.5t50 -375.5q-47 -232 -183 -376.5t-387 -175.5l-93 -465h-282l94 471q-218 43 -300.5 209.5t-36.5 392.5q31 157 81 271.5t119 215.5h254q-59 -128 -102.5 -248.5t-68.5 -238.5q-30 -147 -8.5 -236.5t106.5 -116.5l6 1l168 839h282zM742 240 l5 -3q92 26 150 106t82 196q26 141 0 226.5t-110 78.5l-6 -1z" horiz-adv-x="1292" unicode="φ"/><glyph d="M299 1098q123 0 177.5 -82.5t64.5 -189.5l11 -82l6 -1l198 339h285l-434 -736l58 -414q1 -50 16 -85t44 -44q8 -2 17.5 -2.5t21.5 -0.5l-57 -221q-33 -7 -68 -9t-67 1q-95 11 -134.5 109.5t-45.5 221.5l-8 55l-6 1l-219 -373h-276l448 769l-53 400q-4 54 -36 84.5 t-77 30.5q-9 0 -27 -2t-26 -4l36 212q56 13 84.5 18t66.5 5z" horiz-adv-x="909" unicode="χ"/><glyph d="M909 1081l-167 -830l5 -3q90 32 152.5 125.5t89.5 224.5q21 116 24 235.5t-6 248.5h255q29 -97 33.5 -218t-23.5 -266q-52 -257 -191.5 -416.5t-390.5 -193.5l-92 -461h-282l93 466q-195 38 -285.5 186.5t-37.5 408.5l98 494h283l-99 -496q-32 -157 -7 -240t93 -104h6 l167 839h282z" horiz-adv-x="1291" unicode="ψ"/><glyph d="M584 1082q-75 -127 -128.5 -258t-83.5 -263q-33 -165 -28 -259t67 -87l6 -1q45 -7 93 62.5t78 217.5l70 352h297l-70 -352q-33 -161 -14 -224t72 -55l6 -1q53 -6 100 95t78 252q22 131 20 262t-25 259h264q36 -105 45 -235t-22 -286q-58 -287 -173.5 -434.5 t-326.5 -147.5q-85 0 -145 51.5t-85 150.5q-62 -103 -143 -152.5t-177 -49.5q-195 0 -258 159.5t-10 422.5q33 167 90.5 290t138.5 231h264z" horiz-adv-x="1446" unicode="ω"/><glyph d="M523 1081l-150 -751q-15 -74 -6.5 -98.5t41.5 -24.5q22 0 36 3t44 12l-17 -215q-46 -16 -82.5 -22t-84.5 -6q-127 0 -187.5 89.5t-25.5 263.5l150 749h282zM772 1262h-245l32 198h245zM342 1262h-245l32 198h245z" horiz-adv-x="592" unicode="ϊ"/><glyph d="M505 1082l-122 -611q-30 -151 -10.5 -207.5t72.5 -49.5l6 -1q60 -5 114 99t83 249q23 129 29 259.5t-2 261.5h264q21 -105 21 -235t-31 -286q-57 -285 -178.5 -433.5t-340.5 -148.5q-180 0 -269 124t-39 370l121 609h282zM1007 1263h-245l32 198h245zM577 1263h-245 l32 198h245z" unicode="ϋ"/><glyph d="M87 607q36 226 166.5 360.5t332.5 134.5q191 0 283.5 -140t58.5 -355l-21 -134q-37 -228 -168 -361t-331 -133q-193 0 -285.5 138.5t-56.5 355.5zM346 473q-21 -130 -1.5 -198.5t99.5 -68.5q73 0 117 72t64 195l21 134q20 127 0.5 197t-96.5 70q-74 0 -119.5 -73.5 t-63.5 -193.5zM623 1560h257l-253 -350h-136z" unicode="ό"/><glyph d="M505 1082l-122 -611q-30 -151 -10.5 -207.5t72.5 -49.5l6 -1q60 -5 114 99t83 249q23 129 29 259.5t-2 261.5h264q21 -105 21 -235t-31 -286q-57 -285 -178.5 -433.5t-340.5 -148.5q-180 0 -269 124t-39 370l121 609h282zM680 1539h257l-253 -350h-136z" unicode="ύ"/><glyph d="M584 1082q-75 -127 -128.5 -258t-83.5 -263q-33 -165 -28 -259t67 -87l6 -1q45 -7 93 62.5t78 217.5l70 352h297l-70 -352q-33 -161 -14 -224t72 -55l6 -1q53 -6 100 95t78 252q22 131 20 262t-25 259h264q36 -105 45 -235t-22 -286q-58 -287 -173.5 -434.5 t-326.5 -147.5q-85 0 -145 51.5t-85 150.5q-62 -103 -143 -152.5t-177 -49.5q-195 0 -258 159.5t-10 422.5q33 167 90.5 290t138.5 231h264zM903 1539h257l-253 -350h-136z" horiz-adv-x="1446" unicode="ώ"/><glyph d="M574 215q82 0 153.5 87t103.5 237q-139 18 -221 136t-48 283l21 109q39 199 151.5 304.5t264.5 105.5q137 0 204 -111t29 -299l-104 -523q-56 -274 -216.5 -419.5t-384.5 -145.5q-212 0 -327.5 162t-66.5 403l141 708l300 2l-142 -710q-32 -156 5.5 -242.5t136.5 -86.5z M826 956q-16 -81 -4 -133t48 -59h6l67 334q13 67 10 95.5t-20 21.5l-6 2q-18 6 -39 -26.5t-33 -92.5z" horiz-adv-x="1191" unicode="ϑ"/><glyph d="M786 1197q83 158 161 221.5t195 63.5q22 0 42.5 -5t37.5 -14l-66 -222q-1 1 -14.5 3t-21.5 2q-28 0 -54 -30t-44 -80l-368 -672l-92 -464h-281l97 486l-94 650q2 50 -12 80t-43 30q-7 0 -22 -2t-17 -3l27 222q17 9 38.5 14t46.5 5q111 0 167.5 -62.5t76.5 -214.5l32 -385 l-2 -54l6 -1l20 55z" horiz-adv-x="1025" unicode="ϒ"/><glyph d="M1499 883h-105q6 -74 1.5 -154.5t-21.5 -167.5q-58 -286 -169 -434t-309 -148q-86 0 -146 51.5t-84 150.5q-62 -103 -143.5 -152.5t-178.5 -49.5q-183 0 -240.5 160t-5.5 422q18 93 45 172.5t61 149.5h-96l39 199h1391zM1092 561q14 80 18.5 161t1.5 161h-624 q-36 -81 -63 -161.5t-45 -160.5q-34 -165 -33.5 -258.5t51.5 -86.5l6 -1q44 -8 92 61.5t78 217.5l40 202h299l-40 -202q-32 -160 -13.5 -223.5t70.5 -54.5l6 -1q43 -7 84 93.5t72 252.5z" horiz-adv-x="1418" unicode="ϖ"/><glyph d="M893 639h-460l-83 -412h542l-45 -227h-825l291 1456h823l-45 -228h-541l-72 -362h460zM865 1559h-226l-200 266h302z" horiz-adv-x="971" unicode="Ѐ"/><glyph d="M893 639h-460l-83 -412h542l-45 -227h-825l291 1456h823l-45 -228h-541l-72 -362h460zM1067 1606h-245l32 198h245zM637 1606h-245l32 198h245z" horiz-adv-x="971" unicode="Ё"/><glyph d="M1110 1228h-360l-72 -363q52 13 96 21t85 8q193 0 295.5 -116.5t58.5 -337.5q-41 -202 -174.5 -329t-373.5 -123l-5 3l41 205q108 0 157 65t70 164q22 110 -6.5 175t-108.5 65q-45 0 -88 -5t-91 -13l-129 -647h-283l245 1228h-277l45 228h920z" horiz-adv-x="1262" unicode="Ђ"/><glyph d="M1055 1228h-503l-246 -1228h-283l291 1456h786zM799 1826h295l2 -6l-280 -260h-226z" horiz-adv-x="948" unicode="Ѓ"/><glyph d="M1025 496l2 -6q-60 -251 -188 -380.5t-342 -129.5q-206 0 -326.5 173t-68.5 432l58 290q57 289 203 446t356 157q213 0 325 -141.5t81 -385.5h-281q24 148 -10.5 223.5t-141.5 75.5q-82 0 -150 -103t-101 -270l-7 -33h330l-46 -227h-329l-6 -32q-37 -179 -2 -278.5 t135 -99.5q89 0 144 69.5t92 219.5h273z" horiz-adv-x="1046" unicode="Є"/><glyph d="M708 353q19 99 -16.5 148.5t-144.5 108.5q-201 82 -292.5 195.5t-55.5 294.5q36 180 171 278.5t321 98.5q198 0 306 -120t63 -326l-2 -5h-275q20 102 -18 162.5t-119 60.5q-54 0 -103 -43t-61 -104q-19 -94 21 -140t176 -113q185 -77 267 -191t44 -303 q-38 -187 -171 -281.5t-321 -94.5q-194 0 -324.5 108.5t-80.5 336.5l2 5h275q-26 -127 28.5 -175t144.5 -48q52 0 102 42.5t63 104.5z" horiz-adv-x="1071" unicode="Ѕ"/><glyph d="M316 0h-281l291 1456h281z" horiz-adv-x="523" unicode="І"/><glyph d="M316 0h-281l291 1456h281zM837 1606h-245l32 198h245zM407 1606h-245l32 198h245z" horiz-adv-x="523" unicode="Ї"/><glyph d="M799 1456h281l-202 -1012q-47 -229 -184 -347t-317 -118q-178 0 -273 114.5t-51 333.5h283q-25 -123 1.5 -172t84.5 -49q49 0 101 64t74 174z" horiz-adv-x="980" unicode="Ј"/><glyph d="M1292 1456l-102 -507h171q192 0 297.5 -135.5t65.5 -338.5q-45 -223 -194 -349t-359 -126h-451l245 1228h-262l-82 -426q-82 -427 -239 -614.5t-388 -187.5h-35l45 227h31q109 0 175.5 125t128.5 450l125 654h828zM1145 722l-99 -495h170q76 0 140.5 74t85.5 176 q21 107 -11.5 176t-115.5 69h-170z" horiz-adv-x="1765" unicode="Љ"/><glyph d="M472 836h415l124 620h282l-103 -516h169q193 0 299 -133.5t66 -335.5q-44 -220 -193 -345.5t-360 -125.5h-451l121 609h-415l-121 -609h-282l291 1456h282zM1145 713l-97 -485h169q77 0 141 72.5t85 172.5q21 106 -12 173t-117 67h-169z" horiz-adv-x="1765" unicode="Њ"/><glyph d="M1092 1228h-356l-64 -319q40 6 79 10t66 4q210 0 317.5 -120.5t60.5 -359.5l-89 -443h-281l89 443q29 151 -5 202t-138 51q-25 0 -64.5 -4t-79.5 -10l-136 -682h-283l245 1228h-255l45 228h894z" horiz-adv-x="1286" unicode="Ћ"/><glyph d="M507 602h-83l-120 -602h-282l291 1456h282l-119 -594h87l325 594h370l-496 -722l217 -734h-324zM776 1826h295l2 -6l-280 -260h-226z" horiz-adv-x="1095" unicode="Ќ"/><glyph d="M997 1456h282l-291 -1456h-282l175 878l-6 2l-582 -880h-282l291 1456h282l-176 -880l6 -2zM956 1559h-226l-200 266h302z" horiz-adv-x="1178" unicode="Ѝ"/><glyph d="M623 795v-11l328 672h295l-618 -1173q-87 -146 -174.5 -225t-218.5 -79q-18 0 -44.5 1.5t-41.5 2.5l40 227q7 -2 27 -3t34 -1q57 0 96.5 36.5t69.5 108.5l23 49h-3l-194 1056h301zM1115 1897l2 -6q-17 -134 -111 -212t-235 -78q-136 0 -208.5 81.5t-47.5 209.5l2 5h206 q-9 -54 9 -87.5t67 -33.5q45 0 73 34t37 87h206z" horiz-adv-x="1070" unicode="Ў"/><glyph d="M299 1456h281l-246 -1229h417l246 1229h282l-291 -1456h-338l-71 -359h-282l71 359h-360z" horiz-adv-x="1181" unicode="Џ"/><glyph d="M706 309h-351l-136 -309h-284l679 1456h293l96 -1456h-284zM455 538h242l-19 491l-6 1z" horiz-adv-x="1095" unicode="А"/><glyph d="M1053 1228h-503l-62 -308h168q197 0 303.5 -126.5t66.5 -328.5q-45 -222 -193 -343.5t-361 -121.5h-451l291 1456h786zM443 693l-94 -466h168q78 0 142.5 69.5t84.5 170.5q21 105 -13 165.5t-120 60.5h-168z" horiz-adv-x="1060" unicode="Б"/><glyph d="M22 0l291 1456h414q203 0 310.5 -102t69.5 -296q-23 -110 -81.5 -188.5t-153.5 -116.5q104 -28 136.5 -117.5t9.5 -210.5q-45 -223 -177.5 -324t-351.5 -101h-467zM433 642l-83 -415h184q77 0 130 50.5t73 148.5q22 111 -0.5 163.5t-100.5 52.5h-203zM473 841h141 q76 2 130.5 51.5t73.5 138.5q21 109 -12 153t-124 44h-131z" horiz-adv-x="1097" unicode="В"/><glyph d="M1055 1228h-503l-246 -1228h-283l291 1456h786z" horiz-adv-x="948" unicode="Г"/><glyph d="M1065 -357h-256l71 357h-660l-71 -357h-262l96 584h92q73 56 143.5 202t136.5 441l153 586h803l-246 -1229h143zM638 870q-52 -227 -118.5 -382.5t-145.5 -260.5h410l200 1001h-253z" horiz-adv-x="1274" unicode="Д"/><glyph d="M893 639h-460l-83 -412h542l-45 -227h-825l291 1456h823l-45 -228h-541l-72 -362h460z" horiz-adv-x="971" unicode="Е"/><glyph d="M1184 604h-132l-120 -604h-282l120 604h-135l-344 -604h-351l516 804l-209 652h350l110 -594h115l119 594h282l-119 -594h112l340 594h349l-462 -650l186 -806h-350z" horiz-adv-x="1728" unicode="Ж"/><glyph d="M465 853h145q68 0 116 54.5t68 150.5q17 88 -12.5 139.5t-108.5 51.5q-61 0 -114.5 -51.5t-69.5 -134.5h-273l-2 6q34 195 176.5 301.5t327.5 106.5q191 0 294 -110t64 -305q-22 -108 -87 -191t-160 -128q85 -45 121.5 -131t12.5 -206q-43 -214 -189 -320.5t-355 -106.5 q-171 0 -285.5 108.5t-69.5 311.5l2 5h275q-19 -91 15 -144.5t108 -53.5q76 0 137.5 58t79.5 146q25 124 -4.5 173t-111.5 49h-145l31 152z" horiz-adv-x="1053" unicode="З"/><glyph d="M997 1456h282l-291 -1456h-282l175 878l-6 2l-582 -880h-282l291 1456h282l-176 -880l6 -2z" horiz-adv-x="1178" unicode="И"/><glyph d="M997 1456h282l-291 -1456h-282l175 878l-6 2l-582 -880h-282l291 1456h282l-176 -880l6 -2zM1166 1897l2 -6q-17 -134 -111 -212t-235 -78q-136 0 -208.5 81.5t-47.5 209.5l2 5h206q-9 -54 9 -87.5t67 -33.5q45 0 73 34t37 87h206z" horiz-adv-x="1178" unicode="Й"/><glyph d="M507 602h-83l-120 -602h-282l291 1456h282l-119 -594h87l325 594h370l-496 -722l217 -734h-324z" horiz-adv-x="1095" unicode="К"/><glyph d="M1292 1456l-291 -1456h-281l245 1228h-276l-81 -426q-83 -429 -226 -615.5t-354 -186.5h-66l45 227h32q111 11 167 126.5t120 448.5l125 654h841z" horiz-adv-x="1194" unicode="Л"/><glyph d="M674 1456l24 -1067l6 -1l453 1068h368l-291 -1456h-281l85 423l129 533l-6 2l-444 -958h-187l-59 947l-6 1l-82 -525l-85 -423h-281l291 1456h366z" horiz-adv-x="1421" unicode="М"/><glyph d="M1001 0h-281l120 603h-415l-120 -603h-283l291 1456h283l-125 -626h415l125 626h281z" horiz-adv-x="1193" unicode="Н"/><glyph d="M1114 596q-58 -289 -218 -453t-384 -164q-209 0 -330 179.5t-68 441.5l52 259q58 290 212.5 454t376.5 164q211 0 337 -181t74 -441zM885 857q36 177 -14.5 284t-160.5 107q-94 0 -161.5 -106t-102.5 -281l-52 -261q-36 -180 9 -286.5t154 -106.5q95 0 168 107.5 t108 281.5z" horiz-adv-x="1121" unicode="О"/><glyph d="M1002 0h-281l246 1228h-416l-246 -1228h-283l291 1456h980z" horiz-adv-x="1193" unicode="П"/><glyph d="M409 522l-104 -522h-283l291 1456h488q194 0 296 -131.5t62 -335.5q-45 -223 -189.5 -345t-355.5 -122h-205zM455 750h205q77 0 137 68.5t80 168.5q22 111 -7.5 176t-113.5 65h-205z" horiz-adv-x="1119" unicode="Р"/><glyph d="M1032 495l2 -6q-60 -251 -188 -380.5t-342 -129.5q-206 0 -326.5 173t-68.5 432l58 290q57 289 203 446t356 157q213 0 325 -141.5t81 -385.5h-281q24 148 -10.5 223.5t-141.5 75.5q-82 0 -150 -103t-101 -270l-58 -292q-37 -179 -2 -278.5t135 -99.5q89 0 144 69.5 t92 219.5h273z" horiz-adv-x="1045" unicode="С"/><glyph d="M1086 1228h-308l-245 -1228h-281l245 1228h-304l45 228h893z" horiz-adv-x="955" unicode="Т"/><glyph d="M623 795v-11l328 672h295l-618 -1173q-87 -146 -174.5 -225t-218.5 -79q-18 0 -44.5 1.5t-41.5 2.5l40 227q7 -2 27 -3t34 -1q57 0 96.5 36.5t69.5 108.5l23 49h-3l-194 1056h301z" horiz-adv-x="1070" unicode="У"/><glyph d="M1034 1326q205 -3 317 -171.5t60 -433.5q-57 -282 -224.5 -436.5t-391.5 -155.5l-38 -189h-281l38 189q-208 0 -322.5 164.5t-61.5 425.5q57 290 226.5 448.5t396.5 158.5l38 190h281zM406 719q-36 -177 7 -261t145 -76l6 1l138 688l-6 2q-91 7 -174 -88.5t-116 -265.5z M1135 721q37 184 -3.5 271.5t-142.5 80.5h-6l-138 -688l6 -3q90 -7 170.5 84.5t113.5 254.5z" horiz-adv-x="1419" unicode="Ф"/><glyph d="M620 948l6 -1l261 509h326l-449 -722l239 -734h-340l-101 519l-6 1l-268 -520h-328l458 734l-217 722h324z" horiz-adv-x="1088" unicode="Х"/><glyph d="M301 1456h281l-246 -1229h415l246 1229h283l-246 -1230h172l-134 -577h-262l70 351h-870z" horiz-adv-x="1300" unicode="Ц"/><glyph d="M1287 1456l-291 -1456h-283l112 562q-52 -13 -113.5 -20.5t-99.5 -7.5q-211 0 -318.5 120t-59.5 360l88 442h281l-88 -442q-31 -152 3 -202.5t139 -50.5q36 0 99 7.5t114 19.5l134 668h283z" horiz-adv-x="1189" unicode="Ч"/><glyph d="M594 1456l-246 -1229h286l246 1229h281l-246 -1229h281l246 1229h283l-291 -1456h-1414l291 1456h283z" horiz-adv-x="1624" unicode="Ш"/><glyph d="M594 1456l-246 -1229h286l246 1229h281l-246 -1229h281l246 1229h283l-246 -1230h179l-134 -576h-262l70 350h-1312l291 1456h283z" horiz-adv-x="1760" unicode="Щ"/><glyph d="M249 1456h585l-107 -536h169q197 0 303.5 -126.5t66.5 -328.5q-45 -222 -193 -343.5t-361 -121.5h-450l245 1229h-303zM681 693l-93 -466h169q78 0 142.5 69.5t84.5 170.5q21 105 -13 165.5t-120 60.5h-170z" horiz-adv-x="1299" unicode="Ъ"/><glyph d="M489 920h169q197 0 303.5 -126.5t66.5 -328.5q-45 -222 -193 -343.5t-361 -121.5h-450l291 1456h281zM1290 0h-281l291 1456h281zM443 693l-93 -466h169q78 0 142.5 69.5t84.5 170.5q21 105 -13 165.5t-120 60.5h-170z" horiz-adv-x="1484" unicode="Ы"/><glyph d="M487 920h169q197 0 303.5 -126.5t66.5 -328.5q-45 -222 -193 -343.5t-361 -121.5h-450l291 1456h281zM441 693l-93 -466h169q78 0 142.5 69.5t84.5 170.5q21 105 -13 165.5t-120 60.5h-170z" horiz-adv-x="1066" unicode="Ь"/><glyph d="M178 973l-2 6q47 255 186 377t359 122q193 0 287.5 -170t42.5 -434l-58 -291q-58 -287 -209.5 -445t-362.5 -158q-202 0 -301.5 130.5t-50.5 371.5h282q-31 -153 -4.5 -214t119.5 -61q82 0 145.5 102.5t97.5 271.5l8 40h-339l46 228h339l5 25q36 185 16 280.5t-109 95.5 q-85 0 -140.5 -67.5t-83.5 -209.5h-273z" horiz-adv-x="1044" unicode="Э"/><glyph d="M1544 596q-58 -289 -218 -453t-384 -164q-206 0 -326.5 174t-74.5 430h-117l-116 -583h-281l291 1456h281l-129 -645h116l10 48q58 290 212.5 454t376.5 164q211 0 337 -181t74 -441zM1315 857q36 177 -14.5 284t-160.5 107q-94 0 -161.5 -106t-102.5 -281l-52 -261 q-36 -180 9 -286.5t154 -106.5q95 0 168 107.5t108 281.5z" horiz-adv-x="1607" unicode="Ю"/><glyph d="M185 0h-304l375 635q-75 58 -99.5 148.5t3.5 224.5q42 212 189.5 330t342.5 118h423l-291 -1456h-282l107 533h-149zM788 1228h-141q-82 0 -133 -56.5t-75 -178.5q-23 -110 9.5 -178.5t110.5 -68.5h132z" horiz-adv-x="1007" unicode="Я"/><glyph d="M504 0q-6 27 -8.5 58t-2.5 64q-50 -65 -110.5 -104t-131.5 -39q-120 0 -183.5 89.5t-34.5 233.5q34 170 146 252.5t309 82.5h96l18 88q16 84 0 124t-68 40q-39 0 -68 -35t-41 -98l-273 1l-2 6q26 151 148 245t297 94q152 0 238.5 -100t51.5 -279l-88 -438 q-17 -84 -19.5 -150t6.5 -135h-280zM376 193q36 0 72.5 22t63.5 58l40 201h-96q-53 0 -89 -45.5t-49 -113.5q-12 -58 4 -90t54 -32z" horiz-adv-x="911" unicode="а"/><glyph d="M611 1020q182 0 267.5 -142t50.5 -363l-3 -23q-39 -238 -169.5 -375.5t-331.5 -137.5q-193 0 -284 143.5t-55 369.5l3 23q0 2 1 6.5t2 6.5l18 113q57 358 202.5 553t329.5 237q66 17 104 44t47 83h217l2 -6q-28 -198 -114 -258t-287 -96q-81 -17 -136 -81.5t-86 -177.5 l4 -4q47 38 103.5 61.5t114.5 23.5zM553 793q-73 0 -117.5 -77t-64.5 -201l-3 -23q-23 -138 -4.5 -211t95.5 -68l6 -1q70 -5 113.5 72t65.5 208l3 23q21 132 2.5 205t-96.5 73z" horiz-adv-x="977" unicode="б"/><glyph d="M22 0l216 1082h379q167 0 256 -77.5t60 -223.5q-17 -81 -71.5 -139.5t-140.5 -87.5q103 -24 143.5 -90.5t22.5 -156.5q-33 -162 -139.5 -234.5t-290.5 -72.5h-435zM394 452l-45 -227h153q43 0 70.5 28t38.5 84q12 60 -0.5 87.5t-63.5 27.5h-153zM432 639h103 q44 0 71.5 26t38.5 78q12 63 -5.5 88t-67.5 25h-97z" horiz-adv-x="962" unicode="в"/><glyph d="M787 854h-333l-171 -854h-282l216 1082h615z" horiz-adv-x="716" unicode="г"/><glyph d="M74 228q108 100 149.5 197.5t83.5 300.5l72 356h686l-171 -855h138l-129 -552h-263l65 325h-467l-65 -325h-264l86 553h79zM589 726q-39 -163 -93.5 -287t-121.5 -212h239l125 624h-124z" horiz-adv-x="1102" unicode="д"/><glyph d="M423 -21q-189 0 -286 135t-64 337l24 152q36 227 163 363t318 136q176 0 258.5 -128.5t48.5 -344.5l-28 -174h-504v-4q-18 -111 15 -178t125 -67q72 0 124.5 18.5t123.5 59.5l42 -181q-62 -54 -157 -89t-203 -35zM542 874q-58 0 -97 -62.5t-61 -166.5h226l7 40 q15 94 -1.5 141.5t-73.5 47.5z" horiz-adv-x="907" unicode="е"/><glyph d="M976 404h-90l-80 -404h-282l80 404h-87l-207 -404h-361l369 590l-149 492h358l59 -407h72l82 407h282l-82 -407h77l220 407h358l-345 -492l133 -590h-361z" horiz-adv-x="1491" unicode="ж"/><glyph d="M367 643h123q40 0 67.5 32.5t39.5 88.5q11 58 0.5 91.5t-56.5 33.5q-42 0 -74.5 -31.5t-42.5 -85.5h-273l-2 6q27 156 143.5 239t274.5 83q164 0 254 -83t61 -230q-16 -79 -64 -140t-120 -94q66 -34 93.5 -97.5t10.5 -151.5q-32 -161 -155.5 -242t-303.5 -81 q-144 0 -240 86.5t-59 245.5l2 5h274q-12 -60 6.5 -93.5t75.5 -33.5q47 0 79 39t44 97q15 75 -3 105.5t-68 30.5h-123l10 54l10 48l4 21z" horiz-adv-x="879" unicode="з"/><glyph d="M727 1082h282l-216 -1082h-282l112 563l-5 3l-334 -566h-283l216 1082h283l-112 -562l5 -3z" horiz-adv-x="963" unicode="и"/><glyph d="M727 1082h282l-216 -1082h-282l112 563l-5 3l-334 -566h-283l216 1082h283l-112 -562l5 -3zM996 1554l2 -6q-17 -134 -111 -212t-235 -78q-136 0 -208.5 81.5t-47.5 209.5l2 5h206q-9 -54 9 -87.5t67 -33.5q45 0 73 34t37 87h206z" horiz-adv-x="963" unicode="й"/><glyph d="M452 402h-68l-80 -402h-282l216 1082h282l-82 -409h68l223 409h356l-362 -492l168 -590h-376z" horiz-adv-x="982" unicode="к"/><glyph d="M1010 1082l-216 -1082h-282l170 854h-154l-47 -236q-69 -340 -180.5 -479t-323.5 -139h-38l42 230h24q73 0 109.5 79.5t83.5 308.5l92 464h720z" horiz-adv-x="965" unicode="л"/><glyph d="M917 537l-5 2l-265 -539h-188l-47 511l-6 1l-102 -512h-282l216 1082h347l32 -739l6 -1l331 740h355l-216 -1082h-283z" horiz-adv-x="1296" unicode="м"/><glyph d="M791 0h-283l84 420h-225l-84 -420h-282l216 1082h282l-87 -436h225l87 436h283z" horiz-adv-x="963" unicode="н"/><glyph d="M87 607q36 226 166.5 360.5t332.5 134.5q191 0 283.5 -140t58.5 -355l-21 -134q-37 -228 -168 -361t-331 -133q-193 0 -285.5 138.5t-56.5 355.5zM346 473q-21 -130 -1.5 -198.5t99.5 -68.5q73 0 117 72t64 195l21 134q20 127 0.5 197t-96.5 70q-74 0 -119.5 -73.5 t-63.5 -193.5z" unicode="о"/><glyph d="M793 0h-283l170 854h-227l-170 -854h-282l216 1082h792z" horiz-adv-x="963" unicode="п"/><glyph d="M919 494q-52 -258 -157.5 -386.5t-270.5 -128.5q-59 0 -108 23.5t-82 69.5l-97 -488h-282l299 1498h262l-9 -82q46 49 98 75.5t109 26.5q153 0 222 -169t20 -418zM641 515q33 166 21 262.5t-83 96.5q-38 0 -73 -28t-65 -77l-104 -519q13 -24 39 -34t69 -10q68 0 115.5 75 t76.5 213z" unicode="р"/><glyph d="M433 206q51 0 84.5 43t46.5 124h255l2 -6q-26 -177 -144 -282.5t-280 -105.5q-193 0 -283.5 138.5t-55.5 352.5l22 139q36 224 164.5 358.5t330.5 134.5q162 0 246.5 -114.5t54.5 -308.5h-263q14 93 -2.5 144t-71.5 51q-74 0 -116 -73t-61 -192l-22 -139 q-21 -129 -4 -196.5t97 -67.5z" horiz-adv-x="878" unicode="с"/><glyph d="M934 856h-266l-171 -856h-284l171 856h-264l45 226h814z" horiz-adv-x="884" unicode="т"/><glyph d="M431 467l6 -2l264 617h301l-595 -1245q-62 -116 -143.5 -195t-217.5 -79q-32 0 -59 6t-68 18l76 212q13 -3 21 -4.5t16 -1.5q54 0 92 33.5t61 84.5l38 78l-84 1093h303z" horiz-adv-x="880" unicode="у"/><glyph d="M77 535q54 272 166.5 419.5t272.5 147.5q25 0 47 -5.5t42 -14.5l96 478h283l-96 -477q24 9 49 14t52 5q145 0 203.5 -158.5t9.5 -408.5l-4 -21q-52 -258 -163 -396.5t-269 -138.5q-27 0 -50.5 5.5t-43.5 14.5l-83 -415h-283l82 412q-23 -8 -48 -12.5t-50 -4.5 q-145 0 -205 149t-12 386zM919 535q32 163 22.5 251t-72.5 88q-6 0 -10 -0.5t-13 -1.5l-133 -665q5 -1 10 -1h14q58 0 103.5 83.5t74.5 224.5zM355 514q-32 -154 -21.5 -231t75.5 -77h12t10 1l133 666q-3 0 -9.5 0.5t-9.5 0.5q-59 0 -107.5 -94.5t-78.5 -244.5z" horiz-adv-x="1236" unicode="ф"/><glyph d="M485 743l6 -1l155 340h317l-338 -535l172 -547h-316l-49 349l-5 1l-161 -350h-317l347 547l-168 535h316z" horiz-adv-x="880" unicode="х"/><glyph d="M217 1082h282l-171 -855h227l171 855h283l-171 -857h146l-128 -546h-262l64 321h-657z" horiz-adv-x="1053" unicode="ц"/><glyph d="M781 0h-283l68 340q-23 -5 -44 -7t-39 -2q-192 0 -288.5 102t-53.5 313l67 336h281l-67 -336q-23 -117 1 -152.5t106 -35.5q19 0 39 2.5t43 8.5l103 513h283z" horiz-adv-x="952" unicode="ч"/><glyph d="M499 1082l-171 -855h187l171 855h282l-171 -855h190l171 855h281l-216 -1082h-1222l216 1082h282z" horiz-adv-x="1411" unicode="ш"/><glyph d="M497 1082l-171 -855h187l171 855h282l-171 -855h190l171 855h281l-171 -856h200l-128 -547h-263l64 321h-1140l216 1082h282z" horiz-adv-x="1572" unicode="щ"/><glyph d="M171 1082h522l-64 -319h134q173 0 263.5 -107t57.5 -277q-36 -180 -161 -279.5t-313 -99.5h-416l170 854h-238zM584 537l-62 -312h133q55 0 94.5 44t53.5 110q14 74 -6 116t-80 42h-133z" horiz-adv-x="1129" unicode="ъ"/><glyph d="M457 763h134q173 0 263.5 -107t57.5 -277q-36 -180 -161 -279.5t-313 -99.5h-416l216 1082h283zM1237 0h-283l216 1082h283zM412 537l-62 -312h133q55 0 94.5 44t53.5 110q14 74 -6 116t-80 42h-133z" horiz-adv-x="1440" unicode="ы"/><glyph d="M457 763h134q173 0 263.5 -107t57.5 -277q-36 -180 -161 -279.5t-313 -99.5h-416l216 1082h283zM412 537l-62 -312h133q55 0 94.5 44t53.5 110q14 74 -6 116t-80 42h-133z" horiz-adv-x="961" unicode="ь"/><glyph d="M506 874q-50 0 -85 -44t-50 -122h-257l-2 6q32 180 154 284t285 104q185 0 268.5 -156.5t36.5 -391.5l-6 -28q-52 -257 -186.5 -402t-335.5 -145q-158 0 -240 115t-44 308h265q-19 -96 -5 -146t69 -50q61 0 105.5 68.5t74.5 184.5h-179l34 169h179q19 120 2.5 183 t-83.5 63z" horiz-adv-x="873" unicode="э"/><glyph d="M441 663h64q45 203 172 321t316 118q191 0 283.5 -140t58.5 -355l-21 -134q-37 -228 -168 -361t-331 -133q-185 0 -277.5 127t-69.5 330h-72l-87 -436h-283l216 1082h283zM753 473q-21 -130 -1.5 -198.5t99.5 -68.5q73 0 117 72t64 195l21 134q20 127 0.5 197t-96.5 70 q-74 0 -119.5 -73.5t-63.5 -193.5z" horiz-adv-x="1366" unicode="ю"/><glyph d="M981 1082l-216 -1082h-282l75 375h-85l-243 -375h-283l283 433q-71 45 -101.5 120t-11.5 167q33 169 157.5 265.5t307.5 96.5h399zM396 711q-12 -60 10 -100.5t78 -40.5h113l57 286h-117q-49 0 -89.5 -45t-51.5 -100z" horiz-adv-x="958" unicode="я"/><glyph d="M423 -21q-189 0 -286 135t-64 337l24 152q36 227 163 363t318 136q176 0 258.5 -128.5t48.5 -344.5l-28 -174h-504v-4q-18 -111 15 -178t125 -67q72 0 124.5 18.5t123.5 59.5l42 -181q-62 -54 -157 -89t-203 -35zM542 874q-58 0 -97 -62.5t-61 -166.5h226l7 40 q15 94 -1.5 141.5t-73.5 47.5zM719 1238h-226l-200 266h302z" horiz-adv-x="907" unicode="ѐ"/><glyph d="M423 -21q-189 0 -286 135t-64 337l24 152q36 227 163 363t318 136q176 0 258.5 -128.5t48.5 -344.5l-28 -174h-504v-4q-18 -111 15 -178t125 -67q72 0 124.5 18.5t123.5 59.5l42 -181q-62 -54 -157 -89t-203 -35zM542 874q-58 0 -97 -62.5t-61 -166.5h226l7 40 q15 94 -1.5 141.5t-73.5 47.5zM923 1285h-245l32 198h245zM493 1285h-245l32 198h245z" horiz-adv-x="907" unicode="ё"/><glyph d="M688 1193h-171l-44 -220l5 -4q48 64 109.5 98.5t127.5 34.5q128 0 187.5 -116.5t13.5 -351.5l-34 -166h2l-101 -502q-41 -206 -146 -304.5t-263 -98.5q-32 0 -61.5 4t-57.5 13l55 223q21 -6 37 -9.5t38 -3.5q36 0 67 46.5t48 129.5l7 34h-1l127 636q29 143 11 190.5 t-81 47.5q-34 0 -65 -17.5t-58 -49.5l-161 -807h-282l238 1193h-104l35 175h104l39 192h282l-39 -192h171z" horiz-adv-x="962" unicode="ђ"/><glyph d="M787 854h-333l-171 -854h-282l216 1082h615zM584 1483h295l2 -6l-280 -260h-226z" horiz-adv-x="716" unicode="ѓ"/><glyph d="M432 206q51 0 84.5 43t46.5 124h255l2 -6q-26 -177 -144 -282.5t-280 -105.5q-193 0 -283.5 138.5t-55.5 352.5l22 139q36 224 164.5 358.5t330.5 134.5q162 0 246.5 -114.5t54.5 -308.5h-263q14 93 -2.5 144t-71.5 51q-74 0 -116 -72t-61 -189h206l-34 -169h-198 q-17 -115 2 -176.5t95 -61.5z" horiz-adv-x="874" unicode="є"/><glyph d="M510 283q8 48 -19.5 80t-115.5 82q-146 61 -212 138t-46 200q22 137 136 228t282 91q166 0 256.5 -97t63.5 -244l-3 -6h-272q10 70 -8 109t-70 39q-38 0 -73 -31.5t-41 -74.5q-9 -49 15.5 -77.5t116.5 -80.5q154 -58 219 -137.5t45 -208.5q-24 -143 -141.5 -228.5 t-291.5 -85.5q-173 0 -263 110t-65 246l2 5h259q-12 -87 15.5 -124.5t89.5 -37.5q48 0 80.5 28.5t40.5 76.5z" horiz-adv-x="857" unicode="ѕ"/><glyph d="M299 0h-281l216 1082h281zM568 1343h-281l43 217h281z" horiz-adv-x="488" unicode="і"/><glyph d="M309 0h-283l216 1082h283zM760 1263h-245l32 198h245zM330 1263h-245l32 198h245z" horiz-adv-x="507" unicode="ї"/><glyph d="M521 1082l-223 -1115q-41 -206 -145.5 -305t-262.5 -99q-31 0 -60 4.5t-61 13.5l57 223q20 -6 35.5 -9t37.5 -3q38 0 69.5 44.5t47.5 130.5l223 1115h282zM568 1343h-281l43 217h281z" horiz-adv-x="479" unicode="ј"/><glyph d="M1005 1082l-69 -344h135q172 0 264.5 -103.5t60.5 -264.5q-36 -177 -160.5 -273.5t-312.5 -96.5h-416l170 854h-131l-47 -236q-68 -335 -187.5 -476.5t-333.5 -141.5h-37l42 228h22q64 0 118 96.5t94 293.5l92 464h696zM891 512l-57 -287h134q56 0 95.5 42t51.5 105 q13 64 -8 102t-82 38h-134z" horiz-adv-x="1446" unicode="љ"/><glyph d="M414 660h225l85 422h283l-69 -344h134q173 0 265 -103.5t60 -264.5q-36 -177 -160 -273.5t-313 -96.5h-416l86 434h-225l-86 -434h-282l216 1082h282zM893 512l-57 -287h133q56 0 95.5 42t51.5 105q13 64 -8 102t-82 38h-133z" horiz-adv-x="1447" unicode="њ"/><glyph d="M702 1206h-182l-47 -233l5 -3q49 63 110 97.5t127 34.5q128 0 187.5 -116.5t13.5 -351.5l-127 -634h-283l127 636q29 143 11 190.5t-81 47.5q-34 0 -65 -17.5t-58 -49.5l-161 -807h-282l241 1206h-93l35 175h93l36 179h282l-36 -179h182z" horiz-adv-x="962" unicode="ћ"/><glyph d="M452 402h-68l-80 -402h-282l216 1082h282l-82 -409h68l223 409h356l-362 -492l168 -590h-376zM710 1482h295l2 -6l-280 -260h-226z" horiz-adv-x="982" unicode="ќ"/><glyph d="M727 1082h282l-216 -1082h-282l112 563l-5 3l-334 -566h-283l216 1082h283l-112 -562l5 -3zM786 1216h-226l-200 266h302z" horiz-adv-x="963" unicode="ѝ"/><glyph d="M431 467l6 -2l264 617h301l-595 -1245q-62 -116 -143.5 -195t-217.5 -79q-32 0 -59 6t-68 18l76 212q13 -3 21 -4.5t16 -1.5q54 0 92 33.5t61 84.5l38 78l-84 1093h303zM949 1554l2 -6q-17 -134 -111 -212t-235 -78q-136 0 -208.5 81.5t-47.5 209.5l2 5h206 q-9 -54 9 -87.5t67 -33.5q45 0 73 34t37 87h206z" horiz-adv-x="880" unicode="ў"/><glyph d="M499 1082l-171 -855h227l171 855h283l-216 -1082h-257l-71 -358h-282l71 358h-253l216 1082h282z" horiz-adv-x="963" unicode="џ"/><glyph d="M1711 1456l-199 -995q-49 -247 -186.5 -364.5t-330.5 -117.5q-81 0 -145 37t-101 109q-64 -74 -145.5 -110t-174.5 -36q-176 0 -273 127.5t-51 354.5l199 995h282l-199 -995q-28 -137 -4 -196t91 -59q64 0 115.5 64t77.5 191l199 995h283l-199 -995q-28 -137 -3 -196 t93 -59q63 0 114 64t77 191l199 995h281z" horiz-adv-x="1615" unicode="Ѡ"/><glyph d="M1468 1082l-125 -629q-49 -243 -174 -358.5t-301 -115.5q-73 0 -129 32.5t-87 96.5q-58 -66 -131 -97.5t-155 -31.5q-161 0 -244.5 125t-37.5 349l125 629h281l-125 -629q-28 -136 -16 -191t61 -48l5 -1q51 -6 93 54.5t68 185.5l125 629h282l-125 -629 q-28 -138 -15.5 -192t68.5 -47l6 -1q44 -6 80.5 53.5t62.5 186.5l125 629h283z" horiz-adv-x="1386" unicode="ѡ"/><glyph d="M675 1093h-154l-34 -173h169q197 0 303.5 -126.5t66.5 -328.5q-45 -222 -193 -343.5t-361 -121.5h-450l218 1093h-122l35 175h122l38 188h281l-38 -188h154zM441 693l-93 -466h169q78 0 142.5 69.5t84.5 170.5q21 105 -13 165.5t-120 60.5h-170z" horiz-adv-x="1066" unicode="Ѣ"/><glyph d="M705 1081h-185l-60 -296h135q173 0 263.5 -110t56.5 -281q-39 -189 -164 -291.5t-313 -102.5h-416l216 1081h-113l35 175h113l61 305h282l-61 -305h185zM415 559l-66 -334h134q55 0 95 48t56 121q15 75 -4.5 120t-79.5 45h-135z" horiz-adv-x="961" unicode="ѣ"/><glyph d="M461 858h127l4 17q57 289 203 446t356 157q213 0 325 -141.5t81 -385.5h-281q24 148 -10.5 223.5t-141.5 75.5q-82 0 -150 -103t-101 -270l-4 -19h328l-46 -228h-327l-9 -45q-37 -179 -2 -278.5t135 -99.5q89 0 144 69.5t92 219.5h273l2 -6q-60 -251 -188 -380.5 t-342 -129.5q-206 0 -326.5 173t-68.5 432l9 45h-127l-126 -630h-281l291 1456h281z" horiz-adv-x="1499" unicode="Ѥ"/><glyph d="M417 632h63q40 214 167 342t324 128q162 0 246.5 -114.5t54.5 -308.5h-263q14 93 -2.5 144t-71.5 51q-71 0 -112 -66.5t-61 -175.5h231l-35 -175h-224q-19 -122 -1 -186.5t96 -64.5q51 0 84.5 43t46.5 124h255l2 -6q-26 -177 -144 -282.5t-280 -105.5 q-190 0 -280.5 134.5t-60.5 343.5h-70l-91 -457h-283l216 1082h283z" horiz-adv-x="1279" unicode="ѥ"/><glyph d="M726 388h-46l-78 -388h-232l78 388h-38l-178 -388h-295l699 1456h293l115 -1456h-294zM501 586h213l-24 399l-6 1z" horiz-adv-x="1143" unicode="Ѧ"/><glyph d="M562 276h-34l-55 -276h-172l55 276h-23l-118 -276h-287l533 1082h296l102 -1082h-287zM411 457h145l-7 215v98l-6 1l-40 -99z" horiz-adv-x="968" unicode="ѧ"/><glyph d="M425 586h238l418 870h293l115 -1456h-294l-24 388h-46l-78 -388h-232l78 388h-38l-178 -388h-295l186 387h-183l-77 -387h-281l291 1456h281zM946 586h213l-24 399l-6 1z" horiz-adv-x="1607" unicode="Ѩ"/><glyph d="M382 457h178l308 625h296l102 -1082h-287l-10 276h-34l-55 -276h-172l55 276h-23l-118 -276h-287l136 277h-125l-55 -277h-283l216 1082h283zM818 457h145l-7 215v98l-6 1l-40 -99z" horiz-adv-x="1374" unicode="ѩ"/><glyph d="M6 0l68 341q50 253 179 353t354 103l-174 659h1075l-440 -661q187 -12 274 -122t43 -332l-68 -341h-282l68 341q27 135 -4.5 180.5t-125.5 45.5h-44l-113 -567h-281l113 567h-72q-86 0 -141 -51t-79 -175l-68 -341h-282zM856 901l6 -1l197 325h-270z" horiz-adv-x="1494" unicode="Ѫ"/><glyph d="M891 604q137 -24 198 -126t24 -291l-37 -187h-282l37 187q24 121 8 163t-71 36l-6 -1l-77 -385h-282l79 397h-1q-58 0 -97.5 -47.5t-62.5 -162.5l-37 -187h-282l37 187q43 213 141.5 309t261.5 112l-128 474h897zM647 898l34 -210l5 -1l118 211h-157z" horiz-adv-x="1249" unicode="ѫ"/><glyph d="M502 0l68 341q13 68 32.5 124.5t45.5 103.5h-219l-113 -569h-281l291 1456h281l-132 -657h628l-174 657h1075l-440 -661q187 -12 274 -122t43 -332l-68 -341h-282l68 341q27 135 -4.5 180.5t-125.5 45.5h-44l-113 -567h-281l113 567h-72q-86 0 -141 -51t-79 -175 l-68 -341h-282zM1352 901l6 -1l197 325h-270z" horiz-adv-x="1991" unicode="Ѭ"/><glyph d="M483 0l37 187q13 66 31.5 120.5t43.5 98.5h-205l-81 -406h-283l216 1082h283l-94 -469h491l-127 469h897l-320 -478q137 -24 198 -126t24 -291l-37 -187h-282l37 187q24 121 8 163t-71 36l-6 -1l-77 -385h-282l79 397h-1q-58 0 -97.5 -47.5t-62.5 -162.5l-37 -187h-282z M1128 898l34 -210l5 -1l118 211h-157z" horiz-adv-x="1730" unicode="ѭ"/><glyph d="M270 863h126q66 0 112 51.5t63 135.5q17 86 -11.5 128.5t-105.5 42.5h-193l47 235h193q203 0 299 -94t59 -284q-27 -129 -92.5 -212t-164.5 -124q100 -45 144.5 -131t20.5 -205q-44 -215 -172.5 -320t-321.5 -105h-44q-36 0 -61 -26.5t-33 -70.5q-13 -62 11 -95.5 t66 -59.5l-111 -172q-139 33 -190 128t-24 240q31 152 124.5 221.5t238.5 69.5h53q63 0 114 52t67 134q24 118 -13 171.5t-131 53.5h-118l32 157zM658 1786l105 127h254l-3 -17l-291 -253h-189l-188 255l3 15h253z" horiz-adv-x="874" unicode="Ѯ"/><glyph d="M438 1082q196 0 292.5 -73t67.5 -221q-20 -93 -70 -155t-127 -95q83 -35 121 -94.5t22 -139.5q-33 -162 -149 -242.5t-295 -80.5h-40q-45 0 -74 -26t-37 -71q-13 -62 6 -95.5t54 -59.5l-106 -156q-107 39 -157.5 132.5t-27.5 219.5q28 135 111.5 197t212.5 62h49 q64 0 113.5 36.5t61.5 94.5q14 71 -20 104t-112 33h-135l17 84l18 89h144q50 0 85 37t48 99q12 58 -16 87.5t-97 29.5h-201l40 204h201zM594 1400l105 127h254l-3 -17l-291 -253h-189l-188 255l3 15h253z" horiz-adv-x="871" unicode="ѯ"/><glyph d="M799 605l6 -2q72 16 127 104.5t86 241.5l101 507h283l-101 -507q-56 -276 -199.5 -424t-352.5 -172l-70 -353h-281l70 352q-191 25 -283.5 182.5t-40.5 414.5l101 507h282l-101 -507q-33 -162 -10 -248t96 -101l6 1l171 855h281z" horiz-adv-x="1239" unicode="Ѱ"/><glyph d="M909 1081l-167 -830l5 -3q90 32 152.5 125.5t89.5 224.5q21 116 24 235.5t-6 248.5h255q29 -97 33.5 -218t-23.5 -266q-52 -257 -191.5 -416.5t-390.5 -193.5l-92 -461h-282l93 466q-195 38 -285.5 186.5t-37.5 408.5l98 494h283l-99 -496q-32 -157 -7 -240t93 -104h6 l167 839h282z" horiz-adv-x="1291" unicode="ѱ"/><glyph d="M1073 523q-55 -273 -212.5 -408.5t-383.5 -135.5q-207 0 -317 146t-59 398l81 408q54 272 211 409t382 137q206 0 317.5 -148t61.5 -398zM816 645h-412l-24 -122q-34 -168 2 -242t140 -74q94 0 166 80.5t104 235.5zM439 820h412l23 113q32 167 -4.5 241t-139.5 74 q-96 0 -167 -80.5t-101 -234.5z" horiz-adv-x="1170" unicode="Ѳ"/><glyph d="M85 607q36 226 166.5 360.5t332.5 134.5q191 0 283.5 -140t58.5 -355l-21 -134q-37 -228 -168 -361t-331 -133q-193 0 -285.5 138.5t-56.5 355.5zM548 874q-72 0 -116.5 -68.5t-63.5 -180.5h279q17 118 -4 183.5t-95 65.5zM442 206q69 0 112 65.5t64 177.5h-278 q-17 -118 4.5 -180.5t97.5 -62.5z" horiz-adv-x="958" unicode="ѳ"/><glyph d="M534 376l-1 -49l6 -1l19 47l297 758q79 173 169.5 258.5t214.5 85.5l35 -1l-50 -236h-26q-30 0 -58 -33t-44 -91l-478 -1114h-292l-102 1456h297z" horiz-adv-x="1101" unicode="Ѵ"/><glyph d="M410 408l-3 -50l6 -1l18 51l120 359q74 166 164 250.5t207 84.5q23 0 43.5 -4.5t35.5 -13.5l-65 -223q-1 1 -14.5 3t-21.5 2q-29 0 -58 -31.5t-43 -81.5l-320 -753h-276l-54 1082h295z" horiz-adv-x="878" unicode="ѵ"/><glyph d="M534 376l-1 -49l6 -1l19 47l297 758q79 173 169.5 258.5t214.5 85.5l35 -1l-50 -236h-26q-30 0 -58 -33t-44 -91l-478 -1114h-292l-102 1456h297zM723 1588h-226l-177 266h267zM1026 1588h-224l-142 266h264z" horiz-adv-x="1101" unicode="Ѷ"/><glyph d="M410 408l-3 -50l6 -1l18 51l120 359q74 166 164 250.5t207 84.5q23 0 43.5 -4.5t35.5 -13.5l-65 -223q-1 1 -14.5 3t-21.5 2q-29 0 -58 -31.5t-43 -81.5l-320 -753h-276l-54 1082h295zM594 1258h-226l-177 266h267zM897 1258h-224l-142 266h264z" horiz-adv-x="878" unicode="ѷ"/><glyph d="M1114 596q-58 -289 -218 -453t-384 -164q-209 0 -330 179.5t-68 441.5l52 259q58 290 212.5 454t376.5 164q211 0 337 -181t74 -441zM885 857q36 177 -14.5 284t-160.5 107q-94 0 -161.5 -106t-102.5 -281l-52 -261q-36 -180 9 -286.5t154 -106.5q95 0 168 107.5 t108 281.5zM1552 467l6 -2l264 617h301l-595 -1245q-62 -116 -143.5 -195t-217.5 -79q-32 0 -59 6t-68 18l76 212q13 -3 21 -4.5t16 -1.5q54 0 92 33.5t61 84.5l38 78l-84 1093h303z" horiz-adv-x="2001" unicode="Ѹ"/><glyph d="M87 607q36 226 166.5 360.5t332.5 134.5q191 0 283.5 -140t58.5 -355l-21 -134q-37 -228 -168 -361t-331 -133q-193 0 -285.5 138.5t-56.5 355.5zM346 473q-21 -130 -1.5 -198.5t99.5 -68.5q73 0 117 72t64 195l21 134q20 127 0.5 197t-96.5 70q-74 0 -119.5 -73.5 t-63.5 -193.5zM1391 467l6 -2l264 617h301l-595 -1245q-62 -116 -143.5 -195t-217.5 -79q-32 0 -59 6t-68 18l76 212q13 -3 21 -4.5t16 -1.5q54 0 92 33.5t61 84.5l38 78l-84 1093h303z" horiz-adv-x="1840" unicode="ѹ"/><glyph d="M1120 596q-58 -289 -218 -453q-135 -138 -315 -160l-23 -118h-177l25 127q-136 35 -224 166q-121 180 -68 442l52 259q58 290 212 454q135 143 322 161l21 102h177l-23 -116q129 -38 217 -164q126 -181 74 -441zM891 857q36 177 -15 284q-19 39 -46 64l-17 -86h-177 l23 119q-58 -23 -105 -96q-67 -106 -102 -281l-52 -261q-36 -180 9 -287q20 -47 53 -74l18 92h177l-22 -107q52 26 96 90q73 108 108 282z" horiz-adv-x="1170" unicode="Ѻ"/><glyph d="M456 -126h-175l23 117q-116 28 -182 126q-92 139 -56 356l21 134q36 226 166 360q113 116 278 132l21 105h176l-24 -118q104 -32 165 -124q93 -140 59 -355l-21 -134q-37 -228 -168 -361q-108 -109 -261 -129zM346 473q-21 -130 -2 -199q4 -14 11 -26l18 87h175l-19 -97 q17 16 32 40q44 72 64 195l21 134q19 124 1 193l-8 -42h-176l19 97q-29 -18 -52 -55q-45 -73 -63 -193z" horiz-adv-x="962" unicode="ѻ"/><glyph d="M1271 1447l6 1q173 5 268.5 -124t50.5 -358l-99 -498q-51 -249 -189 -369t-330 -120q-78 0 -140.5 34t-99.5 100q-63 -68 -141.5 -101t-167.5 -33q-176 0 -272 129.5t-50 359.5l99 498q50 248 187 367.5t324 114.5l5 -3l-43 -217q-62 0 -114 -66.5t-77 -195.5l-99 -498 q-29 -141 -5.5 -201.5t90.5 -60.5q64 0 115.5 64t77.5 191l73 364h266l-73 -364q-28 -138 -4.5 -196.5t94.5 -58.5q62 0 114 66t79 196l99 498q27 140 3.5 201t-90.5 61zM1413 1703l-26 -127h-17q-93 0 -217.5 62.5t-155.5 62.5q-30 0 -56.5 -28.5t-35.5 -79.5l-4 -18h-118 l7 36q23 114 81 166t149 52q48 0 167.5 -63t209.5 -63h16zM930 1290l-63 50l68 108l28 148h158l-26 -131z" horiz-adv-x="1615" unicode="Ѽ"/><glyph d="M1006 1091l6 1q164 5 256 -118t49 -341l-38 -188q-48 -238 -171 -352t-291 -114q-64 0 -114 33t-78 97q-53 -66 -118 -98t-137 -32q-155 0 -237 123.5t-38 342.5l38 188q47 237 177.5 350.5t309.5 108.5l5 -3l-44 -217q-54 0 -98 -60t-67 -179l-38 -188 q-27 -130 -16.5 -184t52.5 -46l6 -1q36 -7 72.5 54t62.5 185l32 160h267l-32 -160q-28 -135 -17 -190.5t56 -47.5l5 -1q35 -7 71 52.5t60 178.5l38 188q25 128 5 183.5t-78 55.5zM1241 1364l-26 -128h-16q-94 0 -218 62.5t-155 62.5t-57 -28t-35 -80l-4 -18h-118l7 36 q23 116 80.5 167t149.5 51q48 0 167 -62.5t209 -62.5h16zM745 977l-65 58l89 99l21 112l178 -10l-25 -107z" horiz-adv-x="1371" unicode="ѽ"/><glyph d="M685 1688l21 108h749l-20 -108h-299l-25 -125h-165l25 125h-286zM1711 1456l-199 -995q-49 -247 -186.5 -364.5t-330.5 -117.5q-81 0 -145 37t-101 109q-64 -74 -145.5 -110t-174.5 -36q-176 0 -273 127.5t-51 354.5l199 995h282l-199 -995q-28 -137 -4 -196t91 -59 q64 0 115.5 64t77.5 191l199 995h283l-199 -995q-28 -137 -3 -196t93 -59q63 0 114 64t77 191l199 995h281z" horiz-adv-x="1616" unicode="Ѿ"/><glyph d="M553 1349l21 108h682l-16 -108h-272l-26 -127h-164l26 127h-251zM1468 1082l-125 -629q-49 -243 -174 -358.5t-301 -115.5q-73 0 -129 32.5t-87 96.5q-58 -66 -131 -97.5t-155 -31.5q-161 0 -244.5 125t-37.5 349l125 629h281l-125 -629q-28 -136 -16 -191t61 -48l5 -1 q51 -6 93 54.5t68 185.5l125 629h282l-125 -629q-28 -138 -15.5 -192t68.5 -47l6 -1q44 -6 80.5 53.5t62.5 186.5l125 629h283z" horiz-adv-x="1387" unicode="ѿ"/><glyph d="M559 -360h-281l70 353q-150 42 -218.5 202t-22.5 387l59 291q57 285 211.5 444.5t366.5 159.5q201 0 296 -131t47 -372h-282q30 155 7.5 215t-113.5 60q-83 0 -151 -103.5t-101 -270.5l-59 -293q-37 -183 -13 -279.5t115 -96.5h182z" horiz-adv-x="1049" unicode="Ҁ"/><glyph d="M516 -362h-282l70 354q-138 39 -194 185t-15 349l6 28q51 256 185 402t337 146q157 0 239 -115.5t44 -307.5h-263q18 94 4 143.5t-67 44.5l-6 1q-67 4 -115 -84t-76 -230l-6 -28q-31 -156 -21.5 -236t81.5 -84h192z" horiz-adv-x="914" unicode="ҁ"/><glyph d="M508 446l198 -172l-87 -123l-201 170l-209 -321h-151l261 398l-198 171l85 123l203 -171l231 365l-200 171l88 125l200 -171l212 331h148l-260 -408l201 -171l-90 -122l-199 170z" horiz-adv-x="1059" unicode="҂"/><glyph d="M-391 1315l-25 -125l-161 1l48 233h451l20 108l159 -1l-43 -216h-449z" horiz-adv-x="26" unicode="҃"/><glyph d="M-499 1431q93 0 242.5 63t198.5 63q93 0 132.5 -52t16.5 -166l-7 -36h-121l3 18q11 51 -5 79.5t-47 28.5q-32 0 -186 -62.5t-250 -62.5h-18l25 127h16z" horiz-adv-x="26" unicode="҄"/><glyph d="M-257 1500l29 146h165l-33 -163l24 -108l-84 -65z" horiz-adv-x="26" unicode="҅"/><glyph d="M-221 1310l-59 65l68 108l31 163h165l-29 -146z" horiz-adv-x="26" unicode="҆"/><glyph d="M-490 1267l-2 6q14 84 68.5 133t133.5 49q72 0 110 -53.5t21 -134.5h-90q10 46 -3.5 73.5t-54.5 27.5q-37 0 -64 -29.5t-36 -71.5h-83zM-68 990l-2 6q14 84 68 133t133 49q71 0 109 -53.5t22 -134.5h-91q9 46 -4.5 73.5t-53.5 27.5q-38 0 -63.5 -29.5t-34.5 -71.5h-83z M-19 487l-2 6q14 84 67.5 133t131.5 49q73 0 110.5 -53t21.5 -135h-90q9 46 -4.5 73.5t-54.5 27.5q-36 0 -62.5 -29.5t-34.5 -71.5h-83zM-281 -32l-2 6q13 84 68 133t133 49q72 0 109.5 -53.5t20.5 -134.5h-88q9 46 -4 73.5t-55 27.5q-37 0 -63 -29.5t-35 -71.5h-84z M-802 -316l-2 6q14 85 68 133.5t132 48.5q74 0 112 -53t21 -135h-90q9 47 -4.5 74t-55.5 27q-36 0 -62.5 -29t-34.5 -72h-84zM-1007 990l-2 6q14 84 68.5 133t133.5 49q73 0 111 -53.5t21 -134.5h-90q10 46 -3.5 73.5t-56.5 27.5q-37 0 -63 -29.5t-35 -71.5h-84zM-1250 487 l-2 6q14 84 69 133t132 49q74 0 111.5 -53t20.5 -135h-89q10 46 -3.5 73.5t-56.5 27.5q-36 0 -62.5 -29.5t-35.5 -71.5h-84zM-1219 -32l-2 6q13 84 67.5 133t132.5 49q74 0 112.5 -53.5t21.5 -134.5h-91q9 46 -4.5 73.5t-55.5 27.5q-36 0 -62.5 -29.5t-34.5 -71.5h-84z" horiz-adv-x="0" unicode="҈"/><glyph d="M-529 -60l5 -14l-166 -339h-77l127 353h111zM-449 1126l-7 14l166 338h77l-127 -352h-109zM-2 631l13 12l242 -124l-20 -98l-263 71zM-980 433l-12 -12l-244 124l20 98l263 -71zM-122 1002l6 16l287 153l41 -68q-34 -23 -275 -200zM-869 21l-4 -17l-290 -153l-41 69 l277 200zM-814 860l-13 2l-53 326l64 69l101 -299zM-178 161l13 -2l54 -325l-65 -71l-101 299z" horiz-adv-x="0" unicode="҉"/><glyph d="M997 1456h282l-291 -1456h-282l175 878l-6 2l-582 -880h-282l291 1456h282l-176 -880l6 -2zM1166 1897l2 -6q-17 -134 -111 -212t-235 -78q-136 0 -208.5 81.5t-47.5 209.5l2 5h206q-9 -54 9 -87.5t67 -33.5q45 0 73 34t37 87h206zM1217 -35l-205 -311h-164l121 319 l46 231h250z" horiz-adv-x="1178" unicode="Ҋ"/><glyph d="M727 1082h282l-216 -1082h-282l112 563l-5 3l-334 -566h-283l216 1082h283l-112 -562l5 -3zM996 1554l2 -6q-17 -134 -111 -212t-235 -78q-136 0 -208.5 81.5t-47.5 209.5l2 5h206q-9 -54 9 -87.5t67 -33.5q45 0 73 34t37 87h206zM1022 -35l-205 -311h-164l121 319 l46 231h250z" horiz-adv-x="963" unicode="ҋ"/><glyph d="M675 1093h-154l-34 -173h169q197 0 303.5 -126.5t66.5 -328.5q-45 -222 -193 -343.5t-361 -121.5h-450l218 1093h-122l35 175h122l38 188h281l-38 -188h154zM441 693l-93 -466h169q78 0 142.5 69.5t84.5 170.5q21 105 -13 165.5t-120 60.5h-170z" horiz-adv-x="1066" unicode="Ҍ"/><glyph d="M745 1280h-186l-99 -495h135q173 0 263.5 -110t56.5 -281q-39 -189 -164 -291.5t-313 -102.5h-416l255 1280h-112l35 176h113l31 156h282l-31 -156h185zM415 559l-66 -334h134q55 0 95 48t56 121q15 75 -4.5 120t-79.5 45h-135z" horiz-adv-x="961" unicode="ҍ"/><glyph d="M410 522l-104 -522h-283l291 1456h488q194 0 296 -131.5t62 -335.5q-45 -223 -190 -345q-5 -5 -11 -10l74 -126l-106 -85l-84 143q-102 -44 -228 -44h-205zM456 750h205q35 0 67 14l-85 146l106 86l79 -137q35 56 50 128q22 111 -7.5 176t-113.5 65h-205z" horiz-adv-x="1063" unicode="Ҏ"/><glyph d="M919 494q-52 -258 -158 -387l-11 -13l52 -97l-107 -83l-52 98q-68 -33 -152 -33q-59 0 -108 23.5t-82 69.5l-97 -488h-282l299 1498h262l-9 -82q46 49 98 75.5t109 26.5q153 0 222 -169t20 -418zM641 515q33 166 21 262.5t-83 96.5q-38 0 -73 -28t-65 -77l-104 -519 q13 -24 39 -34t69 -10q44 0 79 31l-73 139l106 83l46 -88q19 53 34 123z" horiz-adv-x="956" unicode="ҏ"/><glyph d="M1067 1229h-14v-1h-503l-246 -1228h-283l291 1456h519l76 377h281z" horiz-adv-x="948" unicode="Ґ"/><glyph d="M831 855h-45v-1h-333l-171 -854h-282l216 1082h378l64 320h282z" horiz-adv-x="803" unicode="ґ"/><glyph d="M593 666h-154l-133 -666h-283l133 666h-120l35 175h120l123 615h786l-45 -228h-503l-78 -387h154z" horiz-adv-x="948" unicode="Ғ"/><glyph d="M527 457h-153l-91 -457h-282l91 457h-122l35 175h122l90 450h615l-45 -228h-333l-45 -222h153z" horiz-adv-x="716" unicode="ғ"/><glyph d="M1055 1228h-503l-79 -392h130q214 0 323.5 -150.5t52.5 -436.5q-52 -253 -193.5 -419.5t-381.5 -162.5l-5 3l40 204q108 0 166.5 107t88.5 253q38 189 3.5 281t-140.5 92h-130l-121 -607h-283l291 1456h786z" horiz-adv-x="940" unicode="Ҕ"/><glyph d="M786 854h-333l-38 -191h15q202 0 311 -125t62 -360q-23 -130 -129 -264t-261 -198l-88 186q74 49 125.5 116t70.5 160q26 137 -8.5 196.5t-128.5 59.5h-15l-87 -434h-282l216 1082h615z" horiz-adv-x="920" unicode="ҕ"/><glyph d="M1184 604h-132l-120 -604h-282l120 604h-135l-344 -604h-351l516 804l-209 652h350l110 -594h115l119 594h282l-119 -594h112l340 594h349l-462 -650l186 -806h-350zM1672 -356h-282l111 558h282z" horiz-adv-x="1728" unicode="Җ"/><glyph d="M976 404h-90l-80 -404h-282l80 404h-87l-207 -404h-361l369 590l-149 492h358l59 -407h72l82 407h282l-82 -407h77l220 407h358l-345 -492l133 -590h-361zM1384 -356h-282l111 558h282z" horiz-adv-x="1491" unicode="җ"/><glyph d="M465 853h145q68 0 116 54.5t68 150.5q17 88 -12.5 139.5t-108.5 51.5q-61 0 -114.5 -51.5t-69.5 -134.5h-273l-2 6q34 195 176.5 301.5t327.5 106.5q191 0 294 -110t64 -305q-22 -108 -87 -191t-160 -128q85 -45 121.5 -131t12.5 -206q-43 -214 -189 -320.5t-355 -106.5 q-171 0 -285.5 108.5t-69.5 311.5l2 5h275q-19 -91 15 -144.5t108 -53.5q76 0 137.5 58t79.5 146q25 124 -4.5 173t-111.5 49h-145l31 152zM480 -480h-282l111 558h282z" horiz-adv-x="1053" unicode="Ҙ"/><glyph d="M367 643h123q40 0 67.5 32.5t39.5 88.5q11 58 0.5 91.5t-56.5 33.5q-42 0 -74.5 -31.5t-42.5 -85.5h-273l-2 6q27 156 143.5 239t274.5 83q164 0 254 -83t61 -230q-16 -79 -64 -140t-120 -94q66 -34 93.5 -97.5t10.5 -151.5q-32 -161 -155.5 -242t-303.5 -81 q-144 0 -240 86.5t-59 245.5l2 5h274q-12 -60 6.5 -93.5t75.5 -33.5q47 0 79 39t44 97q15 75 -3 105.5t-68 30.5h-123l10 54l10 48l4 21zM408 -479h-282l111 558h282z" horiz-adv-x="879" unicode="ҙ"/><glyph d="M507 602h-83l-120 -602h-282l291 1456h282l-119 -594h87l325 594h370l-496 -722l217 -734h-324zM990 -356h-282l111 558h282z" horiz-adv-x="1095" unicode="Қ"/><glyph d="M452 402h-68l-80 -402h-282l216 1082h282l-82 -409h68l223 409h356l-362 -492l168 -590h-376zM899 -356h-282l111 558h282z" horiz-adv-x="982" unicode="қ"/><glyph d="M1339 1456l-430 -643l166 -813h-361l-61 602h-29l-47 -235h-150l47 235h-51l-120 -602h-282l291 1456h282l-119 -596h50l53 261h150l-53 -261h19l295 596h350z" horiz-adv-x="1140" unicode="Ҝ"/><glyph d="M1175 1082l-324 -492l112 -590h-360l-13 402h-23l-35 -175h-135l35 175h-48l-80 -402h-282l216 1082h282l-82 -409h48l39 194h135l-39 -194h30l168 409h356z" horiz-adv-x="1057" unicode="ҝ"/><glyph d="M527 602h-83l-120 -602h-282l228 1143h-177l35 175h177l28 138h282l-28 -138h98l-35 -175h-98l-56 -281h87l325 594h370l-496 -722l217 -734h-324z" horiz-adv-x="1115" unicode="Ҟ"/><glyph d="M441 450h-44l-90 -450h-282l242 1212h-151l35 175h151l35 173h282l-35 -173h124l-35 -175h-124l-107 -538h42l244 408h324l-360 -484l190 -598h-322z" horiz-adv-x="954" unicode="ҟ"/><glyph d="M814 602h-83l-120 -602h-282l245 1228h-383l45 228h666l-119 -594h87l325 594h370l-496 -722l217 -734h-324z" horiz-adv-x="1400" unicode="Ҡ"/><glyph d="M722 402h-68l-80 -402h-282l170 854h-315l45 228h598l-82 -409h68l223 409h356l-362 -492l168 -590h-376z" horiz-adv-x="1238" unicode="ҡ"/><glyph d="M1001 0h-281l120 603h-415l-120 -603h-283l291 1456h283l-125 -626h415l125 626h281zM1101 -356h-282l111 558h282z" horiz-adv-x="1193" unicode="Ң"/><glyph d="M791 0h-283l84 420h-225l-84 -420h-282l216 1082h282l-87 -436h225l87 436h283zM891 -356h-282l111 558h282z" horiz-adv-x="963" unicode="ң"/><glyph d="M471 830h415l125 626h761l-45 -227h-478l-2 2l-246 -1231h-281l120 603h-415l-120 -603h-283l291 1456h283z" horiz-adv-x="1643" unicode="Ҥ"/><glyph d="M410 646h225l87 436h534l-45 -227h-252l-170 -855h-283l84 420h-225l-84 -420h-282l216 1082h282z" horiz-adv-x="1182" unicode="ҥ"/><glyph d="M1171 834h121q214 0 323.5 -150.5t52.5 -436.5q-52 -253 -193.5 -419.5t-381.5 -162.5l-5 3l40 204q108 0 166.5 107t88.5 253q38 189 3.5 281t-140.5 92h-120l-121 -605h-281l246 1228h-416l-246 -1228h-283l291 1456h980z" horiz-adv-x="1767" unicode="Ҧ"/><glyph d="M925 671h51q211 0 325.5 -125t67.5 -361q-23 -131 -128.5 -264.5t-261.5 -196.5l-87 185q74 50 125.5 116.5t70.5 159.5q24 128 -16.5 192.5t-141.5 64.5h-51l-88 -442h-283l170 854h-227l-170 -854h-282l216 1082h792z" horiz-adv-x="1463" unicode="ҧ"/><glyph d="M1198 -15q-86 0 -164 17.5t-145 51.5q-73 -37 -152.5 -56t-162.5 -19q-238 0 -369.5 198t-73.5 485l43 213q55 275 205 437.5t341 156.5l6 -3l-47 -226q-59 0 -118 -104.5t-89 -258.5l-43 -215q-43 -211 8 -329t184 -118q17 0 33.5 2t34.5 7q-71 99 -95 227t6 276l41 202 q49 249 175.5 397.5t286.5 148.5q161 0 239.5 -168.5t27.5 -424.5l-35 -176q-30 -148 -89.5 -271t-143.5 -216q31 -9 65.5 -12.5t74.5 -3.5zM866 725q-22 -110 -14 -198t45 -145l6 -1q50 58 89.5 143t59.5 182l42 209q37 185 26 253.5t-63 60.5l-6 1q-36 7 -75 -69t-69 -231 z" horiz-adv-x="1378" unicode="Ҩ"/><glyph d="M977 -27q-90 0 -163.5 13t-130.5 38q-53 -23 -107.5 -34t-108.5 -11q-220 0 -323 147.5t-53 398.5l20 102q40 201 175.5 337t284.5 131l5 -3l-45 -225q-39 -8 -68.5 -67t-51.5 -171l-21 -104q-26 -125 3.5 -209.5t95.5 -80.5l5 1q-23 48 -25 123.5t17 167.5l32 157 q35 175 143 296t228 121q137 0 194 -125.5t16 -337.5l-30 -149q-20 -98 -70.5 -185t-122.5 -155q30 -10 63 -14.5t69 -4.5zM791 505l30 151q17 88 13.5 148t-25.5 51l-6 1q-21 8 -46 -44t-42 -138l-32 -161q-12 -59 -8 -110.5t24 -86.5l6 -1q28 28 50.5 77.5t35.5 112.5z" horiz-adv-x="1124" unicode="ҩ"/><glyph d="M1032 495l2 -6q-60 -251 -188 -380.5t-342 -129.5q-206 0 -326.5 173t-68.5 432l58 290q57 289 203 446t356 157q213 0 325 -141.5t81 -385.5h-281q24 148 -10.5 223.5t-141.5 75.5q-82 0 -150 -103t-101 -270l-58 -292q-37 -179 -2 -278.5t135 -99.5q89 0 144 69.5 t92 219.5h273zM484 -472h-282l111 558h282z" horiz-adv-x="1045" unicode="Ҫ"/><glyph d="M433 206q51 0 84.5 43t46.5 124h255l2 -6q-26 -177 -144 -282.5t-280 -105.5q-193 0 -283.5 138.5t-55.5 352.5l22 139q36 224 164.5 358.5t330.5 134.5q162 0 246.5 -114.5t54.5 -308.5h-263q14 93 -2.5 144t-71.5 51q-74 0 -116 -73t-61 -192l-22 -139 q-21 -129 -4 -196.5t97 -67.5zM436 -472h-282l111 558h282z" horiz-adv-x="878" unicode="ҫ"/><glyph d="M1086 1228h-308l-245 -1228h-281l245 1228h-304l45 228h893zM633 -356h-282l111 558h282z" horiz-adv-x="955" unicode="Ҭ"/><glyph d="M934 856h-266l-171 -856h-284l171 856h-264l45 226h814zM595 -356h-282l111 558h282z" horiz-adv-x="884" unicode="ҭ"/><glyph d="M624 849l5 -1l344 608h307l-583 -939l-103 -517h-281l108 539l-204 917h308z" horiz-adv-x="1085" unicode="Ү"/><glyph d="M698 1082h295l-498 -1078l-84 -420h-281l86 430l-67 1068h295l-20 -674l-3 -70l6 -1l25 71z" horiz-adv-x="880" unicode="ү"/><glyph d="M624 849l5 -1l344 608h307l-473 -762h79l-35 -175h-153l-1 -2l-103 -517h-281l104 519h-123l35 175h57l-169 762h308z" horiz-adv-x="1085" unicode="Ұ"/><glyph d="M642 13h-143l-4 -8l-84 -421h-281l86 429h-131l35 175h85l-56 894h295l-20 -674l-4 -70l6 -1l26 71l246 674h295l-413 -894h97z" horiz-adv-x="880" unicode="ұ"/><glyph d="M620 948l6 -1l261 509h326l-449 -722l239 -734h-340l-101 519l-6 1l-268 -520h-328l458 734l-217 722h324zM958 -356h-282l111 558h282z" horiz-adv-x="1088" unicode="Ҳ"/><glyph d="M485 743l6 -1l155 340h317l-338 -535l172 -547h-316l-49 349l-5 1l-161 -350h-317l347 547l-168 535h316zM742 -356h-282l111 558h282z" horiz-adv-x="880" unicode="ҳ"/><glyph d="M456 1228h-255l45 228h778l-45 -228h-242l-200 -1001h415l246 1229h283l-246 -1230h172l-134 -577h-262l70 351h-870z" horiz-adv-x="1517" unicode="Ҵ"/><glyph d="M293 854h-152l45 228h570l-45 -228h-136l-125 -627h227l171 855h283l-171 -857h146l-128 -546h-262l64 321h-657z" horiz-adv-x="1179" unicode="ҵ"/><glyph d="M1287 1456l-291 -1456h-283l112 562q-52 -13 -113.5 -20.5t-99.5 -7.5q-211 0 -318.5 120t-59.5 360l88 442h281l-88 -442q-31 -152 3 -202.5t139 -50.5q36 0 99 7.5t114 19.5l134 668h283zM1096 -356h-282l111 558h282z" horiz-adv-x="1189" unicode="Ҷ"/><glyph d="M781 0h-283l68 340q-23 -5 -44 -7t-39 -2q-192 0 -288.5 102t-53.5 313l67 336h281l-67 -336q-23 -117 1 -152.5t106 -35.5q19 0 39 2.5t43 8.5l103 513h283zM881 -356h-282l111 558h282z" horiz-adv-x="952" unicode="ҷ"/><glyph d="M1256 1456l-291 -1456h-283l112 562q-31 -8 -65 -14l-50 -253h-151l47 239q-207 1 -313 120q-107 120 -59 360l88 442h281l-88 -442q-31 -152 3 -203q33 -49 134 -50l59 296h151l-56 -282q34 6 64 13l134 668h283z" horiz-adv-x="1159" unicode="Ҹ"/><glyph d="M787 0h-283l68 340q-22 -5 -42 -7l-31 -155h-150l32 162q-113 22 -181 93q-96 102 -53 313l67 336h281l-67 -336q-23 -117 1 -153q1 -1 2 -3l48 240h150l-54 -270q20 3 42 9l103 513h283z" horiz-adv-x="958" unicode="ҹ"/><glyph d="M179 0l291 1456h283l-112 -562q51 12 112.5 20t100.5 8q210 0 317.5 -120.5t60.5 -359.5l-88 -442h-281l88 442q30 151 -4 202t-138 51q-37 0 -100.5 -8t-113.5 -20l-133 -667h-283z" horiz-adv-x="1201" unicode="Һ"/><glyph d="M473 973l5 -3q49 63 110 97.5t127 34.5q128 0 187.5 -116.5t13.5 -351.5l-127 -634h-283l127 636q29 143 11 190.5t-81 47.5q-33 0 -64.5 -17.5t-58.5 -48.5l-161 -808h-282l312 1560h282z" unicode="һ"/><glyph d="M704 -23q-251 0 -367 174t-59 452l12 61q-114 28 -163 138t-15 279h182q-17 -83 -7.5 -135t44.5 -75q58 280 229 442t384 162q211 0 300.5 -185t27.5 -495l-31 -156h-675l-7 -36q-38 -184 4.5 -282.5t189.5 -98.5q84 0 164.5 21t135.5 49l-3 -230q-32 -28 -129 -56.5 t-217 -28.5zM895 1229q-95 0 -174.5 -105t-109.5 -258h392l7 32q32 162 8 246.5t-123 84.5z" horiz-adv-x="1279" unicode="Ҽ"/><glyph d="M546 -21q-189 0 -286 135t-64 337l4 24q-108 31 -154 133.5t-16 255.5h168q-15 -72 -6 -120.5t41 -72.5q47 199 169 315t299 116q176 0 258.5 -128.5t48.5 -344.5l-28 -174h-504v-4q-18 -111 15 -178t125 -67q72 0 124.5 18.5t123.5 59.5l42 -181q-62 -54 -157 -89 t-203 -35zM665 874q-58 0 -97 -62.5t-61 -166.5h226l7 40q15 94 -1.5 141.5t-73.5 47.5z" horiz-adv-x="1018" unicode="ҽ"/><glyph d="M704 -23q-251 0 -367 174t-59 452l12 61q-114 28 -163 138t-15 279h182q-17 -83 -7.5 -135t44.5 -75q58 280 229 442t384 162q211 0 300.5 -185t27.5 -495l-31 -156h-675l-7 -36q-38 -184 4.5 -282.5t189.5 -98.5q84 0 164.5 21t135.5 49l-3 -230q-32 -28 -129 -56.5 t-217 -28.5zM895 1229q-95 0 -174.5 -105t-109.5 -258h392l7 32q32 162 8 246.5t-123 84.5zM735 -473h-282l111 558h282z" horiz-adv-x="1279" unicode="Ҿ"/><glyph d="M546 -21q-189 0 -286 135t-64 337l4 24q-108 31 -154 133.5t-16 255.5h168q-15 -72 -6 -120.5t41 -72.5q47 199 169 315t299 116q176 0 258.5 -128.5t48.5 -344.5l-28 -174h-504v-4q-18 -111 15 -178t125 -67q72 0 124.5 18.5t123.5 59.5l42 -181q-62 -54 -157 -89 t-203 -35zM665 874q-58 0 -97 -62.5t-61 -166.5h226l7 40q15 94 -1.5 141.5t-73.5 47.5zM561 -461h-282l111 558h282z" horiz-adv-x="1018" unicode="ҿ"/><glyph d="M316 0h-281l291 1456h281z" horiz-adv-x="523" unicode="Ӏ"/><glyph d="M1184 604h-132l-120 -604h-282l120 604h-135l-344 -604h-351l516 804l-209 652h350l110 -594h115l119 594h282l-119 -594h112l340 594h349l-462 -650l186 -806h-350zM1455 1897l2 -6q-17 -134 -111 -212t-235 -78q-136 0 -208.5 81.5t-47.5 209.5l2 5h206q-9 -54 9 -87.5 t67 -33.5q45 0 73 34t37 87h206z" horiz-adv-x="1728" unicode="Ӂ"/><glyph d="M976 404h-90l-80 -404h-282l80 404h-87l-207 -404h-361l369 590l-149 492h358l59 -407h72l82 407h282l-82 -407h77l220 407h358l-345 -492l133 -590h-361zM1272 1554l2 -6q-17 -134 -111 -212t-235 -78q-136 0 -208.5 81.5t-47.5 209.5l2 5h206q-9 -54 9 -87.5t67 -33.5 q45 0 73 34t37 87h206z" horiz-adv-x="1491" unicode="ӂ"/><glyph d="M774 818q164 -37 239.5 -183t27.5 -392q-52 -254 -193.5 -420.5t-381.5 -162.5l-5 3l41 205q108 0 166.5 107t88.5 253q37 188 2.5 280.5t-139.5 92.5h-197l-120 -601h-282l291 1456h282l-119 -593h63l367 593h350z" horiz-adv-x="1115" unicode="Ӄ"/><glyph d="M713 589q112 -53 161 -163t16 -274q-23 -130 -128.5 -261.5t-261.5 -195.5l-87 186q74 48 125 114t70 157q25 126 -8 184t-121 66h-95l-80 -402h-282l216 1082h282l-82 -409h60l230 409h357z" horiz-adv-x="994" unicode="ӄ"/><glyph d="M1292 1456l-291 -1456h-281l245 1228h-276l-81 -426q-83 -429 -226 -615.5t-354 -186.5h-66l45 227h32q111 11 167 126.5t120 448.5l125 654h841zM1230 -35l-205 -311h-164l121 319l46 231h250z" horiz-adv-x="1194" unicode="Ӆ"/><glyph d="M1010 1082l-216 -1082h-282l170 854h-154l-47 -236q-69 -340 -180.5 -479t-323.5 -139h-38l42 230h24q73 0 109.5 79.5t83.5 308.5l92 464h720zM1023 -35l-205 -311h-164l121 319l46 231h250z" horiz-adv-x="965" unicode="ӆ"/><glyph d="M596 1456l-125 -626h416l125 626h281l-298 -1489q-41 -206 -146 -305t-263 -99q-32 0 -62 4.5t-61 13.5l56 222q19 -6 36.5 -9t41.5 -3q36 0 68 46.5t49 129.5l128 636h-416l-121 -603h-282l291 1456h282z" horiz-adv-x="1196" unicode="Ӈ"/><glyph d="M498 1082l-87 -436h224l87 436h283l-223 -1115q-41 -206 -146 -305t-263 -99q-32 0 -62 4.5t-61 13.5l57 222q19 -6 36.5 -9t40.5 -3q36 0 67 46t48 130l91 453h-224l-84 -420h-282l216 1082h282z" unicode="ӈ"/><glyph d="M1001 0h-281l120 603h-415l-120 -603h-283l291 1456h283l-125 -626h415l125 626h281zM1230 -35l-205 -311h-164l121 319l46 231h250z" horiz-adv-x="1193" unicode="Ӊ"/><glyph d="M791 0h-283l84 420h-225l-84 -420h-282l216 1082h282l-87 -436h225l87 436h283zM1020 -35l-205 -311h-164l121 319l46 231h250z" horiz-adv-x="963" unicode="ӊ"/><glyph d="M1287 1456l-291 -1456h-283l112 562q-52 -13 -113.5 -20.5t-99.5 -7.5q-211 0 -318.5 120t-59.5 360l88 442h281l-88 -442q-31 -152 3 -202.5t139 -50.5q36 0 99 7.5t114 19.5l134 668h283zM745 -356h-282l111 558h282z" horiz-adv-x="1189" unicode="Ӌ"/><glyph d="M781 0h-283l68 340q-23 -5 -44 -7t-39 -2q-192 0 -288.5 102t-53.5 313l67 336h281l-67 -336q-23 -117 1 -152.5t106 -35.5q19 0 39 2.5t43 8.5l103 513h283zM530 -356h-282l111 558h282z" horiz-adv-x="952" unicode="ӌ"/><glyph d="M674 1456l24 -1067l6 -1l453 1068h368l-291 -1456h-281l85 423l129 533l-6 2l-444 -958h-187l-59 947l-6 1l-82 -525l-85 -423h-281l291 1456h366zM1462 -35l-205 -311h-164l121 319l46 231h250z" horiz-adv-x="1421" unicode="Ӎ"/><glyph d="M917 537l-5 2l-265 -539h-188l-47 511l-6 1l-102 -512h-282l216 1082h347l32 -739l6 -1l331 740h355l-216 -1082h-283zM1321 -35l-205 -311h-164l121 319l46 231h250z" horiz-adv-x="1296" unicode="ӎ"/><glyph d="M316 0h-281l291 1456h281z" horiz-adv-x="523" unicode="ӏ"/><glyph d="M706 309h-351l-136 -309h-284l679 1456h293l96 -1456h-284zM455 538h242l-19 491l-6 1zM1136 1897l2 -6q-17 -134 -111 -212t-235 -78q-136 0 -208.5 81.5t-47.5 209.5l2 5h206q-9 -54 9 -87.5t67 -33.5q45 0 73 34t37 87h206z" horiz-adv-x="1095" unicode="Ӑ"/><glyph d="M504 0q-6 27 -8.5 58t-2.5 64q-50 -65 -110.5 -104t-131.5 -39q-120 0 -183.5 89.5t-34.5 233.5q34 170 146 252.5t309 82.5h96l18 88q16 84 0 124t-68 40q-39 0 -68 -35t-41 -98l-273 1l-2 6q26 151 148 245t297 94q152 0 238.5 -100t51.5 -279l-88 -438 q-17 -84 -19.5 -150t6.5 -135h-280zM376 193q36 0 72.5 22t63.5 58l40 201h-96q-53 0 -89 -45.5t-49 -113.5q-12 -58 4 -90t54 -32zM968 1575l2 -6q-17 -134 -111 -212t-235 -78q-136 0 -208.5 81.5t-47.5 209.5l2 5h206q-9 -54 9 -87.5t67 -33.5q45 0 73 34t37 87h206z" horiz-adv-x="911" unicode="ӑ"/><glyph d="M706 309h-351l-136 -309h-284l679 1456h293l96 -1456h-284zM455 538h242l-19 491l-6 1zM1128 1606h-245l32 198h245zM698 1606h-245l32 198h245z" horiz-adv-x="1095" unicode="Ӓ"/><glyph d="M504 0q-6 27 -8.5 58t-2.5 64q-50 -65 -110.5 -104t-131.5 -39q-120 0 -183.5 89.5t-34.5 233.5q34 170 146 252.5t309 82.5h96l18 88q16 84 0 124t-68 40q-39 0 -68 -35t-41 -98l-273 1l-2 6q26 151 148 245t297 94q152 0 238.5 -100t51.5 -279l-88 -438 q-17 -84 -19.5 -150t6.5 -135h-280zM376 193q36 0 72.5 22t63.5 58l40 201h-96q-53 0 -89 -45.5t-49 -113.5q-12 -58 4 -90t54 -32zM960 1284h-245l32 198h245zM530 1284h-245l32 198h245z" horiz-adv-x="911" unicode="ӓ"/><glyph d="M1440 0h-744l56 339h-301l-196 -339h-328l895 1456h860l-46 -231h-454l-60 -363h375l-46 -230h-368l-67 -402h470zM792 578l79 474l-5 2l-276 -476h202z" horiz-adv-x="1593" unicode="Ӕ"/><glyph d="M922 -21q-96 0 -168.5 39t-115.5 112q-62 -66 -151 -108.5t-198 -42.5q-151 0 -225 92.5t-44 245.5q34 169 154.5 250.5t328.5 81.5h124l11 56q16 84 -1.5 126.5t-65.5 42.5q-47 0 -85.5 -37.5t-48.5 -91.5l-268 17l-2 6q26 154 148.5 244t303.5 90q72 0 132.5 -22 t102.5 -65q58 43 127.5 65t149.5 22q162 0 241 -133.5t35 -353.5l-32 -160h-505q-20 -123 9.5 -186t121.5 -63q68 0 122.5 19.5t123.5 58.5l33 -183q-59 -49 -158 -85.5t-200 -36.5zM385 184q34 0 83 27t84 64l38 191h-122q-60 0 -107.5 -45.5t-59.5 -107.5q-13 -64 7 -96.5 t77 -32.5zM1086 874q-62 0 -104.5 -61t-71.5 -169h228l5 27q20 100 6.5 151.5t-63.5 51.5z" horiz-adv-x="1420" unicode="ӕ"/><glyph d="M893 639h-460l-83 -412h542l-45 -227h-825l291 1456h823l-45 -228h-541l-72 -362h460zM1075 1897l2 -6q-17 -134 -111 -212t-235 -78q-136 0 -208.5 81.5t-47.5 209.5l2 5h206q-9 -54 9 -87.5t67 -33.5q45 0 73 34t37 87h206z" horiz-adv-x="971" unicode="Ӗ"/><glyph d="M423 -21q-189 0 -286 135t-64 337l24 152q36 227 163 363t318 136q176 0 258.5 -128.5t48.5 -344.5l-28 -174h-504v-4q-18 -111 15 -178t125 -67q72 0 124.5 18.5t123.5 59.5l42 -181q-62 -54 -157 -89t-203 -35zM542 874q-58 0 -97 -62.5t-61 -166.5h226l7 40 q15 94 -1.5 141.5t-73.5 47.5zM929 1576l2 -6q-17 -134 -111 -212t-235 -78q-136 0 -208.5 81.5t-47.5 209.5l2 5h206q-9 -54 9 -87.5t67 -33.5q45 0 73 34t37 87h206z" horiz-adv-x="907" unicode="ӗ"/><glyph d="M707 1477q264 0 388.5 -186.5t65.5 -481.5l-33 -163q-63 -311 -242 -489t-400 -178q-234 0 -337 184t-40 495l31 157h741q38 199 -11 307.5t-212 108.5q-89 0 -175 -21.5t-143 -48.5l4 230q34 27 135.5 56.5t227.5 29.5zM535 224q93 0 174.5 102.5t120.5 257.5l-3 5h-450 l-7 -34q-33 -162 2.5 -246.5t162.5 -84.5z" horiz-adv-x="1170" unicode="Ә"/><glyph d="M563 1103q183 0 274 -152t47 -376l-8 -41q-53 -261 -187.5 -407.5t-326.5 -145.5q-171 0 -249 132t-34 353l32 161h498q15 116 -14.5 182.5t-111.5 66.5q-70 0 -125 -19.5t-125 -58.5l-36 181q65 52 162 88t204 36zM407 207q50 0 91.5 62t71.5 168h-222l-5 -27 q-21 -103 -7 -153t71 -50z" horiz-adv-x="907" unicode="ә"/><glyph d="M707 1477q264 0 388.5 -186.5t65.5 -481.5l-33 -163q-63 -311 -242 -489t-400 -178q-234 0 -337 184t-40 495l31 157h741q38 199 -11 307.5t-212 108.5q-89 0 -175 -21.5t-143 -48.5l4 230q34 27 135.5 56.5t227.5 29.5zM535 224q93 0 174.5 102.5t120.5 257.5l-3 5h-450 l-7 -34q-33 -162 2.5 -246.5t162.5 -84.5zM1103 1627h-245l32 198h245zM673 1627h-245l32 198h245z" horiz-adv-x="1170" unicode="Ӛ"/><glyph d="M563 1103q183 0 274 -152t47 -376l-8 -41q-53 -261 -187.5 -407.5t-326.5 -145.5q-171 0 -249 132t-34 353l32 161h498q15 116 -14.5 182.5t-111.5 66.5q-70 0 -125 -19.5t-125 -58.5l-36 181q65 52 162 88t204 36zM407 207q50 0 91.5 62t71.5 168h-222l-5 -27 q-21 -103 -7 -153t71 -50zM918 1284h-245l32 198h245zM488 1284h-245l32 198h245z" horiz-adv-x="907" unicode="ӛ"/><glyph d="M1184 604h-132l-120 -604h-282l120 604h-135l-344 -604h-351l516 804l-209 652h350l110 -594h115l119 594h282l-119 -594h112l340 594h349l-462 -650l186 -806h-350zM1447 1606h-245l32 198h245zM1017 1606h-245l32 198h245z" horiz-adv-x="1728" unicode="Ӝ"/><glyph d="M976 404h-90l-80 -404h-282l80 404h-87l-207 -404h-361l369 590l-149 492h358l59 -407h72l82 407h282l-82 -407h77l220 407h358l-345 -492l133 -590h-361zM1264 1263h-245l32 198h245zM834 1263h-245l32 198h245z" horiz-adv-x="1491" unicode="ӝ"/><glyph d="M465 853h145q68 0 116 54.5t68 150.5q17 88 -12.5 139.5t-108.5 51.5q-61 0 -114.5 -51.5t-69.5 -134.5h-273l-2 6q34 195 176.5 301.5t327.5 106.5q191 0 294 -110t64 -305q-22 -108 -87 -191t-160 -128q85 -45 121.5 -131t12.5 -206q-43 -214 -189 -320.5t-355 -106.5 q-171 0 -285.5 108.5t-69.5 311.5l2 5h275q-19 -91 15 -144.5t108 -53.5q76 0 137.5 58t79.5 146q25 124 -4.5 173t-111.5 49h-145l31 152zM1099 1627h-245l32 198h245zM669 1627h-245l32 198h245z" horiz-adv-x="1053" unicode="Ӟ"/><glyph d="M367 643h123q40 0 67.5 32.5t39.5 88.5q11 58 0.5 91.5t-56.5 33.5q-42 0 -74.5 -31.5t-42.5 -85.5h-273l-2 6q27 156 143.5 239t274.5 83q164 0 254 -83t61 -230q-16 -79 -64 -140t-120 -94q66 -34 93.5 -97.5t10.5 -151.5q-32 -161 -155.5 -242t-303.5 -81 q-144 0 -240 86.5t-59 245.5l2 5h274q-12 -60 6.5 -93.5t75.5 -33.5q47 0 79 39t44 97q15 75 -3 105.5t-68 30.5h-123l10 54l10 48l4 21zM958 1284h-245l32 198h245zM528 1284h-245l32 198h245z" horiz-adv-x="879" unicode="ӟ"/><glyph d="M428 867l318 356l-2 5h-455l45 228h785l-37 -188l-375 -405q139 -36 202 -154.5t27 -302.5q-43 -213 -186 -320t-347 -107q-163 0 -271 109t-66 316h283q-19 -92 7 -145t92 -53q71 0 130 58t77 146q30 156 -7.5 217.5t-142.5 61.5h-112l34 173z" horiz-adv-x="982" unicode="Ӡ"/><glyph d="M1044 1082l-37 -189l-372 -404q138 -36 200 -154.5t26 -303.5q-42 -211 -185.5 -318.5t-347.5 -107.5q-163 0 -269.5 109t-63.5 310l3 5h276q-19 -89 8 -142.5t92 -53.5q71 0 129.5 58.5t76.5 144.5q31 156 -5 217.5t-141 61.5h-116l12 60l23 117l315 357l-2 5h-460 l45 228h793z" horiz-adv-x="982" unicode="ӡ"/><glyph d="M997 1456h282l-291 -1456h-282l175 878l-6 2l-582 -880h-282l291 1456h282l-176 -880l6 -2zM1139 1617h-629l25 160h629z" horiz-adv-x="1178" unicode="Ӣ"/><glyph d="M727 1082h282l-216 -1082h-282l112 563l-5 3l-334 -566h-283l216 1082h283l-112 -562l5 -3zM969 1276h-629l25 160h629z" horiz-adv-x="963" unicode="ӣ"/><glyph d="M997 1456h282l-291 -1456h-282l175 878l-6 2l-582 -880h-282l291 1456h282l-176 -880l6 -2zM1158 1606h-245l32 198h245zM728 1606h-245l32 198h245z" horiz-adv-x="1178" unicode="Ӥ"/><glyph d="M727 1082h282l-216 -1082h-282l112 563l-5 3l-334 -566h-283l216 1082h283l-112 -562l5 -3zM988 1263h-245l32 198h245zM558 1263h-245l32 198h245z" horiz-adv-x="963" unicode="ӥ"/><glyph d="M1114 596q-58 -289 -218 -453t-384 -164q-209 0 -330 179.5t-68 441.5l52 259q58 290 212.5 454t376.5 164q211 0 337 -181t74 -441zM885 857q36 177 -14.5 284t-160.5 107q-94 0 -161.5 -106t-102.5 -281l-52 -261q-36 -180 9 -286.5t154 -106.5q95 0 168 107.5 t108 281.5zM1140 1627h-245l32 198h245zM710 1627h-245l32 198h245z" horiz-adv-x="1121" unicode="Ӧ"/><glyph d="M87 607q36 226 166.5 360.5t332.5 134.5q191 0 283.5 -140t58.5 -355l-21 -134q-37 -228 -168 -361t-331 -133q-193 0 -285.5 138.5t-56.5 355.5zM346 473q-21 -130 -1.5 -198.5t99.5 -68.5q73 0 117 72t64 195l21 134q20 127 0.5 197t-96.5 70q-74 0 -119.5 -73.5 t-63.5 -193.5zM950 1284h-245l32 198h245zM520 1284h-245l32 198h245z" unicode="ӧ"/><glyph d="M1073 523q-55 -273 -212.5 -408.5t-383.5 -135.5q-207 0 -317 146t-59 398l81 408q54 272 211 409t382 137q206 0 317.5 -148t61.5 -398zM816 645h-412l-24 -122q-34 -168 2 -242t140 -74q94 0 166 80.5t104 235.5zM439 820h412l23 113q32 167 -4.5 241t-139.5 74 q-96 0 -167 -80.5t-101 -234.5z" horiz-adv-x="1170" unicode="Ө"/><glyph d="M85 607q36 226 166.5 360.5t332.5 134.5q191 0 283.5 -140t58.5 -355l-21 -134q-37 -228 -168 -361t-331 -133q-193 0 -285.5 138.5t-56.5 355.5zM548 874q-72 0 -116.5 -68.5t-63.5 -180.5h279q17 118 -4 183.5t-95 65.5zM442 206q69 0 112 65.5t64 177.5h-278 q-17 -118 4.5 -180.5t97.5 -62.5z" horiz-adv-x="958" unicode="ө"/><glyph d="M1073 523q-55 -273 -212.5 -408.5t-383.5 -135.5q-207 0 -317 146t-59 398l81 408q54 272 211 409t382 137q206 0 317.5 -148t61.5 -398zM816 645h-412l-24 -122q-34 -168 2 -242t140 -74q94 0 166 80.5t104 235.5zM439 820h412l23 113q32 167 -4.5 241t-139.5 74 q-96 0 -167 -80.5t-101 -234.5zM1177 1627h-245l32 198h245zM747 1627h-245l32 198h245z" horiz-adv-x="1170" unicode="Ӫ"/><glyph d="M85 607q36 226 166.5 360.5t332.5 134.5q191 0 283.5 -140t58.5 -355l-21 -134q-37 -228 -168 -361t-331 -133q-193 0 -285.5 138.5t-56.5 355.5zM548 874q-72 0 -116.5 -68.5t-63.5 -180.5h279q17 118 -4 183.5t-95 65.5zM442 206q69 0 112 65.5t64 177.5h-278 q-17 -118 4.5 -180.5t97.5 -62.5zM980 1284h-245l32 198h245zM550 1284h-245l32 198h245z" horiz-adv-x="958" unicode="ӫ"/><glyph d="M178 973l-2 6q47 255 186 377t359 122q193 0 287.5 -170t42.5 -434l-58 -291q-58 -287 -209.5 -445t-362.5 -158q-202 0 -301.5 130.5t-50.5 371.5h282q-31 -153 -4.5 -214t119.5 -61q82 0 145.5 102.5t97.5 271.5l8 40h-339l46 228h339l5 25q36 185 16 280.5t-109 95.5 q-85 0 -140.5 -67.5t-83.5 -209.5h-273zM1095 1627h-245l32 198h245zM665 1627h-245l32 198h245z" horiz-adv-x="1044" unicode="Ӭ"/><glyph d="M506 874q-50 0 -85 -44t-50 -122h-257l-2 6q32 180 154 284t285 104q185 0 268.5 -156.5t36.5 -391.5l-6 -28q-52 -257 -186.5 -402t-335.5 -145q-158 0 -240 115t-44 308h265q-19 -96 -5 -146t69 -50q61 0 105.5 68.5t74.5 184.5h-179l34 169h179q19 120 2.5 183 t-83.5 63zM949 1284h-245l32 198h245zM519 1284h-245l32 198h245z" horiz-adv-x="873" unicode="ӭ"/><glyph d="M623 795v-11l328 672h295l-618 -1173q-87 -146 -174.5 -225t-218.5 -79q-18 0 -44.5 1.5t-41.5 2.5l40 227q7 -2 27 -3t34 -1q57 0 96.5 36.5t69.5 108.5l23 49h-3l-194 1056h301zM1088 1617h-629l25 160h629z" horiz-adv-x="1070" unicode="Ӯ"/><glyph d="M431 467l6 -2l264 617h301l-595 -1245q-62 -116 -143.5 -195t-217.5 -79q-32 0 -59 6t-68 18l76 212q13 -3 21 -4.5t16 -1.5q54 0 92 33.5t61 84.5l38 78l-84 1093h303zM922 1276h-629l25 160h629z" horiz-adv-x="880" unicode="ӯ"/><glyph d="M623 795v-11l328 672h295l-618 -1173q-87 -146 -174.5 -225t-218.5 -79q-18 0 -44.5 1.5t-41.5 2.5l40 227q7 -2 27 -3t34 -1q57 0 96.5 36.5t69.5 108.5l23 49h-3l-194 1056h301zM1107 1606h-245l32 198h245zM677 1606h-245l32 198h245z" horiz-adv-x="1070" unicode="Ӱ"/><glyph d="M431 467l6 -2l264 617h301l-595 -1245q-62 -116 -143.5 -195t-217.5 -79q-32 0 -59 6t-68 18l76 212q13 -3 21 -4.5t16 -1.5q54 0 92 33.5t61 84.5l38 78l-84 1093h303zM943 1263h-245l32 198h245zM513 1263h-245l32 198h245z" horiz-adv-x="880" unicode="ӱ"/><glyph d="M623 795v-11l328 672h295l-618 -1173q-87 -146 -174.5 -225t-218.5 -79q-18 0 -44.5 1.5t-41.5 2.5l40 227q7 -2 27 -3t34 -1q57 0 96.5 36.5t69.5 108.5l23 49h-3l-194 1056h301zM1035 1867h260l2 -6l-279 -260h-220l-2 5zM698 1867h257l3 -6l-246 -260h-224z" horiz-adv-x="1070" unicode="Ӳ"/><glyph d="M431 467l6 -2l264 617h301l-595 -1245q-62 -116 -143.5 -195t-217.5 -79q-32 0 -59 6t-68 18l76 212q13 -3 21 -4.5t16 -1.5q54 0 92 33.5t61 84.5l38 78l-84 1093h303zM869 1524h260l2 -6l-279 -260h-220l-2 5zM532 1524h257l3 -6l-246 -260h-224z" horiz-adv-x="880" unicode="ӳ"/><glyph d="M1287 1456l-291 -1456h-283l112 562q-52 -13 -113.5 -20.5t-99.5 -7.5q-211 0 -318.5 120t-59.5 360l88 442h281l-88 -442q-31 -152 3 -202.5t139 -50.5q36 0 99 7.5t114 19.5l134 668h283zM1217 1606h-245l32 198h245zM787 1606h-245l32 198h245z" horiz-adv-x="1189" unicode="Ӵ"/><glyph d="M781 0h-283l68 340q-23 -5 -44 -7t-39 -2q-192 0 -288.5 102t-53.5 313l67 336h281l-67 -336q-23 -117 1 -152.5t106 -35.5q19 0 39 2.5t43 8.5l103 513h283zM977 1263h-245l32 198h245zM547 1263h-245l32 198h245z" horiz-adv-x="952" unicode="ӵ"/><glyph d="M1055 1228h-503l-246 -1228h-283l291 1456h786zM405 -356h-282l111 558h282z" horiz-adv-x="948" unicode="Ӷ"/><glyph d="M787 854h-333l-171 -854h-282l216 1082h615zM341 -356h-282l111 558h282z" horiz-adv-x="716" unicode="ӷ"/><glyph d="M489 920h169q197 0 303.5 -126.5t66.5 -328.5q-45 -222 -193 -343.5t-361 -121.5h-450l291 1456h281zM443 693l-93 -466h169q78 0 142.5 69.5t84.5 170.5q21 105 -13 165.5t-120 60.5h-170zM1290 0h-281l291 1456h281zM1308 1606h-245l32 198h245zM878 1606h-245l32 198 h245z" horiz-adv-x="1484" unicode="Ӹ"/><glyph d="M457 763h134q173 0 263.5 -107t57.5 -277q-36 -180 -161 -279.5t-313 -99.5h-416l216 1082h283zM412 537l-62 -312h133q55 0 94.5 44t53.5 110q14 74 -6 116t-80 42h-133zM1237 0h-283l216 1082h283zM1213 1263h-245l32 198h245zM783 1263h-245l32 198h245z" horiz-adv-x="1440" unicode="ӹ"/><glyph d="M1141 1228h-503l-246 -1228h-283l291 1456h786zM668 671h-557l35 175h557zM708 258l-59 -291q-41 -206 -145.5 -305t-262.5 -99q-31 0 -60 4.5t-61 13.5l57 224q21 -6 37.5 -9.5t37.5 -3.5q37 0 68 45.5t47 129.5l59 291h282z" horiz-adv-x="1036" unicode="Ӻ"/><glyph d="M862 854h-333l-171 -854h-282l216 1082h615zM613 494h-557l35 175h557zM632 252l-59 -291q-41 -206 -145.5 -305t-262.5 -99q-31 0 -60 4.5t-61 13.5l57 224q21 -6 37.5 -9.5t37.5 -3.5q37 0 68 45.5t47 129.5l59 291h282z" horiz-adv-x="728" unicode="ӻ"/><glyph d="M620 948l6 -1l261 509h326l-449 -722l239 -734h-340l-101 519l-6 1l-268 -520h-328l458 734l-217 722h324zM1191 258l-59 -291q-41 -206 -145.5 -305t-262.5 -99q-31 0 -60 4.5t-61 13.5l57 224q21 -6 37.5 -9.5t37.5 -3.5q37 0 68 45.5t47 129.5l59 291h282z" horiz-adv-x="1088" unicode="Ӽ"/><glyph d="M485 743l6 -1l155 340h317l-338 -535l172 -547h-316l-49 349l-5 1l-161 -350h-317l347 547l-168 535h316zM975 258l-59 -291q-41 -206 -145.5 -305t-262.5 -99q-31 0 -60 4.5t-61 13.5l57 224q21 -6 37.5 -9.5t37.5 -3.5q37 0 68 45.5t47 129.5l59 291h282z" horiz-adv-x="880" unicode="ӽ"/><glyph d="M860 659h-72l215 -659h-340l-101 519l-6 1l-268 -520h-328l411 659h-68l35 175h50l-187 622h324l95 -508l6 -1l261 509h326l-387 -622h69z" horiz-adv-x="1088" unicode="Ӿ"/><glyph d="M727 468h-77l147 -468h-316l-49 349l-5 1l-161 -350h-317l297 468h-76l35 175h61l-138 439h316l41 -339l6 -1l155 340h317l-278 -439h77z" horiz-adv-x="880" unicode="ӿ"/><glyph d="M807 948l102 508h281l-291 -1456h-451q-194 0 -300 135t-65 340q43 221 193 347t362 126h169zM663 227l99 494h-170q-79 0 -142.5 -72.5t-83.5 -171.5q-22 -112 9.5 -181t117.5 -69h170z" horiz-adv-x="1087" unicode="Ԁ"/><glyph d="M80 555q54 272 162 409.5t275 137.5q56 0 103 -27t81 -77l113 562h282l-312 -1560h-245l4 97q-50 -57 -106 -87.5t-115 -30.5q-152 0 -223 159.5t-23 395.5zM358 534q-32 -157 -19 -242t86 -85q36 0 71.5 26.5t66.5 73.5l100 498q-13 34 -38.5 51.5t-62.5 17.5 q-68 0 -119.5 -86t-80.5 -233z" unicode="ԁ"/><glyph d="M490 0q-195 0 -301 135t-65 340q43 221 193 347t363 126h169l102 508h281l-246 -1229h41q66 1 111.5 52t66.5 142q17 76 21 160t-4 164h276q7 -106 6 -179.5t-17 -144.5q-43 -203 -186.5 -312t-318.5 -109h-492zM705 227l99 494h-170q-79 0 -143 -72.5t-84 -171.5 q-22 -112 10 -181t118 -69h170z" horiz-adv-x="1583" unicode="Ԃ"/><glyph d="M102 535q54 271 171 419t284 148q50 0 89 -25.5t66 -72.5l112 556h282l-237 -1184q-16 -75 -5 -120.5t45 -39.5l6 -1q60 -3 112 80.5t85 233.5q20 99 28.5 200.5t4.5 201.5l275 1q1 -128 -3 -220t-23 -183q-56 -265 -205.5 -407.5t-323.5 -142.5q-110 -1 -179 38.5 t-94 126.5q-56 -80 -121 -122.5t-139 -42.5q-152 0 -217 149t-17 386zM674 814q-14 29 -36 44.5t-51 15.5q-68 0 -120.5 -94.5t-82.5 -244.5l-4 -21q-32 -154 -18 -230.5t89 -76.5q34 0 66 18t60 52q0 23 2.5 47.5t7.5 51.5z" horiz-adv-x="1431" unicode="ԃ"/><glyph d="M494 321l13 65q20 103 -7.5 160.5t-92.5 57.5h-204l46 230h150q96 0 153 52.5t79 159.5q18 91 -12 135t-117 44h-273l46 231h273q203 0 303 -107.5t61 -304.5q-26 -126 -101 -208.5t-201 -128.5q116 -34 160 -117.5t21 -201.5l-14 -69q-11 -49 -7.5 -78.5t21.5 -22.5 l6 -1q56 -5 106 79.5t84 232.5q20 100 27.5 202t2.5 201h277q1 -137 -3 -225t-23 -178q-56 -263 -209 -406.5t-330 -143.5q-142 -3 -203 79t-32 261v2z" horiz-adv-x="1327" unicode="Ԅ"/><glyph d="M639 261q-11 -49 -8.5 -76t21.5 -19l6 -1q35 -5 70.5 63t63.5 191q16 76 20.5 158.5t-2.5 160.5h273q7 -101 7 -174.5t-16 -144.5q-46 -215 -169 -330t-271 -115q-165 -3 -234 53.5t-53 186.5l15 75q10 53 2.5 79t-32.5 26h-219l41 214h142q47 0 76 30t40 84 q13 64 -0.5 98t-60.5 34h-212l40 228h217q165 0 250.5 -86.5t55.5 -235.5q-17 -84 -60 -139t-114 -90q77 -26 106.5 -84.5t13.5 -140.5l-9 -46v1z" horiz-adv-x="1085" unicode="ԅ"/><glyph d="M892 3l-205 -311h-164l117 308h-190q-27 31 -21.5 101t21.5 150l20 99q23 116 -5.5 173t-105.5 57h-230l44 227h218q71 0 126 54.5t74 149.5q21 107 -7 162.5t-107 55.5h-252l38 227h259q192 0 293 -116t61 -314q-25 -122 -89.5 -202t-169.5 -128q95 -40 127.5 -129.5 t7.5 -214.5l-20 -103q-1 -4 -2 -7h210z" horiz-adv-x="1027" unicode="Ԇ"/><glyph d="M866 -7l-205 -311h-164l120 318h-207q-9 17 -3 64.5t15 92.5l15 71q16 84 -7.5 122t-89.5 38h-211l36 194h214q47 0 86.5 36t51.5 95q12 65 -10.5 104.5t-72.5 39.5h-238l35 225h248q168 0 262.5 -95.5t63.5 -251.5q-18 -87 -64.5 -148t-120.5 -100q68 -36 92 -103 q23 -65 7 -152h195z" horiz-adv-x="987" unicode="ԇ"/><glyph d="M963 1225h-256l-91 -457q-85 -422 -219 -595t-375 -173h-43l46 230h34q82 0 149.5 128.5t124.5 409.5l137 688h821l-216 -1080q-16 -76 -6 -121t45 -39l6 -1q60 -3 112.5 81t85.5 233q20 99 28 200t3 202l277 1q1 -124 -3.5 -217.5t-22.5 -185.5q-56 -265 -205.5 -407.5 t-324.5 -142.5q-167 -3 -238.5 93t-38.5 304z" horiz-adv-x="1619" unicode="Ԉ"/><glyph d="M695 850h-109l-45 -228q-68 -338 -180.5 -480t-319.5 -142h-64l53 243l34 1q61 0 108.5 90.5t87.5 287.5l92 460h672l-141 -706q-16 -76 0 -121t59 -39l6 -1q42 -3 81.5 68.5t68.5 200.5q19 92 26 188t3 193h274q3 -134 0.5 -215t-20.5 -166q-53 -244 -189 -374.5 t-294 -130.5q-176 -3 -252.5 93t-44.5 304z" horiz-adv-x="1451" unicode="ԉ"/><glyph d="M1303 1456l-216 -1080q-16 -75 -5 -120.5t45 -39.5l6 -1q61 -3 113 80.5t85 233.5q20 98 28 199t4 203l276 1q2 -132 -2.5 -222t-23.5 -181q-57 -265 -206 -407.5t-324 -142.5q-166 -3 -238 93t-40 304l45 227h-429l-120 -603h-281l291 1456h281l-125 -626h429l125 626 h282z" horiz-adv-x="1679" unicode="Ԋ"/><glyph d="M591 430h-237l-86 -430h-283l216 1082h283l-85 -423h237l85 423h283l-141 -706q-17 -75 -1.5 -120.5t58.5 -39.5l6 -1q44 -3 83.5 68.5t68.5 200.5q19 92 26 188t2 193h275q2 -140 -0.5 -218.5t-20.5 -162.5q-53 -244 -188.5 -374.5t-295.5 -130.5q-175 -3 -251.5 93 t-44.5 304z" horiz-adv-x="1387" unicode="ԋ"/><glyph d="M490 -21q-217 0 -334.5 177.5t-65.5 440.5l53 262q57 285 233 451.5t413 166.5q87 0 159 -23t120 -65l-99 -211q-47 33 -102.5 50.5t-123.5 17.5q-102 0 -194 -113t-123 -272l-53 -264q-35 -176 8 -282t155 -106q76 1 129.5 61.5t79.5 169.5q16 79 22.5 166t5.5 180h275 q-2 -156 -4 -213.5t-18 -132.5q-48 -224 -198 -342.5t-338 -118.5z" horiz-adv-x="1079" unicode="Ԍ"/><glyph d="M469 209q38 1 58.5 31t34.5 91q10 51 16.5 102t10.5 104h275q-2 -65 -6 -113.5t-13 -92.5q-38 -173 -152.5 -262.5t-269.5 -89.5q-198 0 -295 159.5t-52 381.5l8 42q48 240 193.5 390t352.5 150q71 0 129.5 -18t89.5 -48l-85 -222q-32 27 -78 42t-102 15 q-72 0 -133.5 -94.5t-85.5 -214.5l-8 -42q-27 -135 -2.5 -223t114.5 -88z" horiz-adv-x="910" unicode="ԍ"/><glyph d="M526 1225h-328l46 231h929l-46 -231h-320l-170 -849q-16 -81 -5.5 -123.5t44.5 -36.5l6 -1q61 -3 113.5 81t84.5 233q20 99 28.5 200.5t4.5 201.5l275 1q3 -119 -1.5 -214.5t-24.5 -188.5q-56 -265 -205.5 -407.5t-324.5 -142.5q-166 -3 -237.5 93t-38.5 304z" horiz-adv-x="1190" unicode="Ԏ"/><glyph d="M363 853h-212l45 229h731l-45 -229h-238l-95 -477q-16 -75 -1 -121t58 -46q46 1 83.5 57.5t60.5 159.5q15 71 18 146.5t-7 146.5h276q8 -101 9 -165t-13 -128q-48 -216 -181 -331.5t-292 -115.5q-174 -3 -249.5 93t-42.5 304z" horiz-adv-x="1076" unicode="ԏ"/><glyph d="M784 698l-13 -66h-164q-91 0 -152 -54t-84 -168q-19 -96 25 -150t143 -54q73 0 137.5 57t82.5 141h273l2 -6q-41 -219 -194 -319t-346 -100q-206 0 -326 115t-81 312q27 135 100.5 221t188.5 125q-82 49 -120.5 131t-18.5 179q42 212 187 313.5t369 101.5 q175 0 287 -114.5t72 -294.5l-2 -5h-275q18 90 -18.5 138t-108.5 48q-88 0 -151.5 -55.5t-78.5 -135.5q-22 -104 10 -154.5t124 -50.5h164l-31 -155h-1z" horiz-adv-x="1107" unicode="Ԑ"/><glyph d="M61 304q19 98 76 162t146 94q-64 36 -94 96.5t-16 130.5q32 159 157 236t313 77q150 0 244.5 -89.5t61.5 -232.5l-3 -6h-275q12 58 -12 87.5t-74 29.5q-52 0 -89 -37.5t-46 -87.5q-12 -58 11.5 -88t77.5 -30h149l-12 -60l-25 -126h-149q-56 0 -98.5 -33t-56.5 -100 q-12 -61 11.5 -98.5t85.5 -37.5q58 0 99.5 36t52.5 91h272l2 -6q-30 -172 -158.5 -251.5t-292.5 -79.5q-173 0 -280.5 88t-77.5 235z" horiz-adv-x="953" unicode="ԑ"/><glyph d="M1292 1456l-291 -1456h-281l245 1228h-276l-81 -426q-83 -429 -226 -615.5t-354 -186.5h-66l45 227h32q111 11 167 126.5t120 448.5l125 654h841zM1334 258l-59 -291q-41 -206 -145.5 -305t-262.5 -99q-31 0 -60 4.5t-61 13.5l57 224q21 -6 37.5 -9.5t37.5 -3.5 q37 0 68 45.5t47 129.5l59 291h282z" horiz-adv-x="1194" unicode="Ԓ"/><glyph d="M1010 1082l-216 -1082h-282l170 854h-154l-47 -236q-69 -340 -180.5 -479t-323.5 -139h-38l42 230h24q73 0 109.5 79.5t83.5 308.5l92 464h720zM1127 258l-59 -291q-41 -206 -145.5 -305t-262.5 -99q-31 0 -60 4.5t-61 13.5l57 224q21 -6 37.5 -9.5t37.5 -3.5 q37 0 68 45.5t47 129.5l59 291h282z" horiz-adv-x="965" unicode="ԓ"/><glyph d="M706 309h-351l-136 -309h-284l679 1456h293l96 -1456h-284zM455 538h242l-19 491l-6 1zM262 -226q14 75 68 120t123 45q62 0 99 -47.5t24 -117.5q-16 -74 -69 -118t-120 -44q-63 0 -100.5 47t-24.5 115zM364 -226q-7 -30 5 -49t37 -19q21 0 40.5 19.5t25.5 48.5 q6 34 -4.5 52.5t-33.5 18.5t-44 -20t-26 -51z" horiz-adv-x="1095" unicode="Ḁ"/><glyph d="M504 0q-6 27 -8.5 58t-2.5 64q-50 -65 -110.5 -104t-131.5 -39q-120 0 -183.5 89.5t-34.5 233.5q34 170 146 252.5t309 82.5h96l18 88q16 84 0 124t-68 40q-39 0 -68 -35t-41 -98l-273 1l-2 6q26 151 148 245t297 94q152 0 238.5 -100t51.5 -279l-88 -438 q-17 -84 -19.5 -150t6.5 -135h-280zM376 193q36 0 72.5 22t63.5 58l40 201h-96q-53 0 -89 -45.5t-49 -113.5q-12 -58 4 -90t54 -32zM100 -210q14 75 68 120t123 45q62 0 99 -47.5t24 -117.5q-16 -74 -69 -118t-120 -44q-63 0 -100.5 47t-24.5 115zM202 -210q-7 -30 5 -49 t37 -19q21 0 40.5 19.5t25.5 48.5q6 34 -4.5 52.5t-33.5 18.5t-44 -20t-26 -51z" horiz-adv-x="911" unicode="ḁ"/><glyph d="M674 1456l24 -1067l6 -1l453 1068h368l-291 -1456h-281l85 423l129 533l-6 2l-444 -958h-187l-59 947l-6 1l-82 -525l-85 -423h-281l291 1456h366zM1004 1826h295l2 -6l-280 -260h-226z" horiz-adv-x="1421" unicode="Ḿ"/><glyph d="M470 955q55 72 123.5 109.5t149.5 37.5q70 0 119 -42.5t65 -127.5q56 82 127.5 126t157.5 44q118 0 173.5 -112.5t11.5 -335.5l-131 -654h-283l131 654q26 134 12 177t-67 43q-34 0 -67.5 -24t-62.5 -67q-2 -18 -4.5 -36.5t-6.5 -38.5l-142 -708h-281l131 654 q26 133 11.5 176.5t-67.5 43.5q-31 0 -63 -20t-61 -56l-159 -798h-280l216 1082h263zM974 1504h295l2 -6l-280 -260h-226z" horiz-adv-x="1444" unicode="ḿ"/><glyph d="M1056 556h6l287 900h273l-498 -1456h-263l-50 863h-6l-325 -863h-261l-32 1456h273v-898l6 -1l336 899h202zM1064 1559h-226l-200 266h302z" horiz-adv-x="1484" unicode="Ẁ"/><glyph d="M856 498l6 -1l207 585h261l-426 -1082h-234l-26 562l-6 1l-251 -563h-235l5 1082h262l-26 -585l6 -2l254 587h182zM916 1216h-226l-200 266h302z" horiz-adv-x="1228" unicode="ẁ"/><glyph d="M1056 556h6l287 900h273l-498 -1456h-263l-50 863h-6l-325 -863h-261l-32 1456h273v-898l6 -1l336 899h202zM989 1826h295l2 -6l-280 -260h-226z" horiz-adv-x="1484" unicode="Ẃ"/><glyph d="M856 498l6 -1l207 585h261l-426 -1082h-234l-26 562l-6 1l-251 -563h-235l5 1082h262l-26 -585l6 -2l254 587h182zM841 1483h295l2 -6l-280 -260h-226z" horiz-adv-x="1228" unicode="ẃ"/><glyph d="M1056 556h6l287 900h273l-498 -1456h-263l-50 863h-6l-325 -863h-261l-32 1456h273v-898l6 -1l336 899h202zM1266 1606h-245l32 198h245zM836 1606h-245l32 198h245z" horiz-adv-x="1484" unicode="Ẅ"/><glyph d="M856 498l6 -1l207 585h261l-426 -1082h-234l-26 562l-6 1l-251 -563h-235l5 1082h262l-26 -585l6 -2l254 587h182zM1118 1263h-245l32 198h245zM688 1263h-245l32 198h245z" horiz-adv-x="1228" unicode="ẅ"/><glyph d="M706 309h-351l-136 -309h-284l679 1456h293l96 -1456h-284zM455 538h242l-19 491l-6 1zM555 -353h-312l49 241h312z" horiz-adv-x="1095" unicode="Ạ"/><glyph d="M504 0q-6 27 -8.5 58t-2.5 64q-50 -65 -110.5 -104t-131.5 -39q-120 0 -183.5 89.5t-34.5 233.5q34 170 146 252.5t309 82.5h96l18 88q16 84 0 124t-68 40q-39 0 -68 -35t-41 -98l-273 1l-2 6q26 151 148 245t297 94q152 0 238.5 -100t51.5 -279l-88 -438 q-17 -84 -19.5 -150t6.5 -135h-280zM376 193q36 0 72.5 22t63.5 58l40 201h-96q-53 0 -89 -45.5t-49 -113.5q-12 -58 4 -90t54 -32zM393 -337h-312l49 241h312z" horiz-adv-x="911" unicode="ạ"/><glyph d="M706 309h-351l-136 -309h-284l679 1456h293l96 -1456h-284zM455 538h242l-19 491l-6 1zM679 1587l9 129q58 3 84 18t33 51q8 38 -15 54.5t-70 16.5l32 131q167 0 240.5 -48t53.5 -145q-13 -64 -53.5 -100t-89.5 -44l-13 -63h-211z" horiz-adv-x="1095" unicode="Ả"/><glyph d="M504 0q-6 27 -8.5 58t-2.5 64q-50 -65 -110.5 -104t-131.5 -39q-120 0 -183.5 89.5t-34.5 233.5q34 170 146 252.5t309 82.5h96l18 88q16 84 0 124t-68 40q-39 0 -68 -35t-41 -98l-273 1l-2 6q26 151 148 245t297 94q152 0 238.5 -100t51.5 -279l-88 -438 q-17 -84 -19.5 -150t6.5 -135h-280zM376 193q36 0 72.5 22t63.5 58l40 201h-96q-53 0 -89 -45.5t-49 -113.5q-12 -58 4 -90t54 -32zM511 1266l9 129q58 3 84 18t33 51q8 38 -15 54.5t-70 16.5l32 131q167 0 240.5 -48t53.5 -145q-13 -64 -53.5 -100t-89.5 -44l-13 -63h-211z" horiz-adv-x="911" unicode="ả"/><glyph d="M706 309h-351l-136 -309h-284l679 1456h293l96 -1456h-284zM455 538h242l-19 491l-6 1zM1276 2011h246l2 -5l-228 -263h-193zM1155 1576h-250l-88 148l-147 -148h-241l-2 6l296 249h232z" horiz-adv-x="1095" unicode="Ấ"/><glyph d="M504 0q-6 27 -8.5 58t-2.5 64q-50 -65 -110.5 -104t-131.5 -39q-120 0 -183.5 89.5t-34.5 233.5q34 170 146 252.5t309 82.5h96l18 88q16 84 0 124t-68 40q-39 0 -68 -35t-41 -98l-273 1l-2 6q26 151 148 245t297 94q152 0 238.5 -100t51.5 -279l-88 -438 q-17 -84 -19.5 -150t6.5 -135h-280zM376 193q36 0 72.5 22t63.5 58l40 201h-96q-53 0 -89 -45.5t-49 -113.5q-12 -58 4 -90t54 -32zM1108 1687h246l2 -5l-228 -263h-193zM987 1252h-250l-88 148l-147 -148h-241l-2 6l296 249h232z" horiz-adv-x="911" unicode="ấ"/><glyph d="M706 309h-351l-136 -309h-284l679 1456h293l96 -1456h-284zM455 538h242l-19 491l-6 1zM536 1743h-190l-128 268h252zM1150 1576h-250l-88 148l-147 -148h-241l-2 6l296 249h232z" horiz-adv-x="1095" unicode="Ầ"/><glyph d="M504 0q-6 27 -8.5 58t-2.5 64q-50 -65 -110.5 -104t-131.5 -39q-120 0 -183.5 89.5t-34.5 233.5q34 170 146 252.5t309 82.5h96l18 88q16 84 0 124t-68 40q-39 0 -68 -35t-41 -98l-273 1l-2 6q26 151 148 245t297 94q152 0 238.5 -100t51.5 -279l-88 -438 q-17 -84 -19.5 -150t6.5 -135h-280zM376 193q36 0 72.5 22t63.5 58l40 201h-96q-53 0 -89 -45.5t-49 -113.5q-12 -58 4 -90t54 -32zM368 1419h-190l-128 268h252zM982 1252h-250l-88 148l-147 -148h-241l-2 6l296 249h232z" horiz-adv-x="911" unicode="ầ"/><glyph d="M706 309h-351l-136 -309h-284l679 1456h293l96 -1456h-284zM455 538h242l-19 491l-6 1zM1140 1576h-250l-88 148l-147 -148h-241l-2 6l296 249h232zM1086 1709l7 110q49 3 72.5 15t29.5 41q7 32 -14.5 46.5t-61.5 14.5l29 111q139 0 200.5 -40t45.5 -122 q-12 -55 -46 -85.5t-74 -37.5l-11 -53h-177z" horiz-adv-x="1095" unicode="Ẩ"/><glyph d="M504 0q-6 27 -8.5 58t-2.5 64q-50 -65 -110.5 -104t-131.5 -39q-120 0 -183.5 89.5t-34.5 233.5q34 170 146 252.5t309 82.5h96l18 88q16 84 0 124t-68 40q-39 0 -68 -35t-41 -98l-273 1l-2 6q26 151 148 245t297 94q152 0 238.5 -100t51.5 -279l-88 -438 q-17 -84 -19.5 -150t6.5 -135h-280zM376 193q36 0 72.5 22t63.5 58l40 201h-96q-53 0 -89 -45.5t-49 -113.5q-12 -58 4 -90t54 -32zM972 1252h-250l-88 148l-147 -148h-241l-2 6l296 249h232zM918 1385l7 110q49 3 72.5 15t29.5 41q7 32 -14.5 46.5t-61.5 14.5l29 111 q139 0 200.5 -40t45.5 -122q-12 -55 -46 -85.5t-74 -37.5l-11 -53h-177z" horiz-adv-x="911" unicode="ẩ"/><glyph d="M706 309h-351l-136 -309h-284l679 1456h293l96 -1456h-284zM455 538h242l-19 491l-6 1zM1090 2051q-14 -73 -57 -123t-96 -50q-37 0 -93.5 36.5t-87.5 36.5q-17 0 -32.5 -24.5t-21.5 -59.5l-97 31q14 73 56.5 124t95.5 51q28 0 89 -35.5t92 -35.5q15 0 32 27t24 62z M1133 1576h-250l-88 148l-147 -148h-241l-2 6l296 249h232z" horiz-adv-x="1095" unicode="Ẫ"/><glyph d="M504 0q-6 27 -8.5 58t-2.5 64q-50 -65 -110.5 -104t-131.5 -39q-120 0 -183.5 89.5t-34.5 233.5q34 170 146 252.5t309 82.5h96l18 88q16 84 0 124t-68 40q-39 0 -68 -35t-41 -98l-273 1l-2 6q26 151 148 245t297 94q152 0 238.5 -100t51.5 -279l-88 -438 q-17 -84 -19.5 -150t6.5 -135h-280zM376 193q36 0 72.5 22t63.5 58l40 201h-96q-53 0 -89 -45.5t-49 -113.5q-12 -58 4 -90t54 -32zM924 1727q-14 -73 -57 -123t-96 -50q-37 0 -93.5 36.5t-87.5 36.5q-17 0 -32.5 -24.5t-21.5 -59.5l-97 31q14 73 56.5 124t95.5 51 q28 0 89 -35.5t92 -35.5q15 0 32 27t24 62zM967 1252h-250l-88 148l-147 -148h-241l-2 6l296 249h232z" horiz-adv-x="911" unicode="ẫ"/><glyph d="M706 309h-351l-136 -309h-284l679 1456h293l96 -1456h-284zM455 538h242l-19 491l-6 1zM1117 1613l-5 -22h-219l-80 134l-132 -134h-214l5 25l290 237h155zM555 -353h-312l49 241h312z" horiz-adv-x="1095" unicode="Ậ"/><glyph d="M504 0q-6 27 -8.5 58t-2.5 64q-50 -65 -110.5 -104t-131.5 -39q-120 0 -183.5 89.5t-34.5 233.5q34 170 146 252.5t309 82.5h96l18 88q16 84 0 124t-68 40q-39 0 -68 -35t-41 -98l-273 1l-2 6q26 151 148 245t297 94q152 0 238.5 -100t51.5 -279l-88 -438 q-17 -84 -19.5 -150t6.5 -135h-280zM376 193q36 0 72.5 22t63.5 58l40 201h-96q-53 0 -89 -45.5t-49 -113.5q-12 -58 4 -90t54 -32zM949 1291l-5 -22h-219l-80 134l-132 -134h-214l5 25l290 237h155zM393 -337h-312l49 241h312z" horiz-adv-x="911" unicode="ậ"/><glyph d="M706 309h-351l-136 -309h-284l679 1456h293l96 -1456h-284zM455 538h242l-19 491l-6 1zM884 2017h190l3 -6l-175 -183h-151zM1099 1779l2 -6q-17 -108 -108.5 -168.5t-231.5 -60.5q-129 0 -201 65t-46 164l2 6h205q-9 -45 7 -70.5t61 -25.5q41 0 69.5 27.5t36.5 68.5h204 z" horiz-adv-x="1095" unicode="Ắ"/><glyph d="M504 0q-6 27 -8.5 58t-2.5 64q-50 -65 -110.5 -104t-131.5 -39q-120 0 -183.5 89.5t-34.5 233.5q34 170 146 252.5t309 82.5h96l18 88q16 84 0 124t-68 40q-39 0 -68 -35t-41 -98l-273 1l-2 6q26 151 148 245t297 94q152 0 238.5 -100t51.5 -279l-88 -438 q-17 -84 -19.5 -150t6.5 -135h-280zM376 193q36 0 72.5 22t63.5 58l40 201h-96q-53 0 -89 -45.5t-49 -113.5q-12 -58 4 -90t54 -32zM716 1693h190l3 -6l-175 -183h-151zM931 1455l2 -6q-17 -108 -108.5 -168.5t-231.5 -60.5q-129 0 -201 65t-46 164l2 6h205q-9 -45 7 -70.5 t61 -25.5q41 0 69.5 27.5t36.5 68.5h204z" horiz-adv-x="911" unicode="ắ"/><glyph d="M706 309h-351l-136 -309h-284l679 1456h293l96 -1456h-284zM455 538h242l-19 491l-6 1zM983 1850h-213l-126 221h256zM1133 1779l2 -6q-17 -108 -108.5 -168.5t-231.5 -60.5q-129 0 -201 65t-46 164l2 6h205q-9 -45 7 -70.5t61 -25.5q41 0 69.5 27.5t36.5 68.5h204z" horiz-adv-x="1095" unicode="Ằ"/><glyph d="M504 0q-6 27 -8.5 58t-2.5 64q-50 -65 -110.5 -104t-131.5 -39q-120 0 -183.5 89.5t-34.5 233.5q34 170 146 252.5t309 82.5h96l18 88q16 84 0 124t-68 40q-39 0 -68 -35t-41 -98l-273 1l-2 6q26 151 148 245t297 94q152 0 238.5 -100t51.5 -279l-88 -438 q-17 -84 -19.5 -150t6.5 -135h-280zM376 193q36 0 72.5 22t63.5 58l40 201h-96q-53 0 -89 -45.5t-49 -113.5q-12 -58 4 -90t54 -32zM815 1526h-213l-126 221h256zM965 1455l2 -6q-17 -108 -108.5 -168.5t-231.5 -60.5q-129 0 -201 65t-46 164l2 6h205q-9 -45 7 -70.5 t61 -25.5q41 0 69.5 27.5t36.5 68.5h204z" horiz-adv-x="911" unicode="ằ"/><glyph d="M706 309h-351l-136 -309h-284l679 1456h293l96 -1456h-284zM455 538h242l-19 491l-6 1zM1113 1779l2 -6q-17 -108 -108.5 -168.5t-231.5 -60.5q-129 0 -201 65t-46 164l2 6h205q-9 -45 7 -70.5t61 -25.5q41 0 69.5 27.5t36.5 68.5h204zM724 1821l3 104q55 2 81 13.5 t32 39.5q6 30 -17.5 43t-69.5 13l27 103q162 0 235.5 -37.5t59.5 -113.5q-11 -51 -49.5 -79.5t-86.5 -34.5l-10 -51h-205z" horiz-adv-x="1095" unicode="Ẳ"/><glyph d="M504 0q-6 27 -8.5 58t-2.5 64q-50 -65 -110.5 -104t-131.5 -39q-120 0 -183.5 89.5t-34.5 233.5q34 170 146 252.5t309 82.5h96l18 88q16 84 0 124t-68 40q-39 0 -68 -35t-41 -98l-273 1l-2 6q26 151 148 245t297 94q152 0 238.5 -100t51.5 -279l-88 -438 q-17 -84 -19.5 -150t6.5 -135h-280zM376 193q36 0 72.5 22t63.5 58l40 201h-96q-53 0 -89 -45.5t-49 -113.5q-12 -58 4 -90t54 -32zM945 1455l2 -6q-17 -108 -108.5 -168.5t-231.5 -60.5q-129 0 -201 65t-46 164l2 6h205q-9 -45 7 -70.5t61 -25.5q41 0 69.5 27.5t36.5 68.5 h204zM556 1497l3 104q55 2 81 13.5t32 39.5q6 30 -17.5 43t-69.5 13l27 103q162 0 235.5 -37.5t59.5 -113.5q-11 -51 -49.5 -79.5t-86.5 -34.5l-10 -51h-205z" horiz-adv-x="911" unicode="ẳ"/><glyph d="M706 309h-351l-136 -309h-284l679 1456h293l96 -1456h-284zM455 538h242l-19 491l-6 1zM1111 1781l2 -6q-17 -109 -107.5 -170t-226.5 -61q-126 0 -197 65.5t-45 165.5l2 6h202q-9 -45 6 -71t60 -26q39 0 66 28t36 69h202zM1118 2053q-16 -79 -64 -129.5t-105 -50.5 q-40 0 -92 35t-83 35q-19 0 -38.5 -26t-26.5 -62l-104 33q15 78 61.5 129t106.5 51q28 0 84 -34.5t90 -34.5q17 0 35.5 25.5t26.5 62.5z" horiz-adv-x="1095" unicode="Ẵ"/><glyph d="M504 0q-6 27 -8.5 58t-2.5 64q-50 -65 -110.5 -104t-131.5 -39q-120 0 -183.5 89.5t-34.5 233.5q34 170 146 252.5t309 82.5h96l18 88q16 84 0 124t-68 40q-39 0 -68 -35t-41 -98l-273 1l-2 6q26 151 148 245t297 94q152 0 238.5 -100t51.5 -279l-88 -438 q-17 -84 -19.5 -150t6.5 -135h-280zM376 193q36 0 72.5 22t63.5 58l40 201h-96q-53 0 -89 -45.5t-49 -113.5q-12 -58 4 -90t54 -32zM943 1457l2 -6q-17 -109 -107.5 -170t-226.5 -61q-126 0 -197 65.5t-45 165.5l2 6h202q-9 -45 6 -71t60 -26q39 0 66 28t36 69h202z M950 1729q-16 -79 -64 -129.5t-105 -50.5q-40 0 -92 35t-83 35q-19 0 -38.5 -26t-26.5 -62l-104 33q15 78 61.5 129t106.5 51q28 0 84 -34.5t90 -34.5q17 0 35.5 25.5t26.5 62.5z" horiz-adv-x="911" unicode="ẵ"/><glyph d="M706 309h-351l-136 -309h-284l679 1456h293l96 -1456h-284zM455 538h242l-19 491l-6 1zM1136 1897l2 -6q-17 -134 -111 -212t-235 -78q-136 0 -208.5 81.5t-47.5 209.5l2 5h206q-9 -54 9 -87.5t67 -33.5q45 0 73 34t37 87h206zM555 -353h-312l49 241h312z" horiz-adv-x="1095" unicode="Ặ"/><glyph d="M504 0q-6 27 -8.5 58t-2.5 64q-50 -65 -110.5 -104t-131.5 -39q-120 0 -183.5 89.5t-34.5 233.5q34 170 146 252.5t309 82.5h96l18 88q16 84 0 124t-68 40q-39 0 -68 -35t-41 -98l-273 1l-2 6q26 151 148 245t297 94q152 0 238.5 -100t51.5 -279l-88 -438 q-17 -84 -19.5 -150t6.5 -135h-280zM376 193q36 0 72.5 22t63.5 58l40 201h-96q-53 0 -89 -45.5t-49 -113.5q-12 -58 4 -90t54 -32zM968 1575l2 -6q-17 -134 -111 -212t-235 -78q-136 0 -208.5 81.5t-47.5 209.5l2 5h206q-9 -54 9 -87.5t67 -33.5q45 0 73 34t37 87h206z M393 -337h-312l49 241h312z" horiz-adv-x="911" unicode="ặ"/><glyph d="M893 639h-460l-83 -412h542l-45 -227h-825l291 1456h823l-45 -228h-541l-72 -362h460zM496 -343h-312l49 241h312z" horiz-adv-x="971" unicode="Ẹ"/><glyph d="M423 -21q-189 0 -286 135t-64 337l24 152q36 227 163 363t318 136q176 0 258.5 -128.5t48.5 -344.5l-28 -174h-504v-4q-18 -111 15 -178t125 -67q72 0 124.5 18.5t123.5 59.5l42 -181q-62 -54 -157 -89t-203 -35zM542 874q-58 0 -97 -62.5t-61 -166.5h226l7 40 q15 94 -1.5 141.5t-73.5 47.5zM492 -353h-312l49 241h312z" horiz-adv-x="907" unicode="ẹ"/><glyph d="M893 639h-460l-83 -412h542l-45 -227h-825l291 1456h823l-45 -228h-541l-72 -362h460zM618 1587l9 129q58 3 84 18t33 51q8 38 -15 54.5t-70 16.5l32 131q167 0 240.5 -48t53.5 -145q-13 -64 -53.5 -100t-89.5 -44l-13 -63h-211z" horiz-adv-x="971" unicode="Ẻ"/><glyph d="M423 -21q-189 0 -286 135t-64 337l24 152q36 227 163 363t318 136q176 0 258.5 -128.5t48.5 -344.5l-28 -174h-504v-4q-18 -111 15 -178t125 -67q72 0 124.5 18.5t123.5 59.5l42 -181q-62 -54 -157 -89t-203 -35zM542 874q-58 0 -97 -62.5t-61 -166.5h226l7 40 q15 94 -1.5 141.5t-73.5 47.5zM472 1266l9 129q58 3 84 18t33 51q8 38 -15 54.5t-70 16.5l32 131q167 0 240.5 -48t53.5 -145q-13 -64 -53.5 -100t-89.5 -44l-13 -63h-211z" horiz-adv-x="907" unicode="ẻ"/><glyph d="M893 639h-460l-83 -412h542l-45 -227h-825l291 1456h823l-45 -228h-541l-72 -362h460zM1085 1854q-17 -99 -75.5 -163.5t-135.5 -64.5q-53 0 -121 44t-110 44q-24 0 -47.5 -33t-30.5 -79l-140 43q15 96 74.5 162.5t135.5 66.5q40 0 114.5 -44t117.5 -44q24 0 48 33t32 80 z" horiz-adv-x="971" unicode="Ẽ"/><glyph d="M423 -21q-189 0 -286 135t-64 337l24 152q36 227 163 363t318 136q176 0 258.5 -128.5t48.5 -344.5l-28 -174h-504v-4q-18 -111 15 -178t125 -67q72 0 124.5 18.5t123.5 59.5l42 -181q-62 -54 -157 -89t-203 -35zM542 874q-58 0 -97 -62.5t-61 -166.5h226l7 40 q15 94 -1.5 141.5t-73.5 47.5zM939 1533q-17 -99 -75.5 -163.5t-135.5 -64.5q-53 0 -121 44t-110 44q-24 0 -47.5 -33t-30.5 -79l-140 43q15 96 74.5 162.5t135.5 66.5q40 0 114.5 -44t117.5 -44q24 0 48 33t32 80z" horiz-adv-x="907" unicode="ẽ"/><glyph d="M893 639h-460l-83 -412h542l-45 -227h-825l291 1456h823l-45 -228h-541l-72 -362h460zM1215 2011h246l2 -5l-228 -263h-193zM1094 1576h-250l-88 148l-147 -148h-241l-2 6l296 249h232z" horiz-adv-x="971" unicode="Ế"/><glyph d="M423 -21q-189 0 -286 135t-64 337l24 152q36 227 163 363t318 136q176 0 258.5 -128.5t48.5 -344.5l-28 -174h-504v-4q-18 -111 15 -178t125 -67q72 0 124.5 18.5t123.5 59.5l42 -181q-62 -54 -157 -89t-203 -35zM542 874q-58 0 -97 -62.5t-61 -166.5h226l7 40 q15 94 -1.5 141.5t-73.5 47.5zM1071 1687h246l2 -5l-228 -263h-193zM950 1252h-250l-88 148l-147 -148h-241l-2 6l296 249h232z" horiz-adv-x="907" unicode="ế"/><glyph d="M893 639h-460l-83 -412h542l-45 -227h-825l291 1456h823l-45 -228h-541l-72 -362h460zM475 1743h-190l-128 268h252zM1089 1576h-250l-88 148l-147 -148h-241l-2 6l296 249h232z" horiz-adv-x="971" unicode="Ề"/><glyph d="M423 -21q-189 0 -286 135t-64 337l24 152q36 227 163 363t318 136q176 0 258.5 -128.5t48.5 -344.5l-28 -174h-504v-4q-18 -111 15 -178t125 -67q72 0 124.5 18.5t123.5 59.5l42 -181q-62 -54 -157 -89t-203 -35zM542 874q-58 0 -97 -62.5t-61 -166.5h226l7 40 q15 94 -1.5 141.5t-73.5 47.5zM331 1419h-190l-128 268h252zM945 1252h-250l-88 148l-147 -148h-241l-2 6l296 249h232z" horiz-adv-x="907" unicode="ề"/><glyph d="M893 639h-460l-83 -412h542l-45 -227h-825l291 1456h823l-45 -228h-541l-72 -362h460zM1079 1576h-250l-88 148l-147 -148h-241l-2 6l296 249h232zM1025 1709l7 110q49 3 72.5 15t29.5 41q7 32 -14.5 46.5t-61.5 14.5l29 111q139 0 200.5 -40t45.5 -122 q-12 -55 -46 -85.5t-74 -37.5l-11 -53h-177z" horiz-adv-x="971" unicode="Ể"/><glyph d="M423 -21q-189 0 -286 135t-64 337l24 152q36 227 163 363t318 136q176 0 258.5 -128.5t48.5 -344.5l-28 -174h-504v-4q-18 -111 15 -178t125 -67q72 0 124.5 18.5t123.5 59.5l42 -181q-62 -54 -157 -89t-203 -35zM542 874q-58 0 -97 -62.5t-61 -166.5h226l7 40 q15 94 -1.5 141.5t-73.5 47.5zM935 1252h-250l-88 148l-147 -148h-241l-2 6l296 249h232zM881 1385l7 110q49 3 72.5 15t29.5 41q7 32 -14.5 46.5t-61.5 14.5l29 111q139 0 200.5 -40t45.5 -122q-12 -55 -46 -85.5t-74 -37.5l-11 -53h-177z" horiz-adv-x="907" unicode="ể"/><glyph d="M893 639h-460l-83 -412h542l-45 -227h-825l291 1456h823l-45 -228h-541l-72 -362h460zM1029 2051q-14 -73 -57 -123t-96 -50q-37 0 -93.5 36.5t-87.5 36.5q-17 0 -32.5 -24.5t-21.5 -59.5l-97 31q14 73 56.5 124t95.5 51q28 0 89 -35.5t92 -35.5q15 0 32 27t24 62z M1072 1576h-250l-88 148l-147 -148h-241l-2 6l296 249h232z" horiz-adv-x="971" unicode="Ễ"/></font>
</defs>
</svg>
